G04 DesignSpark PCB Gerber Version 11.0 Build 5877*
G04 #@! TF.Part,Single*
G04 #@! TF.FilePolarity,Positive*
%FSLAX35Y35*%
%MOIN*%
G04 #@! TA.AperFunction,ViaDrill*
%ADD70C,0.01181*%
G04 #@! TA.AperFunction,ComponentDrill*
%ADD21C,0.02362*%
%ADD22C,0.02559*%
G04 #@! TA.AperFunction,MechanicalDrill*
%ADD19C,0.03937*%
%ADD71C,0.12598*%
G04 #@! TA.AperFunction,ComponentDrill*
%ADD20C,0.13780*%
G04 #@! TD.AperFunction*
X0Y0D02*
D02*
D19*
X109925Y493196D03*
Y524298D03*
X224000Y393747D03*
Y413747D03*
X234000Y393747D03*
Y413747D03*
X244000Y393747D03*
Y413747D03*
X254000Y393747D03*
Y413747D03*
X264000Y393747D03*
Y413747D03*
X274000Y393747D03*
Y413747D03*
X284000Y393747D03*
Y413747D03*
X294000Y393747D03*
Y413747D03*
X304000Y393747D03*
Y413747D03*
X314000Y393747D03*
Y413747D03*
X324000Y393747D03*
Y413747D03*
X334000Y393747D03*
Y413747D03*
X344000Y393747D03*
Y413747D03*
X354000Y393747D03*
Y413747D03*
X364000Y393747D03*
Y413747D03*
X374000Y393747D03*
Y413747D03*
X384000Y393747D03*
Y413747D03*
X394000Y393747D03*
Y413747D03*
X404000Y393747D03*
Y413747D03*
X414000Y393747D03*
Y413747D03*
X424000Y393747D03*
Y413747D03*
X434000Y393747D03*
Y413747D03*
X444000Y393747D03*
Y413747D03*
X454000Y393747D03*
Y413747D03*
X464000Y393747D03*
Y413747D03*
D02*
D70*
X91205Y353747D03*
Y398747D03*
X94000Y457768D03*
Y470268D03*
Y498747D03*
Y513747D03*
X104000Y353747D03*
Y457768D03*
Y470268D03*
X109000Y498747D03*
Y513747D03*
Y529997D03*
X110250Y368747D03*
Y383747D03*
Y398747D03*
Y413747D03*
Y428747D03*
X116500Y328747D03*
Y338747D03*
Y529997D03*
Y543747D03*
Y556247D03*
X116509Y454938D03*
Y473330D03*
Y477823D03*
X120250Y473455D03*
X121502Y453869D03*
X122250Y462605D03*
X124000Y328747D03*
Y338747D03*
Y349997D03*
Y368747D03*
Y383747D03*
Y398747D03*
Y413747D03*
Y428747D03*
Y443747D03*
X126500Y543747D03*
Y556247D03*
X133982Y469719D03*
X134000Y476457D03*
X134107Y450000D03*
Y455991D03*
Y464976D03*
X137750Y512684D03*
Y520558D03*
X139000Y328747D03*
Y338747D03*
Y349997D03*
Y368747D03*
Y383747D03*
Y398747D03*
Y413747D03*
Y428747D03*
Y443747D03*
Y473747D03*
Y543747D03*
Y556247D03*
X142718Y465226D03*
X142843Y455991D03*
X147750Y482497D03*
X149000Y531247D03*
X150206Y484997D03*
X153950Y518747D03*
X153993Y473747D03*
X154000Y328747D03*
Y338747D03*
Y368747D03*
Y383747D03*
Y398747D03*
Y413747D03*
Y428747D03*
Y443747D03*
Y543747D03*
Y556247D03*
X155698Y355641D03*
X158443D03*
X159000Y455991D03*
Y465268D03*
X160250Y529991D03*
X164344Y504531D03*
Y509898D03*
X169000Y328747D03*
Y368747D03*
Y383747D03*
Y398747D03*
Y413747D03*
Y428747D03*
Y457363D03*
Y464018D03*
Y473747D03*
Y543747D03*
Y556247D03*
X169052Y518759D03*
X172750Y354517D03*
X173830Y529991D03*
X175292Y510022D03*
X178911Y513747D03*
X179000Y457363D03*
Y463853D03*
X181781Y444875D03*
Y482497D03*
X183315Y530116D03*
X183903Y500787D03*
X184000Y328747D03*
Y338747D03*
Y353747D03*
Y368747D03*
Y383747D03*
Y428747D03*
Y518747D03*
Y546247D03*
Y556247D03*
X184153Y510147D03*
X184278Y447371D03*
Y484997D03*
X188895Y457363D03*
Y463853D03*
X189000Y473747D03*
X189644Y442492D03*
X192750Y439997D03*
X193798Y504440D03*
X196500Y489997D03*
Y493747D03*
X198541Y526372D03*
X199000Y328747D03*
Y338747D03*
Y353747D03*
Y368747D03*
Y383747D03*
Y428747D03*
Y518759D03*
Y546247D03*
Y556247D03*
X199753Y503747D03*
X202750Y489872D03*
Y493747D03*
X209238Y457239D03*
Y464477D03*
X211500Y383747D03*
Y413747D03*
X213981Y503747D03*
X214000Y328747D03*
Y338747D03*
Y353747D03*
Y368747D03*
Y473747D03*
Y488681D03*
Y518759D03*
Y529997D03*
Y546247D03*
Y556247D03*
X217101Y469461D03*
X218474Y479945D03*
X218598Y460608D03*
X219222Y489180D03*
X224215Y495670D03*
X224589Y468588D03*
X225587Y478822D03*
X226500Y487308D03*
X229000Y328747D03*
Y338747D03*
Y353747D03*
Y368747D03*
Y458747D03*
Y473747D03*
Y503747D03*
Y518759D03*
Y529997D03*
Y546247D03*
Y556247D03*
X234000Y492924D03*
Y499414D03*
X236500Y368747D03*
X241500Y376109D03*
X244000Y328747D03*
Y338747D03*
Y458747D03*
Y473747D03*
Y488747D03*
Y492924D03*
Y499414D03*
Y503747D03*
Y512497D03*
Y546247D03*
Y556247D03*
X246500Y376109D03*
X254000Y492924D03*
Y499414D03*
X259000Y328747D03*
Y338747D03*
Y368747D03*
Y383747D03*
Y398747D03*
Y408747D03*
Y428747D03*
Y441247D03*
Y458747D03*
Y473747D03*
Y488747D03*
Y503747D03*
Y512497D03*
Y531247D03*
Y546247D03*
Y556245D03*
X265250Y492924D03*
Y499414D03*
X270766Y517011D03*
X270891Y464844D03*
X274000Y328747D03*
Y338747D03*
Y533747D03*
Y546247D03*
Y556245D03*
X274011Y528493D03*
X276382Y428747D03*
X276632Y530989D03*
X279378Y533361D03*
X282248Y535732D03*
X285250Y492924D03*
Y499414D03*
Y512497D03*
X285912Y467714D03*
X287490Y537604D03*
X289000Y328747D03*
Y338747D03*
Y488747D03*
Y546247D03*
Y556245D03*
X290235Y539850D03*
X291483Y479446D03*
X293106Y542097D03*
X294000Y441247D03*
Y458747D03*
Y492924D03*
Y499414D03*
Y512497D03*
X295976Y544343D03*
X296725Y485561D03*
Y490304D03*
X299881Y487932D03*
X304000Y328747D03*
Y338747D03*
Y492924D03*
Y526247D03*
Y534997D03*
Y546247D03*
Y556245D03*
X306959Y500662D03*
X307708Y509190D03*
X309000Y428747D03*
Y441247D03*
Y458747D03*
Y473747D03*
X310578Y483939D03*
X310703Y491801D03*
X314000Y433019D03*
X314572Y500662D03*
X316500Y428747D03*
X319000Y328747D03*
Y338747D03*
Y401247D03*
Y526247D03*
Y534997D03*
Y546247D03*
Y556245D03*
X319065Y435390D03*
X320313Y512893D03*
X321500Y428747D03*
X323433Y512893D03*
X324000Y437637D03*
Y441247D03*
Y458747D03*
Y473747D03*
X325929Y524250D03*
X326500Y378747D03*
X327926Y439883D03*
X328449Y502407D03*
X328924Y492959D03*
X329000Y401247D03*
X331420Y490054D03*
Y495420D03*
X331500Y375110D03*
X332669Y498790D03*
Y502160D03*
X334000Y328747D03*
Y338747D03*
Y546247D03*
Y556245D03*
X334665Y457106D03*
X336787Y439883D03*
X339000Y428747D03*
Y503747D03*
X339033Y484188D03*
X339657Y437637D03*
X340250Y493747D03*
X341911Y527869D03*
X343213Y456981D03*
Y478194D03*
Y509296D03*
X344000Y430648D03*
Y489997D03*
Y497497D03*
X344026Y435390D03*
X345648Y484188D03*
X346016Y527869D03*
X346147Y503747D03*
X346500Y423747D03*
X346896Y433019D03*
X347750Y493747D03*
X349000Y328747D03*
Y338747D03*
Y401247D03*
Y546247D03*
Y556245D03*
X349018Y428152D03*
X349517Y435390D03*
X351500Y423747D03*
X351888Y437886D03*
X352013Y456981D03*
X354000Y503747D03*
X354010Y433019D03*
X354259Y484188D03*
Y495545D03*
X356756Y440257D03*
X359000Y401247D03*
X359127Y442754D03*
X359376Y496107D03*
Y527370D03*
X360125Y435390D03*
X361498Y445250D03*
X361500Y371247D03*
X364000Y328747D03*
Y338747D03*
Y437886D03*
Y458747D03*
Y473747D03*
Y513747D03*
Y546247D03*
Y556245D03*
X366365Y433019D03*
X366500Y386247D03*
X368986Y428152D03*
Y518135D03*
X369000Y423747D03*
X371500Y371247D03*
X371607Y430648D03*
X372855Y509898D03*
X372980Y504906D03*
X374000Y445250D03*
X375975Y512144D03*
X375979Y502659D03*
X376474Y426280D03*
X376500Y386247D03*
X377847Y499289D03*
X378346Y507152D03*
X379000Y328747D03*
Y338747D03*
Y401247D03*
Y458747D03*
Y473747D03*
Y528747D03*
Y546247D03*
Y556245D03*
X379095Y442754D03*
X381092Y480694D03*
Y489804D03*
X381500Y371247D03*
X384000Y440257D03*
X386459Y426280D03*
X386500Y386247D03*
X389000Y401247D03*
X390702Y465621D03*
Y470114D03*
X393448Y495670D03*
X394000Y328747D03*
Y338747D03*
Y371247D03*
Y443747D03*
Y458747D03*
Y473747D03*
Y518747D03*
Y528747D03*
Y546247D03*
Y556245D03*
X395250Y463374D03*
Y467867D03*
X401185Y428747D03*
X401435Y483814D03*
X401500Y386247D03*
X401560Y507402D03*
X404000Y433768D03*
X404181Y492300D03*
X406500Y371247D03*
X409000Y328747D03*
Y338747D03*
Y401247D03*
Y443747D03*
Y458747D03*
Y473747D03*
Y488747D03*
Y498747D03*
Y506247D03*
Y518747D03*
Y528747D03*
Y546247D03*
Y556245D03*
X409048Y431247D03*
X411500Y386247D03*
X416500Y371247D03*
X419000Y401247D03*
X421500Y506247D03*
X424000Y328747D03*
Y338747D03*
Y386247D03*
Y443747D03*
Y458747D03*
Y473747D03*
Y488747D03*
Y498747D03*
Y518747D03*
Y546247D03*
Y556245D03*
X424524Y522497D03*
X424773Y515514D03*
X427020Y526247D03*
X431500Y386247D03*
Y421247D03*
X431637Y522497D03*
X434009Y512144D03*
Y515514D03*
X436255Y526247D03*
X436500Y371247D03*
Y443747D03*
Y458747D03*
Y473747D03*
Y488747D03*
Y506247D03*
Y518747D03*
X439000Y328747D03*
Y338747D03*
Y423747D03*
Y546247D03*
Y556245D03*
X439001Y433768D03*
X441497Y431247D03*
X441500Y386247D03*
X443993Y428747D03*
X444000Y406247D03*
X445250Y443747D03*
Y458747D03*
Y473747D03*
Y488747D03*
Y506247D03*
X446500Y375110D03*
X448985Y509898D03*
X451231Y465621D03*
X451500Y386247D03*
X453977Y463374D03*
X454000Y328747D03*
Y338747D03*
Y473747D03*
Y488747D03*
Y506247D03*
Y518747D03*
Y532497D03*
Y546247D03*
Y556245D03*
X456224Y467618D03*
X456500Y443747D03*
X456598Y375110D03*
X458844Y470114D03*
X461500Y386247D03*
Y421247D03*
X469000Y328747D03*
Y338747D03*
Y353747D03*
Y368747D03*
Y383747D03*
Y428747D03*
Y443747D03*
Y458747D03*
Y473747D03*
Y488747D03*
Y506247D03*
Y518747D03*
Y532497D03*
Y546247D03*
Y556245D03*
X475129Y501161D03*
X477939Y503408D03*
X480371Y506528D03*
X484000Y328747D03*
Y338747D03*
Y353747D03*
Y368747D03*
Y383747D03*
Y398747D03*
Y413747D03*
Y428747D03*
Y443747D03*
Y458747D03*
Y473747D03*
Y488747D03*
Y503747D03*
Y518747D03*
Y532497D03*
Y546247D03*
Y556245D03*
X499000Y328747D03*
Y368747D03*
Y383747D03*
Y428747D03*
Y443747D03*
Y458747D03*
Y473747D03*
Y488747D03*
Y503747D03*
Y518747D03*
Y532497D03*
Y546247D03*
Y556245D03*
X514000Y328747D03*
Y368747D03*
Y383747D03*
Y398747D03*
Y413747D03*
Y428747D03*
Y443747D03*
Y458747D03*
Y473747D03*
Y488747D03*
Y503747D03*
Y518747D03*
Y532497D03*
Y546247D03*
Y556245D03*
X529000Y328747D03*
Y338747D03*
Y353747D03*
Y368747D03*
Y383747D03*
Y398747D03*
Y413747D03*
Y428747D03*
Y443747D03*
Y458747D03*
Y473747D03*
Y488747D03*
Y503747D03*
Y518747D03*
Y532497D03*
Y546247D03*
Y556245D03*
X544000Y353747D03*
Y368747D03*
Y383747D03*
Y398747D03*
Y413747D03*
Y428747D03*
Y443747D03*
Y458747D03*
Y531247D03*
X557474Y383747D03*
Y398747D03*
Y458747D03*
Y498747D03*
X557750Y353747D03*
Y368747D03*
Y413747D03*
Y428747D03*
Y443747D03*
Y531247D03*
D02*
D71*
X99984Y337804D03*
Y546466D03*
X548803Y337804D03*
Y546466D03*
D02*
D20*
X190240Y403747D03*
X497760D03*
D02*
D21*
X90821Y447379D03*
Y481394D03*
X91608Y447379D03*
Y481394D03*
X92396Y447379D03*
Y481394D03*
X92986Y447379D03*
Y481394D03*
X93577Y447379D03*
Y481394D03*
X94364Y447379D03*
Y481394D03*
X95152Y447379D03*
Y481394D03*
X107278Y447379D03*
Y481394D03*
X108065Y447379D03*
Y481394D03*
X108852Y447379D03*
Y481394D03*
X109443Y447379D03*
Y481394D03*
X110033Y447379D03*
Y481394D03*
X110833Y447379D03*
Y481394D03*
X111608Y447379D03*
Y481394D03*
D02*
D22*
X107474Y453009D03*
Y475765D03*
X0Y0D02*
M02*
