G05
M48
;#@! TF.GenerationSoftware,DesignSpark,DesignSpark PCB,11.0.5875
;#@! TF.CreationDate,2026-04-06T08:32:50--9:00*
;#@! TF.FileFunction,Plated,1,2,PTH
;FILE_FORMAT=3:5
;TYPE=PLATED
INCH,TZ
FMAT,2
T1C000.01181
T2C000.02362
T3C000.03937
T4C000.12598
T5C000.13780
%
T001
X91205Y353747
X91205Y398747
X94000Y457768
X94000Y470268
X94000Y498747
X94000Y513747
X104000Y353747
X104000Y457768
X104000Y470268
X109000Y498747
X109000Y513747
X109000Y529997
X110250Y368747
X110250Y383747
X110250Y398747
X110250Y413747
X110250Y428747
X116500Y328747
X116500Y338747
X116500Y529997
X116500Y543747
X116500Y556247
X116509Y454938
X116509Y473330
X116509Y477823
X120250Y473455
X121502Y453869
X122250Y462605
X124000Y328747
X124000Y338747
X124000Y349997
X124000Y368747
X124000Y383747
X124000Y398747
X124000Y413747
X124000Y428747
X124000Y443747
X126500Y543747
X126500Y556247
X133982Y469719
X134000Y476457
X134107Y450000
X134107Y455991
X134107Y464976
X137750Y512684
X137750Y520558
X139000Y328747
X139000Y338747
X139000Y349997
X139000Y368747
X139000Y383747
X139000Y398747
X139000Y413747
X139000Y428747
X139000Y443747
X139000Y473747
X139000Y543747
X139000Y556247
X142718Y465226
X142843Y455991
X147750Y482497
X149000Y531247
X150206Y484997
X153950Y518747
X153993Y473747
X154000Y328747
X154000Y338747
X154000Y368747
X154000Y383747
X154000Y398747
X154000Y413747
X154000Y428747
X154000Y443747
X154000Y543747
X154000Y556247
X155698Y355641
X158443Y355641
X159000Y455991
X159000Y465268
X160250Y529991
X164344Y504531
X164344Y509898
X169000Y328747
X169000Y368747
X169000Y383747
X169000Y398747
X169000Y413747
X169000Y428747
X169000Y457363
X169000Y464018
X169000Y473747
X169000Y543747
X169000Y556247
X169052Y518759
X172750Y354517
X173830Y529991
X175292Y510022
X178911Y513747
X179000Y457363
X179000Y463853
X181781Y444875
X181781Y482497
X183315Y530116
X183903Y500787
X184000Y328747
X184000Y338747
X184000Y353747
X184000Y368747
X184000Y383747
X184000Y428747
X184000Y518747
X184000Y546247
X184000Y556247
X184153Y510147
X184278Y447371
X184278Y484997
X188895Y457363
X188895Y463853
X189000Y473747
X189644Y442492
X192750Y439997
X193798Y504440
X196500Y489997
X196500Y493747
X198541Y526372
X199000Y328747
X199000Y338747
X199000Y353747
X199000Y368747
X199000Y383747
X199000Y428747
X199000Y518759
X199000Y546247
X199000Y556247
X199753Y503747
X202750Y489872
X202750Y493747
X209238Y457239
X209238Y464477
X211500Y383747
X211500Y413747
X213981Y503747
X214000Y328747
X214000Y338747
X214000Y353747
X214000Y368747
X214000Y473747
X214000Y488681
X214000Y518759
X214000Y529997
X214000Y546247
X214000Y556247
X217101Y469461
X218474Y479945
X218598Y460608
X219222Y489180
X224215Y495670
X224589Y468588
X225587Y478822
X226500Y487308
X229000Y328747
X229000Y338747
X229000Y353747
X229000Y368747
X229000Y458747
X229000Y473747
X229000Y503747
X229000Y518759
X229000Y529997
X229000Y546247
X229000Y556247
X234000Y492924
X234000Y499414
X236500Y368747
X241500Y376109
X244000Y328747
X244000Y338747
X244000Y458747
X244000Y473747
X244000Y488747
X244000Y492924
X244000Y499414
X244000Y503747
X244000Y512497
X244000Y546247
X244000Y556247
X246500Y376109
X254000Y492924
X254000Y499414
X259000Y328747
X259000Y338747
X259000Y368747
X259000Y383747
X259000Y398747
X259000Y408747
X259000Y428747
X259000Y441247
X259000Y458747
X259000Y473747
X259000Y488747
X259000Y503747
X259000Y512497
X259000Y531247
X259000Y546247
X259000Y556245
X265250Y492924
X265250Y499414
X270766Y517011
X270891Y464844
X274000Y328747
X274000Y338747
X274000Y533747
X274000Y546247
X274000Y556245
X274011Y528493
X276382Y428747
X276632Y530989
X279378Y533361
X282248Y535732
X285250Y492924
X285250Y499414
X285250Y512497
X285912Y467714
X287490Y537604
X289000Y328747
X289000Y338747
X289000Y488747
X289000Y546247
X289000Y556245
X290235Y539850
X291483Y479446
X293106Y542097
X294000Y441247
X294000Y458747
X294000Y492924
X294000Y499414
X294000Y512497
X295976Y544343
X296725Y485561
X296725Y490304
X299881Y487932
X304000Y328747
X304000Y338747
X304000Y492924
X304000Y526247
X304000Y534997
X304000Y546247
X304000Y556245
X306959Y500662
X307708Y509190
X309000Y428747
X309000Y441247
X309000Y458747
X309000Y473747
X310578Y483939
X310703Y491801
X314000Y433019
X314572Y500662
X316500Y428747
X319000Y328747
X319000Y338747
X319000Y401247
X319000Y526247
X319000Y534997
X319000Y546247
X319000Y556245
X319065Y435390
X320313Y512893
X321500Y428747
X323433Y512893
X324000Y437637
X324000Y441247
X324000Y458747
X324000Y473747
X325929Y524250
X326500Y378747
X327926Y439883
X328449Y502407
X328924Y492959
X329000Y401247
X331420Y490054
X331420Y495420
X331500Y375110
X332669Y498790
X332669Y502160
X334000Y328747
X334000Y338747
X334000Y546247
X334000Y556245
X334665Y457106
X336787Y439883
X339000Y428747
X339000Y503747
X339033Y484188
X339657Y437637
X340250Y493747
X341911Y527869
X343213Y456981
X343213Y478194
X343213Y509296
X344000Y430648
X344000Y489997
X344000Y497497
X344026Y435390
X345648Y484188
X346016Y527869
X346147Y503747
X346500Y423747
X346896Y433019
X347750Y493747
X349000Y328747
X349000Y338747
X349000Y401247
X349000Y546247
X349000Y556245
X349018Y428152
X349517Y435390
X351500Y423747
X351888Y437886
X352013Y456981
X354000Y503747
X354010Y433019
X354259Y484188
X354259Y495545
X356756Y440257
X359000Y401247
X359127Y442754
X359376Y496107
X359376Y527370
X360125Y435390
X361498Y445250
X361500Y371247
X364000Y328747
X364000Y338747
X364000Y437886
X364000Y458747
X364000Y473747
X364000Y513747
X364000Y546247
X364000Y556245
X366365Y433019
X366500Y386247
X368986Y428152
X368986Y518135
X369000Y423747
X371500Y371247
X371607Y430648
X372855Y509898
X372980Y504906
X374000Y445250
X375975Y512144
X375979Y502659
X376474Y426280
X376500Y386247
X377847Y499289
X378346Y507152
X379000Y328747
X379000Y338747
X379000Y401247
X379000Y458747
X379000Y473747
X379000Y528747
X379000Y546247
X379000Y556245
X379095Y442754
X381092Y480694
X381092Y489804
X381500Y371247
X384000Y440257
X386459Y426280
X386500Y386247
X389000Y401247
X390702Y465621
X390702Y470114
X393448Y495670
X394000Y328747
X394000Y338747
X394000Y371247
X394000Y443747
X394000Y458747
X394000Y473747
X394000Y518747
X394000Y528747
X394000Y546247
X394000Y556245
X395250Y463374
X395250Y467867
X401185Y428747
X401435Y483814
X401500Y386247
X401560Y507402
X404000Y433768
X404181Y492300
X406500Y371247
X409000Y328747
X409000Y338747
X409000Y401247
X409000Y443747
X409000Y458747
X409000Y473747
X409000Y488747
X409000Y498747
X409000Y506247
X409000Y518747
X409000Y528747
X409000Y546247
X409000Y556245
X409048Y431247
X411500Y386247
X416500Y371247
X419000Y401247
X421500Y506247
X424000Y328747
X424000Y338747
X424000Y386247
X424000Y443747
X424000Y458747
X424000Y473747
X424000Y488747
X424000Y498747
X424000Y518747
X424000Y546247
X424000Y556245
X424524Y522497
X424773Y515514
X427020Y526247
X431500Y386247
X431500Y421247
X431637Y522497
X434009Y512144
X434009Y515514
X436255Y526247
X436500Y371247
X436500Y443747
X436500Y458747
X436500Y473747
X436500Y488747
X436500Y506247
X436500Y518747
X439000Y328747
X439000Y338747
X439000Y423747
X439000Y546247
X439000Y556245
X439001Y433768
X441497Y431247
X441500Y386247
X443993Y428747
X444000Y406247
X445250Y443747
X445250Y458747
X445250Y473747
X445250Y488747
X445250Y506247
X446500Y375110
X448985Y509898
X451231Y465621
X451500Y386247
X453977Y463374
X454000Y328747
X454000Y338747
X454000Y473747
X454000Y488747
X454000Y506247
X454000Y518747
X454000Y532497
X454000Y546247
X454000Y556245
X456224Y467618
X456500Y443747
X456598Y375110
X458844Y470114
X461500Y386247
X461500Y421247
X469000Y328747
X469000Y338747
X469000Y353747
X469000Y368747
X469000Y383747
X469000Y428747
X469000Y443747
X469000Y458747
X469000Y473747
X469000Y488747
X469000Y506247
X469000Y518747
X469000Y532497
X469000Y546247
X469000Y556245
X475129Y501161
X477939Y503408
X480371Y506528
X484000Y328747
X484000Y338747
X484000Y353747
X484000Y368747
X484000Y383747
X484000Y398747
X484000Y413747
X484000Y428747
X484000Y443747
X484000Y458747
X484000Y473747
X484000Y488747
X484000Y503747
X484000Y518747
X484000Y532497
X484000Y546247
X484000Y556245
X499000Y328747
X499000Y368747
X499000Y383747
X499000Y428747
X499000Y443747
X499000Y458747
X499000Y473747
X499000Y488747
X499000Y503747
X499000Y518747
X499000Y532497
X499000Y546247
X499000Y556245
X514000Y328747
X514000Y368747
X514000Y383747
X514000Y398747
X514000Y413747
X514000Y428747
X514000Y443747
X514000Y458747
X514000Y473747
X514000Y488747
X514000Y503747
X514000Y518747
X514000Y532497
X514000Y546247
X514000Y556245
X529000Y328747
X529000Y338747
X529000Y353747
X529000Y368747
X529000Y383747
X529000Y398747
X529000Y413747
X529000Y428747
X529000Y443747
X529000Y458747
X529000Y473747
X529000Y488747
X529000Y503747
X529000Y518747
X529000Y532497
X529000Y546247
X529000Y556245
X544000Y353747
X544000Y368747
X544000Y383747
X544000Y398747
X544000Y413747
X544000Y428747
X544000Y443747
X544000Y458747
X544000Y531247
X557474Y383747
X557474Y398747
X557474Y458747
X557474Y498747
X557750Y353747
X557750Y368747
X557750Y413747
X557750Y428747
X557750Y443747
X557750Y531247
T002
X90821Y447379
X90821Y481394
X91608Y447379
X91608Y481394
X92396Y447379
X92396Y481394
X92986Y447379
X92986Y481394
X93577Y447379
X93577Y481394
X94364Y447379
X94364Y481394
X95152Y447379
X95152Y481394
X107278Y447379
X107278Y481394
X108065Y447379
X108065Y481394
X108852Y447379
X108852Y481394
X109443Y447379
X109443Y481394
X110033Y447379
X110033Y481394
X110833Y447379
X110833Y481394
X111608Y447379
X111608Y481394
T003
X109925Y493196
X109925Y524298
X224000Y393747
X224000Y413747
X234000Y393747
X234000Y413747
X244000Y393747
X244000Y413747
X254000Y393747
X254000Y413747
X264000Y393747
X264000Y413747
X274000Y393747
X274000Y413747
X284000Y393747
X284000Y413747
X294000Y393747
X294000Y413747
X304000Y393747
X304000Y413747
X314000Y393747
X314000Y413747
X324000Y393747
X324000Y413747
X334000Y393747
X334000Y413747
X344000Y393747
X344000Y413747
X354000Y393747
X354000Y413747
X364000Y393747
X364000Y413747
X374000Y393747
X374000Y413747
X384000Y393747
X384000Y413747
X394000Y393747
X394000Y413747
X404000Y393747
X404000Y413747
X414000Y393747
X414000Y413747
X424000Y393747
X424000Y413747
X434000Y393747
X434000Y413747
X444000Y393747
X444000Y413747
X454000Y393747
X454000Y413747
X464000Y393747
X464000Y413747
T004
X99984Y337804
X99984Y546466
X548803Y337804
X548803Y546466
T005
X190240Y403747
X497760Y403747
M30
