G04 DesignSpark PCB Gerber Version 11.0 Build 5877*
G04 #@! TF.Part,Single*
G04 #@! TF.FileFunction,Soldermask,Bot*
G04 #@! TF.FilePolarity,Negative*
%FSLAX35Y35*%
%MOIN*%
%ADD17C,0.00500*%
G04 #@! TA.AperFunction,ComponentPad*
%ADD15C,0.02520*%
G04 #@! TA.AperFunction,WasherPad*
%ADD11C,0.02835*%
G04 #@! TA.AperFunction,ComponentPad*
%ADD16C,0.04094*%
%ADD12C,0.06063*%
%ADD13C,0.20827*%
%ADD14O,0.08425X0.04094*%
G04 #@! TD.AperFunction*
X0Y0D02*
D02*
D11*
X340250Y493747D03*
X344000Y489997D03*
Y497497D03*
X347750Y493747D03*
D02*
D12*
X224000Y393747D03*
Y413747D03*
X234000Y393747D03*
Y413747D03*
X244000Y393747D03*
Y413747D03*
X254000Y393747D03*
Y413747D03*
X264000Y393747D03*
Y413747D03*
X274000Y393747D03*
Y413747D03*
X284000Y393747D03*
Y413747D03*
X294000Y393747D03*
Y413747D03*
X304000Y393747D03*
Y413747D03*
X314000Y393747D03*
Y413747D03*
X324000Y393747D03*
Y413747D03*
X334000Y393747D03*
Y413747D03*
X344000Y393747D03*
Y413747D03*
X354000Y393747D03*
Y413747D03*
X364000Y393747D03*
Y413747D03*
X374000Y393747D03*
Y413747D03*
X384000Y393747D03*
Y413747D03*
X394000Y393747D03*
Y413747D03*
X404000Y393747D03*
Y413747D03*
X414000Y393747D03*
Y413747D03*
X424000Y393747D03*
Y413747D03*
X434000Y393747D03*
Y413747D03*
X444000Y393747D03*
Y413747D03*
X454000Y393747D03*
Y413747D03*
X464000Y393747D03*
Y413747D03*
D02*
D13*
X190240Y403747D03*
X497760D03*
D02*
D14*
X92986Y447379D03*
Y481394D03*
X109443Y447379D03*
Y481394D03*
D02*
D15*
X90821Y447379D03*
Y481394D03*
X91608Y447379D03*
Y481394D03*
X92396Y447379D03*
Y481394D03*
X93577Y447379D03*
Y481394D03*
X94364Y447379D03*
Y481394D03*
X95152Y447379D03*
Y481394D03*
X107278Y447379D03*
Y481394D03*
X108065Y447379D03*
Y481394D03*
X108852Y447379D03*
Y481394D03*
X110033Y447379D03*
Y481394D03*
X110833Y447379D03*
Y481394D03*
X111608Y447379D03*
Y481394D03*
D02*
D16*
X109925Y493196D03*
Y524298D03*
D02*
D17*
X548578Y324025D02*
X100035D01*
G75*
G02*
X86203Y337857I0J13833D01*
G01*
Y546344D01*
G75*
G02*
X100035Y560176I13833J0D01*
G01*
X548578D01*
G75*
G02*
X562425Y546329I0J-13847D01*
G01*
Y337872D01*
G75*
G02*
X548578Y324025I-13847J0D01*
G01*
X0Y0D02*
M02*
