G04 DesignSpark PCB Gerber Version 11.0 Build 5877*
G04 #@! TF.Part,Single*
G04 #@! TF.FileFunction,Drillmap*
G04 #@! TF.FilePolarity,Positive*
%FSLAX35Y35*%
%MOIN*%
%ADD17C,0.00500*%
G04 #@! TA.AperFunction,WasherPad*
%ADD23C,0.10000*%
G04 #@! TD.AperFunction*
X0Y0D02*
D02*
D17*
X100821Y453316D02*
X102383Y457066D01*
X103946Y453316D01*
X101446Y454879D02*
X103321D01*
X105821Y453316D02*
Y457066D01*
X108008D01*
X108633Y456754D01*
X108946Y456129D01*
X108633Y455504D01*
X108008Y455191D01*
X105821D01*
X108008D02*
X108946Y453316D01*
X100821Y487332D02*
X102383Y491082D01*
X103946Y487332D01*
X101446Y488894D02*
X103321D01*
X105821Y487332D02*
Y491082D01*
X108008D01*
X108633Y490770D01*
X108946Y490144D01*
X108633Y489520D01*
X108008Y489207D01*
X105821D01*
X108008D02*
X108946Y487332D01*
X103392Y361559D02*
X104017Y361247D01*
X104330Y360622D01*
X104017Y359997D01*
X103392Y359684D01*
X101205D01*
Y363434D01*
X103392D01*
X104017Y363122D01*
X104330Y362497D01*
X104017Y361872D01*
X103392Y361559D01*
X101205D01*
X103392Y406559D02*
X104017Y406247D01*
X104330Y405622D01*
X104017Y404997D01*
X103392Y404684D01*
X101205D01*
Y408434D01*
X103392D01*
X104017Y408122D01*
X104330Y407497D01*
X104017Y406872D01*
X103392Y406559D01*
X101205D01*
X101608Y453316D02*
X103171Y457066D01*
X104733Y453316D01*
X102233Y454879D02*
X104108D01*
X106608Y453316D02*
Y457066D01*
X108796D01*
X109421Y456754D01*
X109733Y456129D01*
X109421Y455504D01*
X108796Y455191D01*
X106608D01*
X108796D02*
X109733Y453316D01*
X101608Y487332D02*
X103171Y491082D01*
X104733Y487332D01*
X102233Y488894D02*
X104108D01*
X106608Y487332D02*
Y491082D01*
X108796D01*
X109421Y490770D01*
X109733Y490144D01*
X109421Y489520D01*
X108796Y489207D01*
X106608D01*
X108796D02*
X109733Y487332D01*
X102396Y453316D02*
X103958Y457066D01*
X105521Y453316D01*
X103021Y454879D02*
X104896D01*
X107396Y453316D02*
Y457066D01*
X109583D01*
X110208Y456754D01*
X110521Y456129D01*
X110208Y455504D01*
X109583Y455191D01*
X107396D01*
X109583D02*
X110521Y453316D01*
X102396Y487332D02*
X103958Y491082D01*
X105521Y487332D01*
X103021Y488894D02*
X104896D01*
X107396Y487332D02*
Y491082D01*
X109583D01*
X110208Y490770D01*
X110521Y490144D01*
X110208Y489520D01*
X109583Y489207D01*
X107396D01*
X109583D02*
X110521Y487332D01*
X102986Y453316D02*
X104549Y457066D01*
X106111Y453316D01*
X103611Y454879D02*
X105486D01*
X107986Y453316D02*
Y457066D01*
X110174D01*
X110799Y456754D01*
X111111Y456129D01*
X110799Y455504D01*
X110174Y455191D01*
X107986D01*
X110174D02*
X111111Y453316D01*
X102986Y487332D02*
X104549Y491082D01*
X106111Y487332D01*
X103611Y488894D02*
X105486D01*
X107986Y487332D02*
Y491082D01*
X110174D01*
X110799Y490770D01*
X111111Y490144D01*
X110799Y489520D01*
X110174Y489207D01*
X107986D01*
X110174D02*
X111111Y487332D01*
X103577Y453316D02*
X105139Y457066D01*
X106702Y453316D01*
X104202Y454879D02*
X106077D01*
X108577Y453316D02*
Y457066D01*
X110764D01*
X111389Y456754D01*
X111702Y456129D01*
X111389Y455504D01*
X110764Y455191D01*
X108577D01*
X110764D02*
X111702Y453316D01*
X103577Y487332D02*
X105139Y491082D01*
X106702Y487332D01*
X104202Y488894D02*
X106077D01*
X108577Y487332D02*
Y491082D01*
X110764D01*
X111389Y490770D01*
X111702Y490144D01*
X111389Y489520D01*
X110764Y489207D01*
X108577D01*
X110764D02*
X111702Y487332D01*
X106187Y465581D02*
X106813Y465268D01*
X107125Y464643D01*
X106813Y464018D01*
X106187Y463706D01*
X104000D01*
Y467456D01*
X106187D01*
X106813Y467143D01*
X107125Y466518D01*
X106813Y465893D01*
X106187Y465581D01*
X104000D01*
X106187Y478081D02*
X106813Y477768D01*
X107125Y477143D01*
X106813Y476518D01*
X106187Y476206D01*
X104000D01*
Y479956D01*
X106187D01*
X106813Y479643D01*
X107125Y479018D01*
X106813Y478393D01*
X106187Y478081D01*
X104000D01*
X106187Y506559D02*
X106813Y506247D01*
X107125Y505622D01*
X106813Y504997D01*
X106187Y504684D01*
X104000D01*
Y508434D01*
X106187D01*
X106813Y508122D01*
X107125Y507497D01*
X106813Y506872D01*
X106187Y506559D01*
X104000D01*
X106187Y521559D02*
X106813Y521247D01*
X107125Y520622D01*
X106813Y519997D01*
X106187Y519684D01*
X104000D01*
Y523434D01*
X106187D01*
X106813Y523122D01*
X107125Y522497D01*
X106813Y521872D01*
X106187Y521559D01*
X104000D01*
X104364Y453316D02*
X105927Y457066D01*
X107489Y453316D01*
X104989Y454879D02*
X106864D01*
X109364Y453316D02*
Y457066D01*
X111552D01*
X112177Y456754D01*
X112489Y456129D01*
X112177Y455504D01*
X111552Y455191D01*
X109364D01*
X111552D02*
X112489Y453316D01*
X104364Y487332D02*
X105927Y491082D01*
X107489Y487332D01*
X104989Y488894D02*
X106864D01*
X109364Y487332D02*
Y491082D01*
X111552D01*
X112177Y490770D01*
X112489Y490144D01*
X112177Y489520D01*
X111552Y489207D01*
X109364D01*
X111552D02*
X112489Y487332D01*
X105152Y453316D02*
X106714Y457066D01*
X108277Y453316D01*
X105777Y454879D02*
X107652D01*
X110152Y453316D02*
Y457066D01*
X112339D01*
X112964Y456754D01*
X113277Y456129D01*
X112964Y455504D01*
X112339Y455191D01*
X110152D01*
X112339D02*
X113277Y453316D01*
X105152Y487332D02*
X106714Y491082D01*
X108277Y487332D01*
X105777Y488894D02*
X107652D01*
X110152Y487332D02*
Y491082D01*
X112339D01*
X112964Y490770D01*
X113277Y490144D01*
X112964Y489520D01*
X112339Y489207D01*
X110152D01*
X112339D02*
X113277Y487332D01*
X109984Y347492D02*
Y344680D01*
X110297Y344054D01*
X110922Y343742D01*
X112172D01*
X112797Y344054D01*
X113109Y344680D01*
Y347492D01*
X109984Y556153D02*
Y553341D01*
X110297Y552716D01*
X110922Y552403D01*
X112172D01*
X112797Y552716D01*
X113109Y553341D01*
Y556153D01*
X116187Y361559D02*
X116813Y361247D01*
X117125Y360622D01*
X116813Y359997D01*
X116187Y359684D01*
X114000D01*
Y363434D01*
X116187D01*
X116813Y363122D01*
X117125Y362497D01*
X116813Y361872D01*
X116187Y361559D01*
X114000D01*
X116187Y465581D02*
X116813Y465268D01*
X117125Y464643D01*
X116813Y464018D01*
X116187Y463706D01*
X114000D01*
Y467456D01*
X116187D01*
X116813Y467143D01*
X117125Y466518D01*
X116813Y465893D01*
X116187Y465581D01*
X114000D01*
X116187Y478081D02*
X116813Y477768D01*
X117125Y477143D01*
X116813Y476518D01*
X116187Y476206D01*
X114000D01*
Y479956D01*
X116187D01*
X116813Y479643D01*
X117125Y479018D01*
X116813Y478393D01*
X116187Y478081D01*
X114000D01*
X117278Y453316D02*
X118840Y457066D01*
X120403Y453316D01*
X117903Y454879D02*
X119778D01*
X122278Y453316D02*
Y457066D01*
X124465D01*
X125090Y456754D01*
X125403Y456129D01*
X125090Y455504D01*
X124465Y455191D01*
X122278D01*
X124465D02*
X125403Y453316D01*
X117278Y487332D02*
X118840Y491082D01*
X120403Y487332D01*
X117903Y488894D02*
X119778D01*
X122278Y487332D02*
Y491082D01*
X124465D01*
X125090Y490770D01*
X125403Y490144D01*
X125090Y489520D01*
X124465Y489207D01*
X122278D01*
X124465D02*
X125403Y487332D01*
X119662Y460821D02*
X120287Y460509D01*
X120600Y459884D01*
X120287Y459259D01*
X119662Y458946D01*
X117474D01*
Y462696D01*
X119662D01*
X120287Y462384D01*
X120600Y461759D01*
X120287Y461134D01*
X119662Y460821D01*
X117474D01*
X124037Y458946D02*
Y462696D01*
X122474D02*
X125600D01*
X119662Y483577D02*
X120287Y483265D01*
X120600Y482640D01*
X120287Y482015D01*
X119662Y481702D01*
X117474D01*
Y485452D01*
X119662D01*
X120287Y485140D01*
X120600Y484515D01*
X120287Y483890D01*
X119662Y483577D01*
X117474D01*
X124037Y481702D02*
Y485452D01*
X122474D02*
X125600D01*
X118065Y453316D02*
X119628Y457066D01*
X121190Y453316D01*
X118690Y454879D02*
X120565D01*
X123065Y453316D02*
Y457066D01*
X125252D01*
X125878Y456754D01*
X126190Y456129D01*
X125878Y455504D01*
X125252Y455191D01*
X123065D01*
X125252D02*
X126190Y453316D01*
X118065Y487332D02*
X119628Y491082D01*
X121190Y487332D01*
X118690Y488894D02*
X120565D01*
X123065Y487332D02*
Y491082D01*
X125252D01*
X125878Y490770D01*
X126190Y490144D01*
X125878Y489520D01*
X125252Y489207D01*
X123065D01*
X125252D02*
X126190Y487332D01*
X118852Y453316D02*
X120415Y457066D01*
X121978Y453316D01*
X119478Y454879D02*
X121352D01*
X123852Y453316D02*
Y457066D01*
X126040D01*
X126665Y456754D01*
X126978Y456129D01*
X126665Y455504D01*
X126040Y455191D01*
X123852D01*
X126040D02*
X126978Y453316D01*
X118852Y487332D02*
X120415Y491082D01*
X121978Y487332D01*
X119478Y488894D02*
X121352D01*
X123852Y487332D02*
Y491082D01*
X126040D01*
X126665Y490770D01*
X126978Y490144D01*
X126665Y489520D01*
X126040Y489207D01*
X123852D01*
X126040D02*
X126978Y487332D01*
X121187Y506559D02*
X121813Y506247D01*
X122125Y505622D01*
X121813Y504997D01*
X121187Y504684D01*
X119000D01*
Y508434D01*
X121187D01*
X121813Y508122D01*
X122125Y507497D01*
X121813Y506872D01*
X121187Y506559D01*
X119000D01*
X121187Y521559D02*
X121813Y521247D01*
X122125Y520622D01*
X121813Y519997D01*
X121187Y519684D01*
X119000D01*
Y523434D01*
X121187D01*
X121813Y523122D01*
X122125Y522497D01*
X121813Y521872D01*
X121187Y521559D01*
X119000D01*
X121187Y537809D02*
X121813Y537497D01*
X122125Y536872D01*
X121813Y536247D01*
X121187Y535934D01*
X119000D01*
Y539684D01*
X121187D01*
X121813Y539372D01*
X122125Y538747D01*
X121813Y538122D01*
X121187Y537809D01*
X119000D01*
X119443Y453316D02*
X121006Y457066D01*
X122568Y453316D01*
X120068Y454879D02*
X121943D01*
X124443Y453316D02*
Y457066D01*
X126630D01*
X127256Y456754D01*
X127568Y456129D01*
X127256Y455504D01*
X126630Y455191D01*
X124443D01*
X126630D02*
X127568Y453316D01*
X119443Y487332D02*
X121006Y491082D01*
X122568Y487332D01*
X120068Y488894D02*
X121943D01*
X124443Y487332D02*
Y491082D01*
X126630D01*
X127256Y490770D01*
X127568Y490144D01*
X127256Y489520D01*
X126630Y489207D01*
X124443D01*
X126630D02*
X127568Y487332D01*
X119925Y499133D02*
X121488Y502883D01*
X123050Y499133D01*
X120550Y500696D02*
X122425D01*
X119925Y530235D02*
X121488Y533985D01*
X123050Y530235D01*
X120550Y531798D02*
X122425D01*
X120033Y453316D02*
X121596Y457066D01*
X123159Y453316D01*
X120659Y454879D02*
X122533D01*
X125033Y453316D02*
Y457066D01*
X127221D01*
X127846Y456754D01*
X128159Y456129D01*
X127846Y455504D01*
X127221Y455191D01*
X125033D01*
X127221D02*
X128159Y453316D01*
X120033Y487332D02*
X121596Y491082D01*
X123159Y487332D01*
X120659Y488894D02*
X122533D01*
X125033Y487332D02*
Y491082D01*
X127221D01*
X127846Y490770D01*
X128159Y490144D01*
X127846Y489520D01*
X127221Y489207D01*
X125033D01*
X127221D02*
X128159Y487332D01*
X122437Y376559D02*
X123063Y376247D01*
X123375Y375622D01*
X123063Y374997D01*
X122437Y374684D01*
X120250D01*
Y378434D01*
X122437D01*
X123063Y378122D01*
X123375Y377497D01*
X123063Y376872D01*
X122437Y376559D01*
X120250D01*
X122437Y391559D02*
X123063Y391247D01*
X123375Y390622D01*
X123063Y389997D01*
X122437Y389684D01*
X120250D01*
Y393434D01*
X122437D01*
X123063Y393122D01*
X123375Y392497D01*
X123063Y391872D01*
X122437Y391559D01*
X120250D01*
X122437Y406559D02*
X123063Y406247D01*
X123375Y405622D01*
X123063Y404997D01*
X122437Y404684D01*
X120250D01*
Y408434D01*
X122437D01*
X123063Y408122D01*
X123375Y407497D01*
X123063Y406872D01*
X122437Y406559D01*
X120250D01*
X122437Y421559D02*
X123063Y421247D01*
X123375Y420622D01*
X123063Y419997D01*
X122437Y419684D01*
X120250D01*
Y423434D01*
X122437D01*
X123063Y423122D01*
X123375Y422497D01*
X123063Y421872D01*
X122437Y421559D01*
X120250D01*
X122437Y436559D02*
X123063Y436247D01*
X123375Y435622D01*
X123063Y434997D01*
X122437Y434684D01*
X120250D01*
Y438434D01*
X122437D01*
X123063Y438122D01*
X123375Y437497D01*
X123063Y436872D01*
X122437Y436559D01*
X120250D01*
X120833Y453316D02*
X122395Y457066D01*
X123958Y453316D01*
X121458Y454879D02*
X123333D01*
X125833Y453316D02*
Y457066D01*
X128020D01*
X128645Y456754D01*
X128958Y456129D01*
X128645Y455504D01*
X128020Y455191D01*
X125833D01*
X128020D02*
X128958Y453316D01*
X120833Y487332D02*
X122395Y491082D01*
X123958Y487332D01*
X121458Y488894D02*
X123333D01*
X125833Y487332D02*
Y491082D01*
X128020D01*
X128645Y490770D01*
X128958Y490144D01*
X128645Y489520D01*
X128020Y489207D01*
X125833D01*
X128020D02*
X128958Y487332D01*
X121608Y453316D02*
X123171Y457066D01*
X124733Y453316D01*
X122233Y454879D02*
X124108D01*
X126608Y453316D02*
Y457066D01*
X128796D01*
X129421Y456754D01*
X129733Y456129D01*
X129421Y455504D01*
X128796Y455191D01*
X126608D01*
X128796D02*
X129733Y453316D01*
X121608Y487332D02*
X123171Y491082D01*
X124733Y487332D01*
X122233Y488894D02*
X124108D01*
X126608Y487332D02*
Y491082D01*
X128796D01*
X129421Y490770D01*
X129733Y490144D01*
X129421Y489520D01*
X128796Y489207D01*
X126608D01*
X128796D02*
X129733Y487332D01*
X128687Y336559D02*
X129313Y336247D01*
X129625Y335622D01*
X129313Y334997D01*
X128687Y334684D01*
X126500D01*
Y338434D01*
X128687D01*
X129313Y338122D01*
X129625Y337497D01*
X129313Y336872D01*
X128687Y336559D01*
X126500D01*
X128687Y346559D02*
X129313Y346247D01*
X129625Y345622D01*
X129313Y344997D01*
X128687Y344684D01*
X126500D01*
Y348434D01*
X128687D01*
X129313Y348122D01*
X129625Y347497D01*
X129313Y346872D01*
X128687Y346559D01*
X126500D01*
X128687Y537809D02*
X129313Y537497D01*
X129625Y536872D01*
X129313Y536247D01*
X128687Y535934D01*
X126500D01*
Y539684D01*
X128687D01*
X129313Y539372D01*
X129625Y538747D01*
X129313Y538122D01*
X128687Y537809D01*
X126500D01*
X128687Y551559D02*
X129313Y551247D01*
X129625Y550622D01*
X129313Y549997D01*
X128687Y549684D01*
X126500D01*
Y553434D01*
X128687D01*
X129313Y553122D01*
X129625Y552497D01*
X129313Y551872D01*
X128687Y551559D01*
X126500D01*
X128687Y564059D02*
X129313Y563747D01*
X129625Y563122D01*
X129313Y562497D01*
X128687Y562184D01*
X126500D01*
Y565934D01*
X128687D01*
X129313Y565622D01*
X129625Y564997D01*
X129313Y564372D01*
X128687Y564059D01*
X126500D01*
X128697Y462750D02*
X129322Y462438D01*
X129635Y461813D01*
X129322Y461188D01*
X128697Y460875D01*
X126509D01*
Y464625D01*
X128697D01*
X129322Y464313D01*
X129635Y463688D01*
X129322Y463063D01*
X128697Y462750D01*
X126509D01*
X128697Y481143D02*
X129322Y480830D01*
X129635Y480206D01*
X129322Y479580D01*
X128697Y479268D01*
X126509D01*
Y483018D01*
X128697D01*
X129322Y482706D01*
X129635Y482080D01*
X129322Y481456D01*
X128697Y481143D01*
X126509D01*
X128697Y485636D02*
X129322Y485323D01*
X129635Y484698D01*
X129322Y484073D01*
X128697Y483761D01*
X126509D01*
Y487511D01*
X128697D01*
X129322Y487198D01*
X129635Y486573D01*
X129322Y485948D01*
X128697Y485636D01*
X126509D01*
X132437Y481268D02*
X133063Y480955D01*
X133375Y480330D01*
X133063Y479705D01*
X132437Y479393D01*
X130250D01*
Y483143D01*
X132437D01*
X133063Y482830D01*
X133375Y482205D01*
X133063Y481580D01*
X132437Y481268D01*
X130250D01*
X133689Y461681D02*
X134314Y461369D01*
X134627Y460744D01*
X134314Y460119D01*
X133689Y459806D01*
X131502D01*
Y463556D01*
X133689D01*
X134314Y463244D01*
X134627Y462619D01*
X134314Y461994D01*
X133689Y461681D01*
X131502D01*
X134438Y470418D02*
X135063Y470105D01*
X135376Y469480D01*
X135063Y468855D01*
X134438Y468543D01*
X132250D01*
Y472293D01*
X134438D01*
X135063Y471980D01*
X135376Y471355D01*
X135063Y470730D01*
X134438Y470418D01*
X132250D01*
X136187Y336559D02*
X136813Y336247D01*
X137125Y335622D01*
X136813Y334997D01*
X136187Y334684D01*
X134000D01*
Y338434D01*
X136187D01*
X136813Y338122D01*
X137125Y337497D01*
X136813Y336872D01*
X136187Y336559D01*
X134000D01*
X136187Y346559D02*
X136813Y346247D01*
X137125Y345622D01*
X136813Y344997D01*
X136187Y344684D01*
X134000D01*
Y348434D01*
X136187D01*
X136813Y348122D01*
X137125Y347497D01*
X136813Y346872D01*
X136187Y346559D01*
X134000D01*
X136187Y357809D02*
X136813Y357497D01*
X137125Y356872D01*
X136813Y356247D01*
X136187Y355934D01*
X134000D01*
Y359684D01*
X136187D01*
X136813Y359372D01*
X137125Y358747D01*
X136813Y358122D01*
X136187Y357809D01*
X134000D01*
X136187Y376559D02*
X136813Y376247D01*
X137125Y375622D01*
X136813Y374997D01*
X136187Y374684D01*
X134000D01*
Y378434D01*
X136187D01*
X136813Y378122D01*
X137125Y377497D01*
X136813Y376872D01*
X136187Y376559D01*
X134000D01*
X136187Y391559D02*
X136813Y391247D01*
X137125Y390622D01*
X136813Y389997D01*
X136187Y389684D01*
X134000D01*
Y393434D01*
X136187D01*
X136813Y393122D01*
X137125Y392497D01*
X136813Y391872D01*
X136187Y391559D01*
X134000D01*
X136187Y406559D02*
X136813Y406247D01*
X137125Y405622D01*
X136813Y404997D01*
X136187Y404684D01*
X134000D01*
Y408434D01*
X136187D01*
X136813Y408122D01*
X137125Y407497D01*
X136813Y406872D01*
X136187Y406559D01*
X134000D01*
X136187Y421559D02*
X136813Y421247D01*
X137125Y420622D01*
X136813Y419997D01*
X136187Y419684D01*
X134000D01*
Y423434D01*
X136187D01*
X136813Y423122D01*
X137125Y422497D01*
X136813Y421872D01*
X136187Y421559D01*
X134000D01*
X136187Y436559D02*
X136813Y436247D01*
X137125Y435622D01*
X136813Y434997D01*
X136187Y434684D01*
X134000D01*
Y438434D01*
X136187D01*
X136813Y438122D01*
X137125Y437497D01*
X136813Y436872D01*
X136187Y436559D01*
X134000D01*
X136187Y451559D02*
X136813Y451247D01*
X137125Y450622D01*
X136813Y449997D01*
X136187Y449684D01*
X134000D01*
Y453434D01*
X136187D01*
X136813Y453122D01*
X137125Y452497D01*
X136813Y451872D01*
X136187Y451559D01*
X134000D01*
X138687Y551559D02*
X139313Y551247D01*
X139625Y550622D01*
X139313Y549997D01*
X138687Y549684D01*
X136500D01*
Y553434D01*
X138687D01*
X139313Y553122D01*
X139625Y552497D01*
X139313Y551872D01*
X138687Y551559D01*
X136500D01*
X138687Y564059D02*
X139313Y563747D01*
X139625Y563122D01*
X139313Y562497D01*
X138687Y562184D01*
X136500D01*
Y565934D01*
X138687D01*
X139313Y565622D01*
X139625Y564997D01*
X139313Y564372D01*
X138687Y564059D01*
X136500D01*
X146169Y477531D02*
X146794Y477219D01*
X147107Y476594D01*
X146794Y475969D01*
X146169Y475656D01*
X143982D01*
Y479406D01*
X146169D01*
X146794Y479094D01*
X147107Y478469D01*
X146794Y477844D01*
X146169Y477531D01*
X143982D01*
X146187Y484270D02*
X146813Y483957D01*
X147125Y483333D01*
X146813Y482707D01*
X146187Y482395D01*
X144000D01*
Y486145D01*
X146187D01*
X146813Y485833D01*
X147125Y485207D01*
X146813Y484583D01*
X146187Y484270D01*
X144000D01*
X146294Y457813D02*
X146919Y457500D01*
X147232Y456875D01*
X146919Y456250D01*
X146294Y455937D01*
X144107D01*
Y459687D01*
X146294D01*
X146919Y459375D01*
X147232Y458750D01*
X146919Y458125D01*
X146294Y457813D01*
X144107D01*
X146294Y463803D02*
X146919Y463491D01*
X147232Y462866D01*
X146919Y462241D01*
X146294Y461928D01*
X144107D01*
Y465678D01*
X146294D01*
X146919Y465366D01*
X147232Y464741D01*
X146919Y464116D01*
X146294Y463803D01*
X144107D01*
X146294Y472789D02*
X146919Y472476D01*
X147232Y471852D01*
X146919Y471226D01*
X146294Y470914D01*
X144107D01*
Y474664D01*
X146294D01*
X146919Y474352D01*
X147232Y473726D01*
X146919Y473102D01*
X146294Y472789D01*
X144107D01*
X149937Y520496D02*
X150563Y520184D01*
X150875Y519559D01*
X150563Y518934D01*
X149937Y518621D01*
X147750D01*
Y522371D01*
X149937D01*
X150563Y522059D01*
X150875Y521434D01*
X150563Y520809D01*
X149937Y520496D01*
X147750D01*
X149937Y528370D02*
X150563Y528058D01*
X150875Y527433D01*
X150563Y526808D01*
X149937Y526495D01*
X147750D01*
Y530245D01*
X149937D01*
X150563Y529933D01*
X150875Y529308D01*
X150563Y528683D01*
X149937Y528370D01*
X147750D01*
X151187Y336559D02*
X151813Y336247D01*
X152125Y335622D01*
X151813Y334997D01*
X151187Y334684D01*
X149000D01*
Y338434D01*
X151187D01*
X151813Y338122D01*
X152125Y337497D01*
X151813Y336872D01*
X151187Y336559D01*
X149000D01*
X151187Y346559D02*
X151813Y346247D01*
X152125Y345622D01*
X151813Y344997D01*
X151187Y344684D01*
X149000D01*
Y348434D01*
X151187D01*
X151813Y348122D01*
X152125Y347497D01*
X151813Y346872D01*
X151187Y346559D01*
X149000D01*
X151187Y357809D02*
X151813Y357497D01*
X152125Y356872D01*
X151813Y356247D01*
X151187Y355934D01*
X149000D01*
Y359684D01*
X151187D01*
X151813Y359372D01*
X152125Y358747D01*
X151813Y358122D01*
X151187Y357809D01*
X149000D01*
X151187Y376559D02*
X151813Y376247D01*
X152125Y375622D01*
X151813Y374997D01*
X151187Y374684D01*
X149000D01*
Y378434D01*
X151187D01*
X151813Y378122D01*
X152125Y377497D01*
X151813Y376872D01*
X151187Y376559D01*
X149000D01*
X151187Y391559D02*
X151813Y391247D01*
X152125Y390622D01*
X151813Y389997D01*
X151187Y389684D01*
X149000D01*
Y393434D01*
X151187D01*
X151813Y393122D01*
X152125Y392497D01*
X151813Y391872D01*
X151187Y391559D01*
X149000D01*
X151187Y406559D02*
X151813Y406247D01*
X152125Y405622D01*
X151813Y404997D01*
X151187Y404684D01*
X149000D01*
Y408434D01*
X151187D01*
X151813Y408122D01*
X152125Y407497D01*
X151813Y406872D01*
X151187Y406559D01*
X149000D01*
X151187Y421559D02*
X151813Y421247D01*
X152125Y420622D01*
X151813Y419997D01*
X151187Y419684D01*
X149000D01*
Y423434D01*
X151187D01*
X151813Y423122D01*
X152125Y422497D01*
X151813Y421872D01*
X151187Y421559D01*
X149000D01*
X151187Y436559D02*
X151813Y436247D01*
X152125Y435622D01*
X151813Y434997D01*
X151187Y434684D01*
X149000D01*
Y438434D01*
X151187D01*
X151813Y438122D01*
X152125Y437497D01*
X151813Y436872D01*
X151187Y436559D01*
X149000D01*
X151187Y451559D02*
X151813Y451247D01*
X152125Y450622D01*
X151813Y449997D01*
X151187Y449684D01*
X149000D01*
Y453434D01*
X151187D01*
X151813Y453122D01*
X152125Y452497D01*
X151813Y451872D01*
X151187Y451559D01*
X149000D01*
X151187Y481559D02*
X151813Y481247D01*
X152125Y480622D01*
X151813Y479997D01*
X151187Y479684D01*
X149000D01*
Y483434D01*
X151187D01*
X151813Y483122D01*
X152125Y482497D01*
X151813Y481872D01*
X151187Y481559D01*
X149000D01*
X151187Y551559D02*
X151813Y551247D01*
X152125Y550622D01*
X151813Y549997D01*
X151187Y549684D01*
X149000D01*
Y553434D01*
X151187D01*
X151813Y553122D01*
X152125Y552497D01*
X151813Y551872D01*
X151187Y551559D01*
X149000D01*
X151187Y564059D02*
X151813Y563747D01*
X152125Y563122D01*
X151813Y562497D01*
X151187Y562184D01*
X149000D01*
Y565934D01*
X151187D01*
X151813Y565622D01*
X152125Y564997D01*
X151813Y564372D01*
X151187Y564059D01*
X149000D01*
X154906Y473039D02*
X155531Y472726D01*
X155843Y472101D01*
X155531Y471476D01*
X154906Y471163D01*
X152718D01*
Y474913D01*
X154906D01*
X155531Y474601D01*
X155843Y473976D01*
X155531Y473351D01*
X154906Y473039D01*
X152718D01*
X155030Y463803D02*
X155656Y463491D01*
X155968Y462866D01*
X155656Y462241D01*
X155030Y461928D01*
X152843D01*
Y465678D01*
X155030D01*
X155656Y465366D01*
X155968Y464741D01*
X155656Y464116D01*
X155030Y463803D01*
X152843D01*
X159937Y490309D02*
X160563Y489997D01*
X160875Y489372D01*
X160563Y488747D01*
X159937Y488434D01*
X157750D01*
Y492184D01*
X159937D01*
X160563Y491872D01*
X160875Y491247D01*
X160563Y490622D01*
X159937Y490309D01*
X157750D01*
X161187Y539059D02*
X161813Y538747D01*
X162125Y538122D01*
X161813Y537497D01*
X161187Y537184D01*
X159000D01*
Y540934D01*
X161187D01*
X161813Y540622D01*
X162125Y539997D01*
X161813Y539372D01*
X161187Y539059D01*
X159000D01*
X162394Y492809D02*
X163019Y492497D01*
X163331Y491872D01*
X163019Y491247D01*
X162394Y490934D01*
X160206D01*
Y494684D01*
X162394D01*
X163019Y494372D01*
X163331Y493747D01*
X163019Y493122D01*
X162394Y492809D01*
X160206D01*
X166138Y526559D02*
X166763Y526247D01*
X167076Y525622D01*
X166763Y524997D01*
X166138Y524684D01*
X163950D01*
Y528434D01*
X166138D01*
X166763Y528122D01*
X167076Y527497D01*
X166763Y526872D01*
X166138Y526559D01*
X163950D01*
X166181Y481559D02*
X166806Y481247D01*
X167119Y480622D01*
X166806Y479997D01*
X166181Y479684D01*
X163993D01*
Y483434D01*
X166181D01*
X166806Y483122D01*
X167119Y482497D01*
X166806Y481872D01*
X166181Y481559D01*
X163993D01*
X166187Y336559D02*
X166813Y336247D01*
X167125Y335622D01*
X166813Y334997D01*
X166187Y334684D01*
X164000D01*
Y338434D01*
X166187D01*
X166813Y338122D01*
X167125Y337497D01*
X166813Y336872D01*
X166187Y336559D01*
X164000D01*
X166187Y346559D02*
X166813Y346247D01*
X167125Y345622D01*
X166813Y344997D01*
X166187Y344684D01*
X164000D01*
Y348434D01*
X166187D01*
X166813Y348122D01*
X167125Y347497D01*
X166813Y346872D01*
X166187Y346559D01*
X164000D01*
X166187Y376559D02*
X166813Y376247D01*
X167125Y375622D01*
X166813Y374997D01*
X166187Y374684D01*
X164000D01*
Y378434D01*
X166187D01*
X166813Y378122D01*
X167125Y377497D01*
X166813Y376872D01*
X166187Y376559D01*
X164000D01*
X166187Y391559D02*
X166813Y391247D01*
X167125Y390622D01*
X166813Y389997D01*
X166187Y389684D01*
X164000D01*
Y393434D01*
X166187D01*
X166813Y393122D01*
X167125Y392497D01*
X166813Y391872D01*
X166187Y391559D01*
X164000D01*
X166187Y406559D02*
X166813Y406247D01*
X167125Y405622D01*
X166813Y404997D01*
X166187Y404684D01*
X164000D01*
Y408434D01*
X166187D01*
X166813Y408122D01*
X167125Y407497D01*
X166813Y406872D01*
X166187Y406559D01*
X164000D01*
X166187Y421559D02*
X166813Y421247D01*
X167125Y420622D01*
X166813Y419997D01*
X166187Y419684D01*
X164000D01*
Y423434D01*
X166187D01*
X166813Y423122D01*
X167125Y422497D01*
X166813Y421872D01*
X166187Y421559D01*
X164000D01*
X166187Y436559D02*
X166813Y436247D01*
X167125Y435622D01*
X166813Y434997D01*
X166187Y434684D01*
X164000D01*
Y438434D01*
X166187D01*
X166813Y438122D01*
X167125Y437497D01*
X166813Y436872D01*
X166187Y436559D01*
X164000D01*
X166187Y451559D02*
X166813Y451247D01*
X167125Y450622D01*
X166813Y449997D01*
X166187Y449684D01*
X164000D01*
Y453434D01*
X166187D01*
X166813Y453122D01*
X167125Y452497D01*
X166813Y451872D01*
X166187Y451559D01*
X164000D01*
X166187Y551559D02*
X166813Y551247D01*
X167125Y550622D01*
X166813Y549997D01*
X166187Y549684D01*
X164000D01*
Y553434D01*
X166187D01*
X166813Y553122D01*
X167125Y552497D01*
X166813Y551872D01*
X166187Y551559D01*
X164000D01*
X166187Y564059D02*
X166813Y563747D01*
X167125Y563122D01*
X166813Y562497D01*
X166187Y562184D01*
X164000D01*
Y565934D01*
X166187D01*
X166813Y565622D01*
X167125Y564997D01*
X166813Y564372D01*
X166187Y564059D01*
X164000D01*
X167885Y363454D02*
X168510Y363141D01*
X168823Y362516D01*
X168510Y361891D01*
X167885Y361578D01*
X165698D01*
Y365328D01*
X167885D01*
X168510Y365016D01*
X168823Y364391D01*
X168510Y363766D01*
X167885Y363454D01*
X165698D01*
X170631D02*
X171256Y363141D01*
X171569Y362516D01*
X171256Y361891D01*
X170631Y361578D01*
X168443D01*
Y365328D01*
X170631D01*
X171256Y365016D01*
X171569Y364391D01*
X171256Y363766D01*
X170631Y363454D01*
X168443D01*
X171187Y463803D02*
X171813Y463491D01*
X172125Y462866D01*
X171813Y462241D01*
X171187Y461928D01*
X169000D01*
Y465678D01*
X171187D01*
X171813Y465366D01*
X172125Y464741D01*
X171813Y464116D01*
X171187Y463803D01*
X169000D01*
X171187Y473081D02*
X171813Y472768D01*
X172125Y472143D01*
X171813Y471518D01*
X171187Y471206D01*
X169000D01*
Y474956D01*
X171187D01*
X171813Y474643D01*
X172125Y474018D01*
X171813Y473393D01*
X171187Y473081D01*
X169000D01*
X172437Y537804D02*
X173063Y537491D01*
X173375Y536866D01*
X173063Y536241D01*
X172437Y535928D01*
X170250D01*
Y539678D01*
X172437D01*
X173063Y539366D01*
X173375Y538741D01*
X173063Y538116D01*
X172437Y537804D01*
X170250D01*
X176532Y512344D02*
X177157Y512031D01*
X177470Y511406D01*
X177157Y510781D01*
X176532Y510469D01*
X174344D01*
Y514219D01*
X176532D01*
X177157Y513906D01*
X177470Y513281D01*
X177157Y512656D01*
X176532Y512344D01*
X174344D01*
X176532Y517710D02*
X177157Y517398D01*
X177470Y516773D01*
X177157Y516148D01*
X176532Y515835D01*
X174344D01*
Y519585D01*
X176532D01*
X177157Y519273D01*
X177470Y518648D01*
X177157Y518023D01*
X176532Y517710D01*
X174344D01*
X181187Y336559D02*
X181813Y336247D01*
X182125Y335622D01*
X181813Y334997D01*
X181187Y334684D01*
X179000D01*
Y338434D01*
X181187D01*
X181813Y338122D01*
X182125Y337497D01*
X181813Y336872D01*
X181187Y336559D01*
X179000D01*
X181187Y376559D02*
X181813Y376247D01*
X182125Y375622D01*
X181813Y374997D01*
X181187Y374684D01*
X179000D01*
Y378434D01*
X181187D01*
X181813Y378122D01*
X182125Y377497D01*
X181813Y376872D01*
X181187Y376559D01*
X179000D01*
X181187Y391559D02*
X181813Y391247D01*
X182125Y390622D01*
X181813Y389997D01*
X181187Y389684D01*
X179000D01*
Y393434D01*
X181187D01*
X181813Y393122D01*
X182125Y392497D01*
X181813Y391872D01*
X181187Y391559D01*
X179000D01*
X181187Y406559D02*
X181813Y406247D01*
X182125Y405622D01*
X181813Y404997D01*
X181187Y404684D01*
X179000D01*
Y408434D01*
X181187D01*
X181813Y408122D01*
X182125Y407497D01*
X181813Y406872D01*
X181187Y406559D01*
X179000D01*
X181187Y421559D02*
X181813Y421247D01*
X182125Y420622D01*
X181813Y419997D01*
X181187Y419684D01*
X179000D01*
Y423434D01*
X181187D01*
X181813Y423122D01*
X182125Y422497D01*
X181813Y421872D01*
X181187Y421559D01*
X179000D01*
X181187Y436559D02*
X181813Y436247D01*
X182125Y435622D01*
X181813Y434997D01*
X181187Y434684D01*
X179000D01*
Y438434D01*
X181187D01*
X181813Y438122D01*
X182125Y437497D01*
X181813Y436872D01*
X181187Y436559D01*
X179000D01*
X181187Y465176D02*
X181813Y464863D01*
X182125Y464239D01*
X181813Y463613D01*
X181187Y463301D01*
X179000D01*
Y467051D01*
X181187D01*
X181813Y466739D01*
X182125Y466113D01*
X181813Y465489D01*
X181187Y465176D01*
X179000D01*
X181187Y471831D02*
X181813Y471518D01*
X182125Y470893D01*
X181813Y470268D01*
X181187Y469956D01*
X179000D01*
Y473706D01*
X181187D01*
X181813Y473393D01*
X182125Y472768D01*
X181813Y472143D01*
X181187Y471831D01*
X179000D01*
X181187Y481559D02*
X181813Y481247D01*
X182125Y480622D01*
X181813Y479997D01*
X181187Y479684D01*
X179000D01*
Y483434D01*
X181187D01*
X181813Y483122D01*
X182125Y482497D01*
X181813Y481872D01*
X181187Y481559D01*
X179000D01*
X181187Y551559D02*
X181813Y551247D01*
X182125Y550622D01*
X181813Y549997D01*
X181187Y549684D01*
X179000D01*
Y553434D01*
X181187D01*
X181813Y553122D01*
X182125Y552497D01*
X181813Y551872D01*
X181187Y551559D01*
X179000D01*
X181187Y564059D02*
X181813Y563747D01*
X182125Y563122D01*
X181813Y562497D01*
X181187Y562184D01*
X179000D01*
Y565934D01*
X181187D01*
X181813Y565622D01*
X182125Y564997D01*
X181813Y564372D01*
X181187Y564059D01*
X179000D01*
X181239Y526571D02*
X181864Y526259D01*
X182177Y525634D01*
X181864Y525009D01*
X181239Y524696D01*
X179052D01*
Y528446D01*
X181239D01*
X181864Y528134D01*
X182177Y527509D01*
X181864Y526884D01*
X181239Y526571D01*
X179052D01*
X184937Y362330D02*
X185563Y362017D01*
X185875Y361392D01*
X185563Y360767D01*
X184937Y360454D01*
X182750D01*
Y364204D01*
X184937D01*
X185563Y363892D01*
X185875Y363267D01*
X185563Y362642D01*
X184937Y362330D01*
X182750D01*
X186017Y537804D02*
X186642Y537491D01*
X186955Y536866D01*
X186642Y536241D01*
X186017Y535928D01*
X183830D01*
Y539678D01*
X186017D01*
X186642Y539366D01*
X186955Y538741D01*
X186642Y538116D01*
X186017Y537804D01*
X183830D01*
X187479Y517835D02*
X188104Y517522D01*
X188417Y516898D01*
X188104Y516272D01*
X187479Y515960D01*
X185292D01*
Y519710D01*
X187479D01*
X188104Y519398D01*
X188417Y518772D01*
X188104Y518148D01*
X187479Y517835D01*
X185292D01*
X191098Y521559D02*
X191724Y521247D01*
X192036Y520622D01*
X191724Y519997D01*
X191098Y519684D01*
X188911D01*
Y523434D01*
X191098D01*
X191724Y523122D01*
X192036Y522497D01*
X191724Y521872D01*
X191098Y521559D01*
X188911D01*
X191187Y465176D02*
X191813Y464863D01*
X192125Y464239D01*
X191813Y463613D01*
X191187Y463301D01*
X189000D01*
Y467051D01*
X191187D01*
X191813Y466739D01*
X192125Y466113D01*
X191813Y465489D01*
X191187Y465176D01*
X189000D01*
X191187Y471666D02*
X191813Y471353D01*
X192125Y470728D01*
X191813Y470103D01*
X191187Y469791D01*
X189000D01*
Y473541D01*
X191187D01*
X191813Y473228D01*
X192125Y472603D01*
X191813Y471978D01*
X191187Y471666D01*
X189000D01*
X193969Y452688D02*
X194594Y452375D01*
X194907Y451750D01*
X194594Y451125D01*
X193969Y450813D01*
X191781D01*
Y454563D01*
X193969D01*
X194594Y454250D01*
X194907Y453625D01*
X194594Y453000D01*
X193969Y452688D01*
X191781D01*
X193969Y490309D02*
X194594Y489997D01*
X194907Y489372D01*
X194594Y488747D01*
X193969Y488434D01*
X191781D01*
Y492184D01*
X193969D01*
X194594Y491872D01*
X194907Y491247D01*
X194594Y490622D01*
X193969Y490309D01*
X191781D01*
X195502Y537928D02*
X196127Y537616D01*
X196440Y536991D01*
X196127Y536366D01*
X195502Y536053D01*
X193315D01*
Y539803D01*
X195502D01*
X196127Y539491D01*
X196440Y538866D01*
X196127Y538241D01*
X195502Y537928D01*
X193315D01*
X196091Y508600D02*
X196716Y508287D01*
X197028Y507662D01*
X196716Y507037D01*
X196091Y506724D01*
X193903D01*
Y510474D01*
X196091D01*
X196716Y510162D01*
X197028Y509537D01*
X196716Y508912D01*
X196091Y508600D01*
X193903D01*
X196187Y336559D02*
X196813Y336247D01*
X197125Y335622D01*
X196813Y334997D01*
X196187Y334684D01*
X194000D01*
Y338434D01*
X196187D01*
X196813Y338122D01*
X197125Y337497D01*
X196813Y336872D01*
X196187Y336559D01*
X194000D01*
X196187Y346559D02*
X196813Y346247D01*
X197125Y345622D01*
X196813Y344997D01*
X196187Y344684D01*
X194000D01*
Y348434D01*
X196187D01*
X196813Y348122D01*
X197125Y347497D01*
X196813Y346872D01*
X196187Y346559D01*
X194000D01*
X196187Y361559D02*
X196813Y361247D01*
X197125Y360622D01*
X196813Y359997D01*
X196187Y359684D01*
X194000D01*
Y363434D01*
X196187D01*
X196813Y363122D01*
X197125Y362497D01*
X196813Y361872D01*
X196187Y361559D01*
X194000D01*
X196187Y376559D02*
X196813Y376247D01*
X197125Y375622D01*
X196813Y374997D01*
X196187Y374684D01*
X194000D01*
Y378434D01*
X196187D01*
X196813Y378122D01*
X197125Y377497D01*
X196813Y376872D01*
X196187Y376559D01*
X194000D01*
X196187Y391559D02*
X196813Y391247D01*
X197125Y390622D01*
X196813Y389997D01*
X196187Y389684D01*
X194000D01*
Y393434D01*
X196187D01*
X196813Y393122D01*
X197125Y392497D01*
X196813Y391872D01*
X196187Y391559D01*
X194000D01*
X196187Y436559D02*
X196813Y436247D01*
X197125Y435622D01*
X196813Y434997D01*
X196187Y434684D01*
X194000D01*
Y438434D01*
X196187D01*
X196813Y438122D01*
X197125Y437497D01*
X196813Y436872D01*
X196187Y436559D01*
X194000D01*
X196187Y526559D02*
X196813Y526247D01*
X197125Y525622D01*
X196813Y524997D01*
X196187Y524684D01*
X194000D01*
Y528434D01*
X196187D01*
X196813Y528122D01*
X197125Y527497D01*
X196813Y526872D01*
X196187Y526559D01*
X194000D01*
X196187Y554059D02*
X196813Y553747D01*
X197125Y553122D01*
X196813Y552497D01*
X196187Y552184D01*
X194000D01*
Y555934D01*
X196187D01*
X196813Y555622D01*
X197125Y554997D01*
X196813Y554372D01*
X196187Y554059D01*
X194000D01*
X196187Y564059D02*
X196813Y563747D01*
X197125Y563122D01*
X196813Y562497D01*
X196187Y562184D01*
X194000D01*
Y565934D01*
X196187D01*
X196813Y565622D01*
X197125Y564997D01*
X196813Y564372D01*
X196187Y564059D01*
X194000D01*
X196340Y517960D02*
X196965Y517647D01*
X197278Y517022D01*
X196965Y516397D01*
X196340Y516085D01*
X194153D01*
Y519835D01*
X196340D01*
X196965Y519522D01*
X197278Y518897D01*
X196965Y518272D01*
X196340Y517960D01*
X194153D01*
X196465Y455184D02*
X197090Y454871D01*
X197403Y454246D01*
X197090Y453621D01*
X196465Y453309D01*
X194278D01*
Y457059D01*
X196465D01*
X197090Y456746D01*
X197403Y456121D01*
X197090Y455496D01*
X196465Y455184D01*
X194278D01*
X196465Y492809D02*
X197090Y492497D01*
X197403Y491872D01*
X197090Y491247D01*
X196465Y490934D01*
X194278D01*
Y494684D01*
X196465D01*
X197090Y494372D01*
X197403Y493747D01*
X197090Y493122D01*
X196465Y492809D01*
X194278D01*
X201083Y465176D02*
X201708Y464863D01*
X202020Y464239D01*
X201708Y463613D01*
X201083Y463301D01*
X198895D01*
Y467051D01*
X201083D01*
X201708Y466739D01*
X202020Y466113D01*
X201708Y465489D01*
X201083Y465176D01*
X198895D01*
X201083Y471666D02*
X201708Y471353D01*
X202020Y470728D01*
X201708Y470103D01*
X201083Y469791D01*
X198895D01*
Y473541D01*
X201083D01*
X201708Y473228D01*
X202020Y472603D01*
X201708Y471978D01*
X201083Y471666D01*
X198895D01*
X201187Y481559D02*
X201813Y481247D01*
X202125Y480622D01*
X201813Y479997D01*
X201187Y479684D01*
X199000D01*
Y483434D01*
X201187D01*
X201813Y483122D01*
X202125Y482497D01*
X201813Y481872D01*
X201187Y481559D01*
X199000D01*
X201831Y450305D02*
X202457Y449992D01*
X202769Y449367D01*
X202457Y448742D01*
X201831Y448430D01*
X199644D01*
Y452180D01*
X201831D01*
X202457Y451867D01*
X202769Y451242D01*
X202457Y450617D01*
X201831Y450305D01*
X199644D01*
X200240Y409684D02*
X201803Y413434D01*
X203365Y409684D01*
X200865Y411247D02*
X202740D01*
X205240Y409684D02*
Y413434D01*
X207115D01*
X207740Y413122D01*
X208053Y412809D01*
X208365Y412184D01*
Y410934D01*
X208053Y410309D01*
X207740Y409997D01*
X207115Y409684D01*
X205240D01*
X204937Y447809D02*
X205563Y447497D01*
X205875Y446872D01*
X205563Y446247D01*
X204937Y445934D01*
X202750D01*
Y449684D01*
X204937D01*
X205563Y449372D01*
X205875Y448747D01*
X205563Y448122D01*
X204937Y447809D01*
X202750D01*
X205985Y512252D02*
X206611Y511940D01*
X206923Y511315D01*
X206611Y510690D01*
X205985Y510377D01*
X203798D01*
Y514127D01*
X205985D01*
X206611Y513815D01*
X206923Y513190D01*
X206611Y512565D01*
X205985Y512252D01*
X203798D01*
X208687Y497809D02*
X209313Y497497D01*
X209625Y496872D01*
X209313Y496247D01*
X208687Y495934D01*
X206500D01*
Y499684D01*
X208687D01*
X209313Y499372D01*
X209625Y498747D01*
X209313Y498122D01*
X208687Y497809D01*
X206500D01*
X208687Y501559D02*
X209313Y501247D01*
X209625Y500622D01*
X209313Y499997D01*
X208687Y499684D01*
X206500D01*
Y503434D01*
X208687D01*
X209313Y503122D01*
X209625Y502497D01*
X209313Y501872D01*
X208687Y501559D01*
X206500D01*
X210728Y534184D02*
X211353Y533872D01*
X211666Y533247D01*
X211353Y532622D01*
X210728Y532309D01*
X208541D01*
Y536059D01*
X210728D01*
X211353Y535747D01*
X211666Y535122D01*
X211353Y534497D01*
X210728Y534184D01*
X208541D01*
X211187Y336559D02*
X211813Y336247D01*
X212125Y335622D01*
X211813Y334997D01*
X211187Y334684D01*
X209000D01*
Y338434D01*
X211187D01*
X211813Y338122D01*
X212125Y337497D01*
X211813Y336872D01*
X211187Y336559D01*
X209000D01*
X211187Y346559D02*
X211813Y346247D01*
X212125Y345622D01*
X211813Y344997D01*
X211187Y344684D01*
X209000D01*
Y348434D01*
X211187D01*
X211813Y348122D01*
X212125Y347497D01*
X211813Y346872D01*
X211187Y346559D01*
X209000D01*
X211187Y361559D02*
X211813Y361247D01*
X212125Y360622D01*
X211813Y359997D01*
X211187Y359684D01*
X209000D01*
Y363434D01*
X211187D01*
X211813Y363122D01*
X212125Y362497D01*
X211813Y361872D01*
X211187Y361559D01*
X209000D01*
X211187Y376559D02*
X211813Y376247D01*
X212125Y375622D01*
X211813Y374997D01*
X211187Y374684D01*
X209000D01*
Y378434D01*
X211187D01*
X211813Y378122D01*
X212125Y377497D01*
X211813Y376872D01*
X211187Y376559D01*
X209000D01*
X211187Y391559D02*
X211813Y391247D01*
X212125Y390622D01*
X211813Y389997D01*
X211187Y389684D01*
X209000D01*
Y393434D01*
X211187D01*
X211813Y393122D01*
X212125Y392497D01*
X211813Y391872D01*
X211187Y391559D01*
X209000D01*
X211187Y436559D02*
X211813Y436247D01*
X212125Y435622D01*
X211813Y434997D01*
X211187Y434684D01*
X209000D01*
Y438434D01*
X211187D01*
X211813Y438122D01*
X212125Y437497D01*
X211813Y436872D01*
X211187Y436559D01*
X209000D01*
X211187Y526571D02*
X211813Y526259D01*
X212125Y525634D01*
X211813Y525009D01*
X211187Y524696D01*
X209000D01*
Y528446D01*
X211187D01*
X211813Y528134D01*
X212125Y527509D01*
X211813Y526884D01*
X211187Y526571D01*
X209000D01*
X211187Y554059D02*
X211813Y553747D01*
X212125Y553122D01*
X211813Y552497D01*
X211187Y552184D01*
X209000D01*
Y555934D01*
X211187D01*
X211813Y555622D01*
X212125Y554997D01*
X211813Y554372D01*
X211187Y554059D01*
X209000D01*
X211187Y564059D02*
X211813Y563747D01*
X212125Y563122D01*
X211813Y562497D01*
X211187Y562184D01*
X209000D01*
Y565934D01*
X211187D01*
X211813Y565622D01*
X212125Y564997D01*
X211813Y564372D01*
X211187Y564059D01*
X209000D01*
X211941Y511559D02*
X212566Y511247D01*
X212878Y510622D01*
X212566Y509997D01*
X211941Y509684D01*
X209753D01*
Y513434D01*
X211941D01*
X212566Y513122D01*
X212878Y512497D01*
X212566Y511872D01*
X211941Y511559D01*
X209753D01*
X214937Y497685D02*
X215563Y497372D01*
X215875Y496747D01*
X215563Y496122D01*
X214937Y495809D01*
X212750D01*
Y499559D01*
X214937D01*
X215563Y499247D01*
X215875Y498622D01*
X215563Y497997D01*
X214937Y497685D01*
X212750D01*
X214937Y501559D02*
X215563Y501247D01*
X215875Y500622D01*
X215563Y499997D01*
X214937Y499684D01*
X212750D01*
Y503434D01*
X214937D01*
X215563Y503122D01*
X215875Y502497D01*
X215563Y501872D01*
X214937Y501559D01*
X212750D01*
X221426Y465051D02*
X222051Y464739D01*
X222363Y464114D01*
X222051Y463489D01*
X221426Y463176D01*
X219238D01*
Y466926D01*
X221426D01*
X222051Y466614D01*
X222363Y465989D01*
X222051Y465364D01*
X221426Y465051D01*
X219238D01*
X221426Y472290D02*
X222051Y471977D01*
X222363Y471352D01*
X222051Y470727D01*
X221426Y470415D01*
X219238D01*
Y474165D01*
X221426D01*
X222051Y473852D01*
X222363Y473227D01*
X222051Y472602D01*
X221426Y472290D01*
X219238D01*
X223687Y391559D02*
X224313Y391247D01*
X224625Y390622D01*
X224313Y389997D01*
X223687Y389684D01*
X221500D01*
Y393434D01*
X223687D01*
X224313Y393122D01*
X224625Y392497D01*
X224313Y391872D01*
X223687Y391559D01*
X221500D01*
X223687Y421559D02*
X224313Y421247D01*
X224625Y420622D01*
X224313Y419997D01*
X223687Y419684D01*
X221500D01*
Y423434D01*
X223687D01*
X224313Y423122D01*
X224625Y422497D01*
X224313Y421872D01*
X223687Y421559D01*
X221500D01*
X226168Y511559D02*
X226793Y511247D01*
X227106Y510622D01*
X226793Y509997D01*
X226168Y509684D01*
X223981D01*
Y513434D01*
X226168D01*
X226793Y513122D01*
X227106Y512497D01*
X226793Y511872D01*
X226168Y511559D01*
X223981D01*
X226187Y336559D02*
X226813Y336247D01*
X227125Y335622D01*
X226813Y334997D01*
X226187Y334684D01*
X224000D01*
Y338434D01*
X226187D01*
X226813Y338122D01*
X227125Y337497D01*
X226813Y336872D01*
X226187Y336559D01*
X224000D01*
X226187Y346559D02*
X226813Y346247D01*
X227125Y345622D01*
X226813Y344997D01*
X226187Y344684D01*
X224000D01*
Y348434D01*
X226187D01*
X226813Y348122D01*
X227125Y347497D01*
X226813Y346872D01*
X226187Y346559D01*
X224000D01*
X226187Y361559D02*
X226813Y361247D01*
X227125Y360622D01*
X226813Y359997D01*
X226187Y359684D01*
X224000D01*
Y363434D01*
X226187D01*
X226813Y363122D01*
X227125Y362497D01*
X226813Y361872D01*
X226187Y361559D01*
X224000D01*
X226187Y376559D02*
X226813Y376247D01*
X227125Y375622D01*
X226813Y374997D01*
X226187Y374684D01*
X224000D01*
Y378434D01*
X226187D01*
X226813Y378122D01*
X227125Y377497D01*
X226813Y376872D01*
X226187Y376559D01*
X224000D01*
X226187Y481559D02*
X226813Y481247D01*
X227125Y480622D01*
X226813Y479997D01*
X226187Y479684D01*
X224000D01*
Y483434D01*
X226187D01*
X226813Y483122D01*
X227125Y482497D01*
X226813Y481872D01*
X226187Y481559D01*
X224000D01*
X226187Y496494D02*
X226813Y496181D01*
X227125Y495556D01*
X226813Y494931D01*
X226187Y494619D01*
X224000D01*
Y498369D01*
X226187D01*
X226813Y498056D01*
X227125Y497431D01*
X226813Y496806D01*
X226187Y496494D01*
X224000D01*
X226187Y526571D02*
X226813Y526259D01*
X227125Y525634D01*
X226813Y525009D01*
X226187Y524696D01*
X224000D01*
Y528446D01*
X226187D01*
X226813Y528134D01*
X227125Y527509D01*
X226813Y526884D01*
X226187Y526571D01*
X224000D01*
X226187Y537809D02*
X226813Y537497D01*
X227125Y536872D01*
X226813Y536247D01*
X226187Y535934D01*
X224000D01*
Y539684D01*
X226187D01*
X226813Y539372D01*
X227125Y538747D01*
X226813Y538122D01*
X226187Y537809D01*
X224000D01*
X226187Y554059D02*
X226813Y553747D01*
X227125Y553122D01*
X226813Y552497D01*
X226187Y552184D01*
X224000D01*
Y555934D01*
X226187D01*
X226813Y555622D01*
X227125Y554997D01*
X226813Y554372D01*
X226187Y554059D01*
X224000D01*
X226187Y564059D02*
X226813Y563747D01*
X227125Y563122D01*
X226813Y562497D01*
X226187Y562184D01*
X224000D01*
Y565934D01*
X226187D01*
X226813Y565622D01*
X227125Y564997D01*
X226813Y564372D01*
X226187Y564059D01*
X224000D01*
X229288Y477274D02*
X229913Y476961D01*
X230226Y476337D01*
X229913Y475711D01*
X229288Y475399D01*
X227101D01*
Y479149D01*
X229288D01*
X229913Y478837D01*
X230226Y478211D01*
X229913Y477587D01*
X229288Y477274D01*
X227101D01*
X230661Y487757D02*
X231286Y487445D01*
X231599Y486820D01*
X231286Y486195D01*
X230661Y485882D01*
X228474D01*
Y489632D01*
X230661D01*
X231286Y489320D01*
X231599Y488695D01*
X231286Y488070D01*
X230661Y487757D01*
X228474D01*
X230786Y468421D02*
X231411Y468108D01*
X231724Y467483D01*
X231411Y466858D01*
X230786Y466546D01*
X228598D01*
Y470296D01*
X230786D01*
X231411Y469983D01*
X231724Y469358D01*
X231411Y468733D01*
X230786Y468421D01*
X228598D01*
X231410Y496993D02*
X232035Y496680D01*
X232348Y496056D01*
X232035Y495430D01*
X231410Y495118D01*
X229222D01*
Y498868D01*
X231410D01*
X232035Y498556D01*
X232348Y497930D01*
X232035Y497306D01*
X231410Y496993D01*
X229222D01*
X234000Y399684D02*
X235563Y403434D01*
X237125Y399684D01*
X234625Y401247D02*
X236500D01*
X234000Y419684D02*
X235563Y423434D01*
X237125Y419684D01*
X234625Y421247D02*
X236500D01*
X236402Y503483D02*
X237027Y503170D01*
X237340Y502545D01*
X237027Y501920D01*
X236402Y501607D01*
X234215D01*
Y505357D01*
X236402D01*
X237027Y505045D01*
X237340Y504420D01*
X237027Y503795D01*
X236402Y503483D01*
X234215D01*
X236776Y476400D02*
X237402Y476088D01*
X237714Y475463D01*
X237402Y474838D01*
X236776Y474525D01*
X234589D01*
Y478275D01*
X236776D01*
X237402Y477963D01*
X237714Y477338D01*
X237402Y476713D01*
X236776Y476400D01*
X234589D01*
X237775Y486634D02*
X238400Y486322D01*
X238713Y485697D01*
X238400Y485072D01*
X237775Y484759D01*
X235587D01*
Y488509D01*
X237775D01*
X238400Y488197D01*
X238713Y487572D01*
X238400Y486947D01*
X237775Y486634D01*
X235587D01*
X238687Y495121D02*
X239313Y494808D01*
X239625Y494183D01*
X239313Y493558D01*
X238687Y493246D01*
X236500D01*
Y496996D01*
X238687D01*
X239313Y496683D01*
X239625Y496058D01*
X239313Y495433D01*
X238687Y495121D01*
X236500D01*
X241187Y336559D02*
X241813Y336247D01*
X242125Y335622D01*
X241813Y334997D01*
X241187Y334684D01*
X239000D01*
Y338434D01*
X241187D01*
X241813Y338122D01*
X242125Y337497D01*
X241813Y336872D01*
X241187Y336559D01*
X239000D01*
X241187Y346559D02*
X241813Y346247D01*
X242125Y345622D01*
X241813Y344997D01*
X241187Y344684D01*
X239000D01*
Y348434D01*
X241187D01*
X241813Y348122D01*
X242125Y347497D01*
X241813Y346872D01*
X241187Y346559D01*
X239000D01*
X241187Y361559D02*
X241813Y361247D01*
X242125Y360622D01*
X241813Y359997D01*
X241187Y359684D01*
X239000D01*
Y363434D01*
X241187D01*
X241813Y363122D01*
X242125Y362497D01*
X241813Y361872D01*
X241187Y361559D01*
X239000D01*
X241187Y376559D02*
X241813Y376247D01*
X242125Y375622D01*
X241813Y374997D01*
X241187Y374684D01*
X239000D01*
Y378434D01*
X241187D01*
X241813Y378122D01*
X242125Y377497D01*
X241813Y376872D01*
X241187Y376559D01*
X239000D01*
X241187Y466559D02*
X241813Y466247D01*
X242125Y465622D01*
X241813Y464997D01*
X241187Y464684D01*
X239000D01*
Y468434D01*
X241187D01*
X241813Y468122D01*
X242125Y467497D01*
X241813Y466872D01*
X241187Y466559D01*
X239000D01*
X241187Y481559D02*
X241813Y481247D01*
X242125Y480622D01*
X241813Y479997D01*
X241187Y479684D01*
X239000D01*
Y483434D01*
X241187D01*
X241813Y483122D01*
X242125Y482497D01*
X241813Y481872D01*
X241187Y481559D01*
X239000D01*
X241187Y511559D02*
X241813Y511247D01*
X242125Y510622D01*
X241813Y509997D01*
X241187Y509684D01*
X239000D01*
Y513434D01*
X241187D01*
X241813Y513122D01*
X242125Y512497D01*
X241813Y511872D01*
X241187Y511559D01*
X239000D01*
X241187Y526571D02*
X241813Y526259D01*
X242125Y525634D01*
X241813Y525009D01*
X241187Y524696D01*
X239000D01*
Y528446D01*
X241187D01*
X241813Y528134D01*
X242125Y527509D01*
X241813Y526884D01*
X241187Y526571D01*
X239000D01*
X241187Y537809D02*
X241813Y537497D01*
X242125Y536872D01*
X241813Y536247D01*
X241187Y535934D01*
X239000D01*
Y539684D01*
X241187D01*
X241813Y539372D01*
X242125Y538747D01*
X241813Y538122D01*
X241187Y537809D01*
X239000D01*
X241187Y554059D02*
X241813Y553747D01*
X242125Y553122D01*
X241813Y552497D01*
X241187Y552184D01*
X239000D01*
Y555934D01*
X241187D01*
X241813Y555622D01*
X242125Y554997D01*
X241813Y554372D01*
X241187Y554059D01*
X239000D01*
X241187Y564059D02*
X241813Y563747D01*
X242125Y563122D01*
X241813Y562497D01*
X241187Y562184D01*
X239000D01*
Y565934D01*
X241187D01*
X241813Y565622D01*
X242125Y564997D01*
X241813Y564372D01*
X241187Y564059D01*
X239000D01*
X244000Y399684D02*
X245563Y403434D01*
X247125Y399684D01*
X244625Y401247D02*
X246500D01*
X244000Y419684D02*
X245563Y423434D01*
X247125Y419684D01*
X244625Y421247D02*
X246500D01*
X246187Y500737D02*
X246813Y500424D01*
X247125Y499800D01*
X246813Y499174D01*
X246187Y498862D01*
X244000D01*
Y502612D01*
X246187D01*
X246813Y502300D01*
X247125Y501674D01*
X246813Y501050D01*
X246187Y500737D01*
X244000D01*
X246187Y507227D02*
X246813Y506914D01*
X247125Y506289D01*
X246813Y505664D01*
X246187Y505352D01*
X244000D01*
Y509102D01*
X246187D01*
X246813Y508789D01*
X247125Y508164D01*
X246813Y507539D01*
X246187Y507227D01*
X244000D01*
X248687Y376559D02*
X249313Y376247D01*
X249625Y375622D01*
X249313Y374997D01*
X248687Y374684D01*
X246500D01*
Y378434D01*
X248687D01*
X249313Y378122D01*
X249625Y377497D01*
X249313Y376872D01*
X248687Y376559D01*
X246500D01*
X253687Y383921D02*
X254313Y383609D01*
X254625Y382984D01*
X254313Y382359D01*
X253687Y382046D01*
X251500D01*
Y385796D01*
X253687D01*
X254313Y385484D01*
X254625Y384859D01*
X254313Y384234D01*
X253687Y383921D01*
X251500D01*
X256187Y336559D02*
X256813Y336247D01*
X257125Y335622D01*
X256813Y334997D01*
X256187Y334684D01*
X254000D01*
Y338434D01*
X256187D01*
X256813Y338122D01*
X257125Y337497D01*
X256813Y336872D01*
X256187Y336559D01*
X254000D01*
X256187Y346559D02*
X256813Y346247D01*
X257125Y345622D01*
X256813Y344997D01*
X256187Y344684D01*
X254000D01*
Y348434D01*
X256187D01*
X256813Y348122D01*
X257125Y347497D01*
X256813Y346872D01*
X256187Y346559D01*
X254000D01*
Y399684D02*
X255563Y403434D01*
X257125Y399684D01*
X254625Y401247D02*
X256500D01*
X254000Y419684D02*
X255563Y423434D01*
X257125Y419684D01*
X254625Y421247D02*
X256500D01*
X256187Y466559D02*
X256813Y466247D01*
X257125Y465622D01*
X256813Y464997D01*
X256187Y464684D01*
X254000D01*
Y468434D01*
X256187D01*
X256813Y468122D01*
X257125Y467497D01*
X256813Y466872D01*
X256187Y466559D01*
X254000D01*
X256187Y481559D02*
X256813Y481247D01*
X257125Y480622D01*
X256813Y479997D01*
X256187Y479684D01*
X254000D01*
Y483434D01*
X256187D01*
X256813Y483122D01*
X257125Y482497D01*
X256813Y481872D01*
X256187Y481559D01*
X254000D01*
X256187Y496559D02*
X256813Y496247D01*
X257125Y495622D01*
X256813Y494997D01*
X256187Y494684D01*
X254000D01*
Y498434D01*
X256187D01*
X256813Y498122D01*
X257125Y497497D01*
X256813Y496872D01*
X256187Y496559D01*
X254000D01*
X256187Y500737D02*
X256813Y500424D01*
X257125Y499800D01*
X256813Y499174D01*
X256187Y498862D01*
X254000D01*
Y502612D01*
X256187D01*
X256813Y502300D01*
X257125Y501674D01*
X256813Y501050D01*
X256187Y500737D01*
X254000D01*
X256187Y507227D02*
X256813Y506914D01*
X257125Y506289D01*
X256813Y505664D01*
X256187Y505352D01*
X254000D01*
Y509102D01*
X256187D01*
X256813Y508789D01*
X257125Y508164D01*
X256813Y507539D01*
X256187Y507227D01*
X254000D01*
X256187Y511559D02*
X256813Y511247D01*
X257125Y510622D01*
X256813Y509997D01*
X256187Y509684D01*
X254000D01*
Y513434D01*
X256187D01*
X256813Y513122D01*
X257125Y512497D01*
X256813Y511872D01*
X256187Y511559D01*
X254000D01*
X256187Y520309D02*
X256813Y519997D01*
X257125Y519372D01*
X256813Y518747D01*
X256187Y518434D01*
X254000D01*
Y522184D01*
X256187D01*
X256813Y521872D01*
X257125Y521247D01*
X256813Y520622D01*
X256187Y520309D01*
X254000D01*
X256187Y554059D02*
X256813Y553747D01*
X257125Y553122D01*
X256813Y552497D01*
X256187Y552184D01*
X254000D01*
Y555934D01*
X256187D01*
X256813Y555622D01*
X257125Y554997D01*
X256813Y554372D01*
X256187Y554059D01*
X254000D01*
X256187Y564059D02*
X256813Y563747D01*
X257125Y563122D01*
X256813Y562497D01*
X256187Y562184D01*
X254000D01*
Y565934D01*
X256187D01*
X256813Y565622D01*
X257125Y564997D01*
X256813Y564372D01*
X256187Y564059D01*
X254000D01*
X258687Y383921D02*
X259313Y383609D01*
X259625Y382984D01*
X259313Y382359D01*
X258687Y382046D01*
X256500D01*
Y385796D01*
X258687D01*
X259313Y385484D01*
X259625Y384859D01*
X259313Y384234D01*
X258687Y383921D01*
X256500D01*
X264000Y399684D02*
X265563Y403434D01*
X267125Y399684D01*
X264625Y401247D02*
X266500D01*
X264000Y419684D02*
X265563Y423434D01*
X267125Y419684D01*
X264625Y421247D02*
X266500D01*
X266187Y500737D02*
X266813Y500424D01*
X267125Y499800D01*
X266813Y499174D01*
X266187Y498862D01*
X264000D01*
Y502612D01*
X266187D01*
X266813Y502300D01*
X267125Y501674D01*
X266813Y501050D01*
X266187Y500737D01*
X264000D01*
X266187Y507227D02*
X266813Y506914D01*
X267125Y506289D01*
X266813Y505664D01*
X266187Y505352D01*
X264000D01*
Y509102D01*
X266187D01*
X266813Y508789D01*
X267125Y508164D01*
X266813Y507539D01*
X266187Y507227D01*
X264000D01*
X271187Y336559D02*
X271813Y336247D01*
X272125Y335622D01*
X271813Y334997D01*
X271187Y334684D01*
X269000D01*
Y338434D01*
X271187D01*
X271813Y338122D01*
X272125Y337497D01*
X271813Y336872D01*
X271187Y336559D01*
X269000D01*
X271187Y346559D02*
X271813Y346247D01*
X272125Y345622D01*
X271813Y344997D01*
X271187Y344684D01*
X269000D01*
Y348434D01*
X271187D01*
X271813Y348122D01*
X272125Y347497D01*
X271813Y346872D01*
X271187Y346559D01*
X269000D01*
X271187Y376559D02*
X271813Y376247D01*
X272125Y375622D01*
X271813Y374997D01*
X271187Y374684D01*
X269000D01*
Y378434D01*
X271187D01*
X271813Y378122D01*
X272125Y377497D01*
X271813Y376872D01*
X271187Y376559D01*
X269000D01*
X271187Y391559D02*
X271813Y391247D01*
X272125Y390622D01*
X271813Y389997D01*
X271187Y389684D01*
X269000D01*
Y393434D01*
X271187D01*
X271813Y393122D01*
X272125Y392497D01*
X271813Y391872D01*
X271187Y391559D01*
X269000D01*
X271187Y406559D02*
X271813Y406247D01*
X272125Y405622D01*
X271813Y404997D01*
X271187Y404684D01*
X269000D01*
Y408434D01*
X271187D01*
X271813Y408122D01*
X272125Y407497D01*
X271813Y406872D01*
X271187Y406559D01*
X269000D01*
X271187Y416559D02*
X271813Y416247D01*
X272125Y415622D01*
X271813Y414997D01*
X271187Y414684D01*
X269000D01*
Y418434D01*
X271187D01*
X271813Y418122D01*
X272125Y417497D01*
X271813Y416872D01*
X271187Y416559D01*
X269000D01*
X271187Y436559D02*
X271813Y436247D01*
X272125Y435622D01*
X271813Y434997D01*
X271187Y434684D01*
X269000D01*
Y438434D01*
X271187D01*
X271813Y438122D01*
X272125Y437497D01*
X271813Y436872D01*
X271187Y436559D01*
X269000D01*
X271187Y449059D02*
X271813Y448747D01*
X272125Y448122D01*
X271813Y447497D01*
X271187Y447184D01*
X269000D01*
Y450934D01*
X271187D01*
X271813Y450622D01*
X272125Y449997D01*
X271813Y449372D01*
X271187Y449059D01*
X269000D01*
X271187Y466559D02*
X271813Y466247D01*
X272125Y465622D01*
X271813Y464997D01*
X271187Y464684D01*
X269000D01*
Y468434D01*
X271187D01*
X271813Y468122D01*
X272125Y467497D01*
X271813Y466872D01*
X271187Y466559D01*
X269000D01*
X271187Y481559D02*
X271813Y481247D01*
X272125Y480622D01*
X271813Y479997D01*
X271187Y479684D01*
X269000D01*
Y483434D01*
X271187D01*
X271813Y483122D01*
X272125Y482497D01*
X271813Y481872D01*
X271187Y481559D01*
X269000D01*
X271187Y496559D02*
X271813Y496247D01*
X272125Y495622D01*
X271813Y494997D01*
X271187Y494684D01*
X269000D01*
Y498434D01*
X271187D01*
X271813Y498122D01*
X272125Y497497D01*
X271813Y496872D01*
X271187Y496559D01*
X269000D01*
X271187Y511559D02*
X271813Y511247D01*
X272125Y510622D01*
X271813Y509997D01*
X271187Y509684D01*
X269000D01*
Y513434D01*
X271187D01*
X271813Y513122D01*
X272125Y512497D01*
X271813Y511872D01*
X271187Y511559D01*
X269000D01*
X271187Y520309D02*
X271813Y519997D01*
X272125Y519372D01*
X271813Y518747D01*
X271187Y518434D01*
X269000D01*
Y522184D01*
X271187D01*
X271813Y521872D01*
X272125Y521247D01*
X271813Y520622D01*
X271187Y520309D01*
X269000D01*
X271187Y539059D02*
X271813Y538747D01*
X272125Y538122D01*
X271813Y537497D01*
X271187Y537184D01*
X269000D01*
Y540934D01*
X271187D01*
X271813Y540622D01*
X272125Y539997D01*
X271813Y539372D01*
X271187Y539059D01*
X269000D01*
X271187Y554059D02*
X271813Y553747D01*
X272125Y553122D01*
X271813Y552497D01*
X271187Y552184D01*
X269000D01*
Y555934D01*
X271187D01*
X271813Y555622D01*
X272125Y554997D01*
X271813Y554372D01*
X271187Y554059D01*
X269000D01*
X271187Y564058D02*
X271813Y563745D01*
X272125Y563120D01*
X271813Y562495D01*
X271187Y562183D01*
X269000D01*
Y565933D01*
X271187D01*
X271813Y565620D01*
X272125Y564995D01*
X271813Y564370D01*
X271187Y564058D01*
X269000D01*
X274000Y399684D02*
X275563Y403434D01*
X277125Y399684D01*
X274625Y401247D02*
X276500D01*
X274000Y419684D02*
X275563Y423434D01*
X277125Y419684D01*
X274625Y421247D02*
X276500D01*
X277437Y500737D02*
X278063Y500424D01*
X278375Y499800D01*
X278063Y499174D01*
X277437Y498862D01*
X275250D01*
Y502612D01*
X277437D01*
X278063Y502300D01*
X278375Y501674D01*
X278063Y501050D01*
X277437Y500737D01*
X275250D01*
X277437Y507227D02*
X278063Y506914D01*
X278375Y506289D01*
X278063Y505664D01*
X277437Y505352D01*
X275250D01*
Y509102D01*
X277437D01*
X278063Y508789D01*
X278375Y508164D01*
X278063Y507539D01*
X277437Y507227D01*
X275250D01*
X282954Y524824D02*
X283579Y524511D01*
X283891Y523887D01*
X283579Y523261D01*
X282954Y522949D01*
X280766D01*
Y526699D01*
X282954D01*
X283579Y526387D01*
X283891Y525761D01*
X283579Y525137D01*
X282954Y524824D01*
X280766D01*
X283078Y472656D02*
X283704Y472344D01*
X284016Y471719D01*
X283704Y471094D01*
X283078Y470781D01*
X280891D01*
Y474531D01*
X283078D01*
X283704Y474219D01*
X284016Y473594D01*
X283704Y472969D01*
X283078Y472656D01*
X280891D01*
X286187Y336559D02*
X286813Y336247D01*
X287125Y335622D01*
X286813Y334997D01*
X286187Y334684D01*
X284000D01*
Y338434D01*
X286187D01*
X286813Y338122D01*
X287125Y337497D01*
X286813Y336872D01*
X286187Y336559D01*
X284000D01*
X286187Y346559D02*
X286813Y346247D01*
X287125Y345622D01*
X286813Y344997D01*
X286187Y344684D01*
X284000D01*
Y348434D01*
X286187D01*
X286813Y348122D01*
X287125Y347497D01*
X286813Y346872D01*
X286187Y346559D01*
X284000D01*
Y399684D02*
X285563Y403434D01*
X287125Y399684D01*
X284625Y401247D02*
X286500D01*
X284000Y419684D02*
X285563Y423434D01*
X287125Y419684D01*
X284625Y421247D02*
X286500D01*
X286187Y541559D02*
X286813Y541247D01*
X287125Y540622D01*
X286813Y539997D01*
X286187Y539684D01*
X284000D01*
Y543434D01*
X286187D01*
X286813Y543122D01*
X287125Y542497D01*
X286813Y541872D01*
X286187Y541559D01*
X284000D01*
X286187Y554059D02*
X286813Y553747D01*
X287125Y553122D01*
X286813Y552497D01*
X286187Y552184D01*
X284000D01*
Y555934D01*
X286187D01*
X286813Y555622D01*
X287125Y554997D01*
X286813Y554372D01*
X286187Y554059D01*
X284000D01*
X286187Y564058D02*
X286813Y563745D01*
X287125Y563120D01*
X286813Y562495D01*
X286187Y562183D01*
X284000D01*
Y565933D01*
X286187D01*
X286813Y565620D01*
X287125Y564995D01*
X286813Y564370D01*
X286187Y564058D01*
X284000D01*
X286198Y536306D02*
X286824Y535993D01*
X287136Y535369D01*
X286824Y534743D01*
X286198Y534431D01*
X284011D01*
Y538181D01*
X286198D01*
X286824Y537869D01*
X287136Y537243D01*
X286824Y536619D01*
X286198Y536306D01*
X284011D01*
X288570Y436559D02*
X289195Y436247D01*
X289507Y435622D01*
X289195Y434997D01*
X288570Y434684D01*
X286382D01*
Y438434D01*
X288570D01*
X289195Y438122D01*
X289507Y437497D01*
X289195Y436872D01*
X288570Y436559D01*
X286382D01*
X288819Y538802D02*
X289444Y538489D01*
X289757Y537865D01*
X289444Y537239D01*
X288819Y536927D01*
X286632D01*
Y540677D01*
X288819D01*
X289444Y540365D01*
X289757Y539739D01*
X289444Y539115D01*
X288819Y538802D01*
X286632D01*
X291565Y541173D02*
X292190Y540861D01*
X292503Y540236D01*
X292190Y539611D01*
X291565Y539298D01*
X289378D01*
Y543048D01*
X291565D01*
X292190Y542736D01*
X292503Y542111D01*
X292190Y541486D01*
X291565Y541173D01*
X289378D01*
X294435Y543544D02*
X295061Y543232D01*
X295373Y542607D01*
X295061Y541982D01*
X294435Y541669D01*
X292248D01*
Y545419D01*
X294435D01*
X295061Y545107D01*
X295373Y544482D01*
X295061Y543857D01*
X294435Y543544D01*
X292248D01*
X294000Y399684D02*
X295563Y403434D01*
X297125Y399684D01*
X294625Y401247D02*
X296500D01*
X294000Y419684D02*
X295563Y423434D01*
X297125Y419684D01*
X294625Y421247D02*
X296500D01*
X297437Y500737D02*
X298063Y500424D01*
X298375Y499800D01*
X298063Y499174D01*
X297437Y498862D01*
X295250D01*
Y502612D01*
X297437D01*
X298063Y502300D01*
X298375Y501674D01*
X298063Y501050D01*
X297437Y500737D01*
X295250D01*
X297437Y507227D02*
X298063Y506914D01*
X298375Y506289D01*
X298063Y505664D01*
X297437Y505352D01*
X295250D01*
Y509102D01*
X297437D01*
X298063Y508789D01*
X298375Y508164D01*
X298063Y507539D01*
X297437Y507227D01*
X295250D01*
X297437Y520309D02*
X298063Y519997D01*
X298375Y519372D01*
X298063Y518747D01*
X297437Y518434D01*
X295250D01*
Y522184D01*
X297437D01*
X298063Y521872D01*
X298375Y521247D01*
X298063Y520622D01*
X297437Y520309D01*
X295250D01*
X298099Y475527D02*
X298724Y475214D01*
X299037Y474589D01*
X298724Y473964D01*
X298099Y473652D01*
X295912D01*
Y477402D01*
X298099D01*
X298724Y477089D01*
X299037Y476464D01*
X298724Y475839D01*
X298099Y475527D01*
X295912D01*
X299677Y545417D02*
X300302Y545104D01*
X300615Y544479D01*
X300302Y543854D01*
X299677Y543541D01*
X297490D01*
Y547291D01*
X299677D01*
X300302Y546979D01*
X300615Y546354D01*
X300302Y545729D01*
X299677Y545417D01*
X297490D01*
X301187Y336559D02*
X301813Y336247D01*
X302125Y335622D01*
X301813Y334997D01*
X301187Y334684D01*
X299000D01*
Y338434D01*
X301187D01*
X301813Y338122D01*
X302125Y337497D01*
X301813Y336872D01*
X301187Y336559D01*
X299000D01*
X301187Y346559D02*
X301813Y346247D01*
X302125Y345622D01*
X301813Y344997D01*
X301187Y344684D01*
X299000D01*
Y348434D01*
X301187D01*
X301813Y348122D01*
X302125Y347497D01*
X301813Y346872D01*
X301187Y346559D01*
X299000D01*
X301187Y496559D02*
X301813Y496247D01*
X302125Y495622D01*
X301813Y494997D01*
X301187Y494684D01*
X299000D01*
Y498434D01*
X301187D01*
X301813Y498122D01*
X302125Y497497D01*
X301813Y496872D01*
X301187Y496559D01*
X299000D01*
X301187Y554059D02*
X301813Y553747D01*
X302125Y553122D01*
X301813Y552497D01*
X301187Y552184D01*
X299000D01*
Y555934D01*
X301187D01*
X301813Y555622D01*
X302125Y554997D01*
X301813Y554372D01*
X301187Y554059D01*
X299000D01*
X301187Y564058D02*
X301813Y563745D01*
X302125Y563120D01*
X301813Y562495D01*
X301187Y562183D01*
X299000D01*
Y565933D01*
X301187D01*
X301813Y565620D01*
X302125Y564995D01*
X301813Y564370D01*
X301187Y564058D01*
X299000D01*
X302423Y547663D02*
X303048Y547350D01*
X303361Y546726D01*
X303048Y546100D01*
X302423Y545788D01*
X300235D01*
Y549538D01*
X302423D01*
X303048Y549226D01*
X303361Y548600D01*
X303048Y547976D01*
X302423Y547663D01*
X300235D01*
X303671Y487258D02*
X304296Y486946D01*
X304609Y486321D01*
X304296Y485696D01*
X303671Y485383D01*
X301483D01*
Y489133D01*
X303671D01*
X304296Y488821D01*
X304609Y488196D01*
X304296Y487571D01*
X303671Y487258D01*
X301483D01*
X305293Y549909D02*
X305919Y549597D01*
X306231Y548972D01*
X305919Y548347D01*
X305293Y548034D01*
X303106D01*
Y551784D01*
X305293D01*
X305919Y551472D01*
X306231Y550847D01*
X305919Y550222D01*
X305293Y549909D01*
X303106D01*
X304000Y399684D02*
X305563Y403434D01*
X307125Y399684D01*
X304625Y401247D02*
X306500D01*
X304000Y419684D02*
X305563Y423434D01*
X307125Y419684D01*
X304625Y421247D02*
X306500D01*
X306187Y449059D02*
X306813Y448747D01*
X307125Y448122D01*
X306813Y447497D01*
X306187Y447184D01*
X304000D01*
Y450934D01*
X306187D01*
X306813Y450622D01*
X307125Y449997D01*
X306813Y449372D01*
X306187Y449059D01*
X304000D01*
X306187Y466559D02*
X306813Y466247D01*
X307125Y465622D01*
X306813Y464997D01*
X306187Y464684D01*
X304000D01*
Y468434D01*
X306187D01*
X306813Y468122D01*
X307125Y467497D01*
X306813Y466872D01*
X306187Y466559D01*
X304000D01*
X306187Y500737D02*
X306813Y500424D01*
X307125Y499800D01*
X306813Y499174D01*
X306187Y498862D01*
X304000D01*
Y502612D01*
X306187D01*
X306813Y502300D01*
X307125Y501674D01*
X306813Y501050D01*
X306187Y500737D01*
X304000D01*
X306187Y507227D02*
X306813Y506914D01*
X307125Y506289D01*
X306813Y505664D01*
X306187Y505352D01*
X304000D01*
Y509102D01*
X306187D01*
X306813Y508789D01*
X307125Y508164D01*
X306813Y507539D01*
X306187Y507227D01*
X304000D01*
X306187Y520309D02*
X306813Y519997D01*
X307125Y519372D01*
X306813Y518747D01*
X306187Y518434D01*
X304000D01*
Y522184D01*
X306187D01*
X306813Y521872D01*
X307125Y521247D01*
X306813Y520622D01*
X306187Y520309D01*
X304000D01*
X308164Y552156D02*
X308789Y551843D01*
X309102Y551219D01*
X308789Y550593D01*
X308164Y550281D01*
X305976D01*
Y554031D01*
X308164D01*
X308789Y553719D01*
X309102Y553093D01*
X308789Y552469D01*
X308164Y552156D01*
X305976D01*
X308913Y493374D02*
X309538Y493061D01*
X309850Y492436D01*
X309538Y491811D01*
X308913Y491498D01*
X306725D01*
Y495248D01*
X308913D01*
X309538Y494936D01*
X309850Y494311D01*
X309538Y493686D01*
X308913Y493374D01*
X306725D01*
X308913Y498116D02*
X309538Y497804D01*
X309850Y497179D01*
X309538Y496554D01*
X308913Y496241D01*
X306725D01*
Y499991D01*
X308913D01*
X309538Y499679D01*
X309850Y499054D01*
X309538Y498429D01*
X308913Y498116D01*
X306725D01*
X312069Y495745D02*
X312694Y495432D01*
X313006Y494807D01*
X312694Y494182D01*
X312069Y493870D01*
X309881D01*
Y497620D01*
X312069D01*
X312694Y497307D01*
X313006Y496682D01*
X312694Y496057D01*
X312069Y495745D01*
X309881D01*
X316187Y336559D02*
X316813Y336247D01*
X317125Y335622D01*
X316813Y334997D01*
X316187Y334684D01*
X314000D01*
Y338434D01*
X316187D01*
X316813Y338122D01*
X317125Y337497D01*
X316813Y336872D01*
X316187Y336559D01*
X314000D01*
X316187Y346559D02*
X316813Y346247D01*
X317125Y345622D01*
X316813Y344997D01*
X316187Y344684D01*
X314000D01*
Y348434D01*
X316187D01*
X316813Y348122D01*
X317125Y347497D01*
X316813Y346872D01*
X316187Y346559D01*
X314000D01*
Y399684D02*
X315563Y403434D01*
X317125Y399684D01*
X314625Y401247D02*
X316500D01*
X314000Y419684D02*
X315563Y423434D01*
X317125Y419684D01*
X314625Y421247D02*
X316500D01*
X316187Y500737D02*
X316813Y500424D01*
X317125Y499800D01*
X316813Y499174D01*
X316187Y498862D01*
X314000D01*
Y502612D01*
X316187D01*
X316813Y502300D01*
X317125Y501674D01*
X316813Y501050D01*
X316187Y500737D01*
X314000D01*
X316187Y534059D02*
X316813Y533747D01*
X317125Y533122D01*
X316813Y532497D01*
X316187Y532184D01*
X314000D01*
Y535934D01*
X316187D01*
X316813Y535622D01*
X317125Y534997D01*
X316813Y534372D01*
X316187Y534059D01*
X314000D01*
X316187Y542809D02*
X316813Y542497D01*
X317125Y541872D01*
X316813Y541247D01*
X316187Y540934D01*
X314000D01*
Y544684D01*
X316187D01*
X316813Y544372D01*
X317125Y543747D01*
X316813Y543122D01*
X316187Y542809D01*
X314000D01*
X316187Y554059D02*
X316813Y553747D01*
X317125Y553122D01*
X316813Y552497D01*
X316187Y552184D01*
X314000D01*
Y555934D01*
X316187D01*
X316813Y555622D01*
X317125Y554997D01*
X316813Y554372D01*
X316187Y554059D01*
X314000D01*
X316187Y564058D02*
X316813Y563745D01*
X317125Y563120D01*
X316813Y562495D01*
X316187Y562183D01*
X314000D01*
Y565933D01*
X316187D01*
X316813Y565620D01*
X317125Y564995D01*
X316813Y564370D01*
X316187Y564058D01*
X314000D01*
X319146Y508475D02*
X319772Y508162D01*
X320084Y507537D01*
X319772Y506912D01*
X319146Y506600D01*
X316959D01*
Y510350D01*
X319146D01*
X319772Y510037D01*
X320084Y509412D01*
X319772Y508787D01*
X319146Y508475D01*
X316959D01*
X319895Y517003D02*
X320520Y516690D01*
X320833Y516065D01*
X320520Y515440D01*
X319895Y515128D01*
X317708D01*
Y518878D01*
X319895D01*
X320520Y518565D01*
X320833Y517940D01*
X320520Y517315D01*
X319895Y517003D01*
X317708D01*
X321187Y436559D02*
X321813Y436247D01*
X322125Y435622D01*
X321813Y434997D01*
X321187Y434684D01*
X319000D01*
Y438434D01*
X321187D01*
X321813Y438122D01*
X322125Y437497D01*
X321813Y436872D01*
X321187Y436559D01*
X319000D01*
X321187Y449059D02*
X321813Y448747D01*
X322125Y448122D01*
X321813Y447497D01*
X321187Y447184D01*
X319000D01*
Y450934D01*
X321187D01*
X321813Y450622D01*
X322125Y449997D01*
X321813Y449372D01*
X321187Y449059D01*
X319000D01*
X321187Y466559D02*
X321813Y466247D01*
X322125Y465622D01*
X321813Y464997D01*
X321187Y464684D01*
X319000D01*
Y468434D01*
X321187D01*
X321813Y468122D01*
X322125Y467497D01*
X321813Y466872D01*
X321187Y466559D01*
X319000D01*
X321187Y481559D02*
X321813Y481247D01*
X322125Y480622D01*
X321813Y479997D01*
X321187Y479684D01*
X319000D01*
Y483434D01*
X321187D01*
X321813Y483122D01*
X322125Y482497D01*
X321813Y481872D01*
X321187Y481559D01*
X319000D01*
X322766Y491751D02*
X323391Y491439D01*
X323704Y490814D01*
X323391Y490189D01*
X322766Y489876D01*
X320578D01*
Y493626D01*
X322766D01*
X323391Y493314D01*
X323704Y492689D01*
X323391Y492064D01*
X322766Y491751D01*
X320578D01*
X322891Y499614D02*
X323516Y499301D01*
X323828Y498676D01*
X323516Y498051D01*
X322891Y497739D01*
X320703D01*
Y501489D01*
X322891D01*
X323516Y501176D01*
X323828Y500551D01*
X323516Y499926D01*
X322891Y499614D01*
X320703D01*
X324000Y399684D02*
X325563Y403434D01*
X327125Y399684D01*
X324625Y401247D02*
X326500D01*
X324000Y419684D02*
X325563Y423434D01*
X327125Y419684D01*
X324625Y421247D02*
X326500D01*
X326187Y440831D02*
X326813Y440519D01*
X327125Y439894D01*
X326813Y439269D01*
X326187Y438956D01*
X324000D01*
Y442706D01*
X326187D01*
X326813Y442394D01*
X327125Y441769D01*
X326813Y441144D01*
X326187Y440831D01*
X324000D01*
X326759Y508475D02*
X327385Y508162D01*
X327697Y507537D01*
X327385Y506912D01*
X326759Y506600D01*
X324572D01*
Y510350D01*
X326759D01*
X327385Y510037D01*
X327697Y509412D01*
X327385Y508787D01*
X326759Y508475D01*
X324572D01*
X328687Y436559D02*
X329313Y436247D01*
X329625Y435622D01*
X329313Y434997D01*
X328687Y434684D01*
X326500D01*
Y438434D01*
X328687D01*
X329313Y438122D01*
X329625Y437497D01*
X329313Y436872D01*
X328687Y436559D01*
X326500D01*
X331187Y336559D02*
X331813Y336247D01*
X332125Y335622D01*
X331813Y334997D01*
X331187Y334684D01*
X329000D01*
Y338434D01*
X331187D01*
X331813Y338122D01*
X332125Y337497D01*
X331813Y336872D01*
X331187Y336559D01*
X329000D01*
X331187Y346559D02*
X331813Y346247D01*
X332125Y345622D01*
X331813Y344997D01*
X331187Y344684D01*
X329000D01*
Y348434D01*
X331187D01*
X331813Y348122D01*
X332125Y347497D01*
X331813Y346872D01*
X331187Y346559D01*
X329000D01*
X331187Y409059D02*
X331813Y408747D01*
X332125Y408122D01*
X331813Y407497D01*
X331187Y407184D01*
X329000D01*
Y410934D01*
X331187D01*
X331813Y410622D01*
X332125Y409997D01*
X331813Y409372D01*
X331187Y409059D01*
X329000D01*
X331187Y534059D02*
X331813Y533747D01*
X332125Y533122D01*
X331813Y532497D01*
X331187Y532184D01*
X329000D01*
Y535934D01*
X331187D01*
X331813Y535622D01*
X332125Y534997D01*
X331813Y534372D01*
X331187Y534059D01*
X329000D01*
X331187Y542809D02*
X331813Y542497D01*
X332125Y541872D01*
X331813Y541247D01*
X331187Y540934D01*
X329000D01*
Y544684D01*
X331187D01*
X331813Y544372D01*
X332125Y543747D01*
X331813Y543122D01*
X331187Y542809D01*
X329000D01*
X331187Y554059D02*
X331813Y553747D01*
X332125Y553122D01*
X331813Y552497D01*
X331187Y552184D01*
X329000D01*
Y555934D01*
X331187D01*
X331813Y555622D01*
X332125Y554997D01*
X331813Y554372D01*
X331187Y554059D01*
X329000D01*
X331187Y564058D02*
X331813Y563745D01*
X332125Y563120D01*
X331813Y562495D01*
X331187Y562183D01*
X329000D01*
Y565933D01*
X331187D01*
X331813Y565620D01*
X332125Y564995D01*
X331813Y564370D01*
X331187Y564058D01*
X329000D01*
X331252Y443203D02*
X331878Y442890D01*
X332190Y442265D01*
X331878Y441640D01*
X331252Y441328D01*
X329065D01*
Y445078D01*
X331252D01*
X331878Y444765D01*
X332190Y444140D01*
X331878Y443515D01*
X331252Y443203D01*
X329065D01*
X332500Y520706D02*
X333126Y520393D01*
X333438Y519768D01*
X333126Y519143D01*
X332500Y518830D01*
X330313D01*
Y522580D01*
X332500D01*
X333126Y522268D01*
X333438Y521643D01*
X333126Y521018D01*
X332500Y520706D01*
X330313D01*
X333687Y436559D02*
X334313Y436247D01*
X334625Y435622D01*
X334313Y434997D01*
X333687Y434684D01*
X331500D01*
Y438434D01*
X333687D01*
X334313Y438122D01*
X334625Y437497D01*
X334313Y436872D01*
X333687Y436559D01*
X331500D01*
X335620Y520706D02*
X336246Y520393D01*
X336558Y519768D01*
X336246Y519143D01*
X335620Y518830D01*
X333433D01*
Y522580D01*
X335620D01*
X336246Y522268D01*
X336558Y521643D01*
X336246Y521018D01*
X335620Y520706D01*
X333433D01*
X334000Y399684D02*
X335563Y403434D01*
X337125Y399684D01*
X334625Y401247D02*
X336500D01*
X334000Y419684D02*
X335563Y423434D01*
X337125Y419684D01*
X334625Y421247D02*
X336500D01*
X336187Y445449D02*
X336813Y445137D01*
X337125Y444512D01*
X336813Y443887D01*
X336187Y443574D01*
X334000D01*
Y447324D01*
X336187D01*
X336813Y447012D01*
X337125Y446387D01*
X336813Y445762D01*
X336187Y445449D01*
X334000D01*
X336187Y449059D02*
X336813Y448747D01*
X337125Y448122D01*
X336813Y447497D01*
X336187Y447184D01*
X334000D01*
Y450934D01*
X336187D01*
X336813Y450622D01*
X337125Y449997D01*
X336813Y449372D01*
X336187Y449059D01*
X334000D01*
X336187Y466559D02*
X336813Y466247D01*
X337125Y465622D01*
X336813Y464997D01*
X336187Y464684D01*
X334000D01*
Y468434D01*
X336187D01*
X336813Y468122D01*
X337125Y467497D01*
X336813Y466872D01*
X336187Y466559D01*
X334000D01*
X336187Y481559D02*
X336813Y481247D01*
X337125Y480622D01*
X336813Y479997D01*
X336187Y479684D01*
X334000D01*
Y483434D01*
X336187D01*
X336813Y483122D01*
X337125Y482497D01*
X336813Y481872D01*
X336187Y481559D01*
X334000D01*
X338117Y532063D02*
X338742Y531750D01*
X339054Y531125D01*
X338742Y530500D01*
X338117Y530187D01*
X335929D01*
Y533937D01*
X338117D01*
X338742Y533625D01*
X339054Y533000D01*
X338742Y532375D01*
X338117Y532063D01*
X335929D01*
X338687Y386559D02*
X339313Y386247D01*
X339625Y385622D01*
X339313Y384997D01*
X338687Y384684D01*
X336500D01*
Y388434D01*
X338687D01*
X339313Y388122D01*
X339625Y387497D01*
X339313Y386872D01*
X338687Y386559D01*
X336500D01*
X340113Y447696D02*
X340739Y447383D01*
X341051Y446758D01*
X340739Y446133D01*
X340113Y445820D01*
X337926D01*
Y449570D01*
X340113D01*
X340739Y449258D01*
X341051Y448633D01*
X340739Y448008D01*
X340113Y447696D01*
X337926D01*
X340636Y510219D02*
X341261Y509907D01*
X341574Y509282D01*
X341261Y508657D01*
X340636Y508344D01*
X338449D01*
Y512094D01*
X340636D01*
X341261Y511782D01*
X341574Y511157D01*
X341261Y510532D01*
X340636Y510219D01*
X338449D01*
X341112Y500772D02*
X341737Y500459D01*
X342050Y499835D01*
X341737Y499209D01*
X341112Y498897D01*
X338924D01*
Y502647D01*
X341112D01*
X341737Y502335D01*
X342050Y501709D01*
X341737Y501085D01*
X341112Y500772D01*
X338924D01*
X341187Y409059D02*
X341813Y408747D01*
X342125Y408122D01*
X341813Y407497D01*
X341187Y407184D01*
X339000D01*
Y410934D01*
X341187D01*
X341813Y410622D01*
X342125Y409997D01*
X341813Y409372D01*
X341187Y409059D01*
X339000D01*
X343608Y497867D02*
X344233Y497554D01*
X344546Y496929D01*
X344233Y496304D01*
X343608Y495991D01*
X341420D01*
Y499741D01*
X343608D01*
X344233Y499429D01*
X344546Y498804D01*
X344233Y498179D01*
X343608Y497867D01*
X341420D01*
X343608Y503233D02*
X344233Y502920D01*
X344546Y502296D01*
X344233Y501670D01*
X343608Y501358D01*
X341420D01*
Y505108D01*
X343608D01*
X344233Y504796D01*
X344546Y504170D01*
X344233Y503546D01*
X343608Y503233D01*
X341420D01*
X343687Y382923D02*
X344313Y382610D01*
X344625Y381985D01*
X344313Y381360D01*
X343687Y381048D01*
X341500D01*
Y384798D01*
X343687D01*
X344313Y384485D01*
X344625Y383860D01*
X344313Y383235D01*
X343687Y382923D01*
X341500D01*
X344856Y506603D02*
X345481Y506290D01*
X345794Y505665D01*
X345481Y505040D01*
X344856Y504728D01*
X342669D01*
Y508478D01*
X344856D01*
X345481Y508165D01*
X345794Y507540D01*
X345481Y506915D01*
X344856Y506603D01*
X342669D01*
X344856Y509972D02*
X345481Y509660D01*
X345794Y509035D01*
X345481Y508410D01*
X344856Y508097D01*
X342669D01*
Y511847D01*
X344856D01*
X345481Y511535D01*
X345794Y510910D01*
X345481Y510285D01*
X344856Y509972D01*
X342669D01*
X346187Y336559D02*
X346813Y336247D01*
X347125Y335622D01*
X346813Y334997D01*
X346187Y334684D01*
X344000D01*
Y338434D01*
X346187D01*
X346813Y338122D01*
X347125Y337497D01*
X346813Y336872D01*
X346187Y336559D01*
X344000D01*
X346187Y346559D02*
X346813Y346247D01*
X347125Y345622D01*
X346813Y344997D01*
X346187Y344684D01*
X344000D01*
Y348434D01*
X346187D01*
X346813Y348122D01*
X347125Y347497D01*
X346813Y346872D01*
X346187Y346559D01*
X344000D01*
Y399684D02*
X345563Y403434D01*
X347125Y399684D01*
X344625Y401247D02*
X346500D01*
X344000Y419684D02*
X345563Y423434D01*
X347125Y419684D01*
X344625Y421247D02*
X346500D01*
X346187Y554059D02*
X346813Y553747D01*
X347125Y553122D01*
X346813Y552497D01*
X346187Y552184D01*
X344000D01*
Y555934D01*
X346187D01*
X346813Y555622D01*
X347125Y554997D01*
X346813Y554372D01*
X346187Y554059D01*
X344000D01*
X346187Y564058D02*
X346813Y563745D01*
X347125Y563120D01*
X346813Y562495D01*
X346187Y562183D01*
X344000D01*
Y565933D01*
X346187D01*
X346813Y565620D01*
X347125Y564995D01*
X346813Y564370D01*
X346187Y564058D01*
X344000D01*
X346853Y464919D02*
X347478Y464606D01*
X347791Y463981D01*
X347478Y463356D01*
X346853Y463043D01*
X344665D01*
Y466793D01*
X346853D01*
X347478Y466481D01*
X347791Y465856D01*
X347478Y465231D01*
X346853Y464919D01*
X344665D01*
X348974Y447696D02*
X349600Y447383D01*
X349912Y446758D01*
X349600Y446133D01*
X348974Y445820D01*
X346787D01*
Y449570D01*
X348974D01*
X349600Y449258D01*
X349912Y448633D01*
X349600Y448008D01*
X348974Y447696D01*
X346787D01*
X351187Y436559D02*
X351813Y436247D01*
X352125Y435622D01*
X351813Y434997D01*
X351187Y434684D01*
X349000D01*
Y438434D01*
X351187D01*
X351813Y438122D01*
X352125Y437497D01*
X351813Y436872D01*
X351187Y436559D01*
X349000D01*
X351187Y511559D02*
X351813Y511247D01*
X352125Y510622D01*
X351813Y509997D01*
X351187Y509684D01*
X349000D01*
Y513434D01*
X351187D01*
X351813Y513122D01*
X352125Y512497D01*
X351813Y511872D01*
X351187Y511559D01*
X349000D01*
X351221Y492001D02*
X351846Y491688D01*
X352159Y491063D01*
X351846Y490438D01*
X351221Y490126D01*
X349033D01*
Y493876D01*
X351221D01*
X351846Y493563D01*
X352159Y492938D01*
X351846Y492313D01*
X351221Y492001D01*
X349033D01*
X351845Y445449D02*
X352470Y445137D01*
X352783Y444512D01*
X352470Y443887D01*
X351845Y443574D01*
X349657D01*
Y447324D01*
X351845D01*
X352470Y447012D01*
X352783Y446387D01*
X352470Y445762D01*
X351845Y445449D01*
X349657D01*
X352437Y501559D02*
X353063Y501247D01*
X353375Y500622D01*
X353063Y499997D01*
X352437Y499684D01*
X350250D01*
Y503434D01*
X352437D01*
X353063Y503122D01*
X353375Y502497D01*
X353063Y501872D01*
X352437Y501559D01*
X350250D01*
X354098Y535682D02*
X354723Y535369D01*
X355036Y534744D01*
X354723Y534119D01*
X354098Y533807D01*
X351911D01*
Y537557D01*
X354098D01*
X354723Y537244D01*
X355036Y536619D01*
X354723Y535994D01*
X354098Y535682D01*
X351911D01*
X355400Y464794D02*
X356025Y464481D01*
X356338Y463856D01*
X356025Y463231D01*
X355400Y462919D01*
X353213D01*
Y466669D01*
X355400D01*
X356025Y466356D01*
X356338Y465731D01*
X356025Y465106D01*
X355400Y464794D01*
X353213D01*
X355400Y486007D02*
X356025Y485694D01*
X356338Y485069D01*
X356025Y484444D01*
X355400Y484131D01*
X353213D01*
Y487881D01*
X355400D01*
X356025Y487569D01*
X356338Y486944D01*
X356025Y486319D01*
X355400Y486007D01*
X353213D01*
X355400Y517109D02*
X356025Y516796D01*
X356338Y516172D01*
X356025Y515546D01*
X355400Y515234D01*
X353213D01*
Y518984D01*
X355400D01*
X356025Y518672D01*
X356338Y518046D01*
X356025Y517422D01*
X355400Y517109D01*
X353213D01*
X354000Y399684D02*
X355563Y403434D01*
X357125Y399684D01*
X354625Y401247D02*
X356500D01*
X354000Y419684D02*
X355563Y423434D01*
X357125Y419684D01*
X354625Y421247D02*
X356500D01*
X356187Y438460D02*
X356813Y438148D01*
X357125Y437523D01*
X356813Y436898D01*
X356187Y436585D01*
X354000D01*
Y440335D01*
X356187D01*
X356813Y440023D01*
X357125Y439398D01*
X356813Y438773D01*
X356187Y438460D01*
X354000D01*
X356187Y497809D02*
X356813Y497497D01*
X357125Y496872D01*
X356813Y496247D01*
X356187Y495934D01*
X354000D01*
Y499684D01*
X356187D01*
X356813Y499372D01*
X357125Y498747D01*
X356813Y498122D01*
X356187Y497809D01*
X354000D01*
X356187Y505309D02*
X356813Y504997D01*
X357125Y504372D01*
X356813Y503747D01*
X356187Y503434D01*
X354000D01*
Y507184D01*
X356187D01*
X356813Y506872D01*
X357125Y506247D01*
X356813Y505622D01*
X356187Y505309D01*
X354000D01*
X356213Y443203D02*
X356838Y442890D01*
X357151Y442265D01*
X356838Y441640D01*
X356213Y441328D01*
X354026D01*
Y445078D01*
X356213D01*
X356838Y444765D01*
X357151Y444140D01*
X356838Y443515D01*
X356213Y443203D01*
X354026D01*
X357835Y492001D02*
X358461Y491688D01*
X358773Y491063D01*
X358461Y490438D01*
X357835Y490126D01*
X355648D01*
Y493876D01*
X357835D01*
X358461Y493563D01*
X358773Y492938D01*
X358461Y492313D01*
X357835Y492001D01*
X355648D01*
X358203Y535682D02*
X358828Y535369D01*
X359141Y534744D01*
X358828Y534119D01*
X358203Y533807D01*
X356016D01*
Y537557D01*
X358203D01*
X358828Y537244D01*
X359141Y536619D01*
X358828Y535994D01*
X358203Y535682D01*
X356016D01*
X358335Y511559D02*
X358960Y511247D01*
X359272Y510622D01*
X358960Y509997D01*
X358335Y509684D01*
X356147D01*
Y513434D01*
X358335D01*
X358960Y513122D01*
X359272Y512497D01*
X358960Y511872D01*
X358335Y511559D01*
X356147D01*
X358687Y431559D02*
X359313Y431247D01*
X359625Y430622D01*
X359313Y429997D01*
X358687Y429684D01*
X356500D01*
Y433434D01*
X358687D01*
X359313Y433122D01*
X359625Y432497D01*
X359313Y431872D01*
X358687Y431559D01*
X356500D01*
X359083Y440831D02*
X359709Y440519D01*
X360021Y439894D01*
X359709Y439269D01*
X359083Y438956D01*
X356896D01*
Y442706D01*
X359083D01*
X359709Y442394D01*
X360021Y441769D01*
X359709Y441144D01*
X359083Y440831D01*
X356896D01*
X359937Y501559D02*
X360563Y501247D01*
X360875Y500622D01*
X360563Y499997D01*
X359937Y499684D01*
X357750D01*
Y503434D01*
X359937D01*
X360563Y503122D01*
X360875Y502497D01*
X360563Y501872D01*
X359937Y501559D01*
X357750D01*
X361187Y336559D02*
X361813Y336247D01*
X362125Y335622D01*
X361813Y334997D01*
X361187Y334684D01*
X359000D01*
Y338434D01*
X361187D01*
X361813Y338122D01*
X362125Y337497D01*
X361813Y336872D01*
X361187Y336559D01*
X359000D01*
X361187Y346559D02*
X361813Y346247D01*
X362125Y345622D01*
X361813Y344997D01*
X361187Y344684D01*
X359000D01*
Y348434D01*
X361187D01*
X361813Y348122D01*
X362125Y347497D01*
X361813Y346872D01*
X361187Y346559D01*
X359000D01*
X361187Y409059D02*
X361813Y408747D01*
X362125Y408122D01*
X361813Y407497D01*
X361187Y407184D01*
X359000D01*
Y410934D01*
X361187D01*
X361813Y410622D01*
X362125Y409997D01*
X361813Y409372D01*
X361187Y409059D01*
X359000D01*
X361187Y554059D02*
X361813Y553747D01*
X362125Y553122D01*
X361813Y552497D01*
X361187Y552184D01*
X359000D01*
Y555934D01*
X361187D01*
X361813Y555622D01*
X362125Y554997D01*
X361813Y554372D01*
X361187Y554059D01*
X359000D01*
X361187Y564058D02*
X361813Y563745D01*
X362125Y563120D01*
X361813Y562495D01*
X361187Y562183D01*
X359000D01*
Y565933D01*
X361187D01*
X361813Y565620D01*
X362125Y564995D01*
X361813Y564370D01*
X361187Y564058D01*
X359000D01*
X361205Y435964D02*
X361830Y435652D01*
X362143Y435027D01*
X361830Y434402D01*
X361205Y434089D01*
X359018D01*
Y437839D01*
X361205D01*
X361830Y437527D01*
X362143Y436902D01*
X361830Y436277D01*
X361205Y435964D01*
X359018D01*
X361704Y443203D02*
X362330Y442890D01*
X362642Y442265D01*
X362330Y441640D01*
X361704Y441328D01*
X359517D01*
Y445078D01*
X361704D01*
X362330Y444765D01*
X362642Y444140D01*
X362330Y443515D01*
X361704Y443203D01*
X359517D01*
X363687Y431559D02*
X364313Y431247D01*
X364625Y430622D01*
X364313Y429997D01*
X363687Y429684D01*
X361500D01*
Y433434D01*
X363687D01*
X364313Y433122D01*
X364625Y432497D01*
X364313Y431872D01*
X363687Y431559D01*
X361500D01*
X364076Y445699D02*
X364701Y445386D01*
X365013Y444761D01*
X364701Y444136D01*
X364076Y443824D01*
X361888D01*
Y447574D01*
X364076D01*
X364701Y447261D01*
X365013Y446636D01*
X364701Y446011D01*
X364076Y445699D01*
X361888D01*
X364200Y464794D02*
X364826Y464481D01*
X365138Y463856D01*
X364826Y463231D01*
X364200Y462919D01*
X362013D01*
Y466669D01*
X364200D01*
X364826Y466356D01*
X365138Y465731D01*
X364826Y465106D01*
X364200Y464794D01*
X362013D01*
X364000Y399684D02*
X365563Y403434D01*
X367125Y399684D01*
X364625Y401247D02*
X366500D01*
X364000Y419684D02*
X365563Y423434D01*
X367125Y419684D01*
X364625Y421247D02*
X366500D01*
X366187Y511559D02*
X366813Y511247D01*
X367125Y510622D01*
X366813Y509997D01*
X366187Y509684D01*
X364000D01*
Y513434D01*
X366187D01*
X366813Y513122D01*
X367125Y512497D01*
X366813Y511872D01*
X366187Y511559D01*
X364000D01*
X366197Y440831D02*
X366822Y440519D01*
X367135Y439894D01*
X366822Y439269D01*
X366197Y438956D01*
X364010D01*
Y442706D01*
X366197D01*
X366822Y442394D01*
X367135Y441769D01*
X366822Y441144D01*
X366197Y440831D01*
X364010D01*
X366447Y492001D02*
X367072Y491688D01*
X367385Y491063D01*
X367072Y490438D01*
X366447Y490126D01*
X364259D01*
Y493876D01*
X366447D01*
X367072Y493563D01*
X367385Y492938D01*
X367072Y492313D01*
X366447Y492001D01*
X364259D01*
X366447Y503358D02*
X367072Y503045D01*
X367385Y502420D01*
X367072Y501795D01*
X366447Y501483D01*
X364259D01*
Y505233D01*
X366447D01*
X367072Y504920D01*
X367385Y504295D01*
X367072Y503670D01*
X366447Y503358D01*
X364259D01*
X368943Y448070D02*
X369568Y447757D01*
X369881Y447133D01*
X369568Y446507D01*
X368943Y446195D01*
X366756D01*
Y449945D01*
X368943D01*
X369568Y449633D01*
X369881Y449007D01*
X369568Y448383D01*
X368943Y448070D01*
X366756D01*
X371187Y409059D02*
X371813Y408747D01*
X372125Y408122D01*
X371813Y407497D01*
X371187Y407184D01*
X369000D01*
Y410934D01*
X371187D01*
X371813Y410622D01*
X372125Y409997D01*
X371813Y409372D01*
X371187Y409059D01*
X369000D01*
X371314Y450566D02*
X371939Y450254D01*
X372252Y449629D01*
X371939Y449004D01*
X371314Y448691D01*
X369127D01*
Y452441D01*
X371314D01*
X371939Y452129D01*
X372252Y451504D01*
X371939Y450879D01*
X371314Y450566D01*
X369127D01*
X371564Y503920D02*
X372189Y503607D01*
X372502Y502983D01*
X372189Y502357D01*
X371564Y502045D01*
X369376D01*
Y505795D01*
X371564D01*
X372189Y505483D01*
X372502Y504857D01*
X372189Y504233D01*
X371564Y503920D01*
X369376D01*
X371564Y535183D02*
X372189Y534870D01*
X372502Y534245D01*
X372189Y533620D01*
X371564Y533307D01*
X369376D01*
Y537057D01*
X371564D01*
X372189Y536745D01*
X372502Y536120D01*
X372189Y535495D01*
X371564Y535183D01*
X369376D01*
X372313Y443203D02*
X372938Y442890D01*
X373250Y442265D01*
X372938Y441640D01*
X372313Y441328D01*
X370125D01*
Y445078D01*
X372313D01*
X372938Y444765D01*
X373250Y444140D01*
X372938Y443515D01*
X372313Y443203D01*
X370125D01*
X373685Y453062D02*
X374311Y452750D01*
X374623Y452125D01*
X374311Y451500D01*
X373685Y451187D01*
X371498D01*
Y454937D01*
X373685D01*
X374311Y454625D01*
X374623Y454000D01*
X374311Y453375D01*
X373685Y453062D01*
X371498D01*
X373687Y379059D02*
X374313Y378747D01*
X374625Y378122D01*
X374313Y377497D01*
X373687Y377184D01*
X371500D01*
Y380934D01*
X373687D01*
X374313Y380622D01*
X374625Y379997D01*
X374313Y379372D01*
X373687Y379059D01*
X371500D01*
X376187Y336559D02*
X376813Y336247D01*
X377125Y335622D01*
X376813Y334997D01*
X376187Y334684D01*
X374000D01*
Y338434D01*
X376187D01*
X376813Y338122D01*
X377125Y337497D01*
X376813Y336872D01*
X376187Y336559D01*
X374000D01*
X376187Y346559D02*
X376813Y346247D01*
X377125Y345622D01*
X376813Y344997D01*
X376187Y344684D01*
X374000D01*
Y348434D01*
X376187D01*
X376813Y348122D01*
X377125Y347497D01*
X376813Y346872D01*
X376187Y346559D01*
X374000D01*
Y399684D02*
X375563Y403434D01*
X377125Y399684D01*
X374625Y401247D02*
X376500D01*
X374000Y419684D02*
X375563Y423434D01*
X377125Y419684D01*
X374625Y421247D02*
X376500D01*
X376187Y445699D02*
X376813Y445386D01*
X377125Y444761D01*
X376813Y444136D01*
X376187Y443824D01*
X374000D01*
Y447574D01*
X376187D01*
X376813Y447261D01*
X377125Y446636D01*
X376813Y446011D01*
X376187Y445699D01*
X374000D01*
X376187Y466559D02*
X376813Y466247D01*
X377125Y465622D01*
X376813Y464997D01*
X376187Y464684D01*
X374000D01*
Y468434D01*
X376187D01*
X376813Y468122D01*
X377125Y467497D01*
X376813Y466872D01*
X376187Y466559D01*
X374000D01*
X376187Y481559D02*
X376813Y481247D01*
X377125Y480622D01*
X376813Y479997D01*
X376187Y479684D01*
X374000D01*
Y483434D01*
X376187D01*
X376813Y483122D01*
X377125Y482497D01*
X376813Y481872D01*
X376187Y481559D01*
X374000D01*
X376187Y521559D02*
X376813Y521247D01*
X377125Y520622D01*
X376813Y519997D01*
X376187Y519684D01*
X374000D01*
Y523434D01*
X376187D01*
X376813Y523122D01*
X377125Y522497D01*
X376813Y521872D01*
X376187Y521559D01*
X374000D01*
X376187Y554059D02*
X376813Y553747D01*
X377125Y553122D01*
X376813Y552497D01*
X376187Y552184D01*
X374000D01*
Y555934D01*
X376187D01*
X376813Y555622D01*
X377125Y554997D01*
X376813Y554372D01*
X376187Y554059D01*
X374000D01*
X376187Y564058D02*
X376813Y563745D01*
X377125Y563120D01*
X376813Y562495D01*
X376187Y562183D01*
X374000D01*
Y565933D01*
X376187D01*
X376813Y565620D01*
X377125Y564995D01*
X376813Y564370D01*
X376187Y564058D01*
X374000D01*
X378553Y440831D02*
X379178Y440519D01*
X379491Y439894D01*
X379178Y439269D01*
X378553Y438956D01*
X376365D01*
Y442706D01*
X378553D01*
X379178Y442394D01*
X379491Y441769D01*
X379178Y441144D01*
X378553Y440831D01*
X376365D01*
X378687Y394059D02*
X379313Y393747D01*
X379625Y393122D01*
X379313Y392497D01*
X378687Y392184D01*
X376500D01*
Y395934D01*
X378687D01*
X379313Y395622D01*
X379625Y394997D01*
X379313Y394372D01*
X378687Y394059D01*
X376500D01*
X381174Y435964D02*
X381799Y435652D01*
X382111Y435027D01*
X381799Y434402D01*
X381174Y434089D01*
X378986D01*
Y437839D01*
X381174D01*
X381799Y437527D01*
X382111Y436902D01*
X381799Y436277D01*
X381174Y435964D01*
X378986D01*
X381174Y525947D02*
X381799Y525635D01*
X382111Y525010D01*
X381799Y524385D01*
X381174Y524072D01*
X378986D01*
Y527822D01*
X381174D01*
X381799Y527510D01*
X382111Y526885D01*
X381799Y526260D01*
X381174Y525947D01*
X378986D01*
X381187Y431559D02*
X381813Y431247D01*
X382125Y430622D01*
X381813Y429997D01*
X381187Y429684D01*
X379000D01*
Y433434D01*
X381187D01*
X381813Y433122D01*
X382125Y432497D01*
X381813Y431872D01*
X381187Y431559D01*
X379000D01*
X383687Y379059D02*
X384313Y378747D01*
X384625Y378122D01*
X384313Y377497D01*
X383687Y377184D01*
X381500D01*
Y380934D01*
X383687D01*
X384313Y380622D01*
X384625Y379997D01*
X384313Y379372D01*
X383687Y379059D01*
X381500D01*
X383794Y438460D02*
X384420Y438148D01*
X384732Y437523D01*
X384420Y436898D01*
X383794Y436585D01*
X381607D01*
Y440335D01*
X383794D01*
X384420Y440023D01*
X384732Y439398D01*
X384420Y438773D01*
X383794Y438460D01*
X381607D01*
X385043Y517710D02*
X385668Y517398D01*
X385980Y516773D01*
X385668Y516148D01*
X385043Y515835D01*
X382855D01*
Y519585D01*
X385043D01*
X385668Y519273D01*
X385980Y518648D01*
X385668Y518023D01*
X385043Y517710D01*
X382855D01*
X385167Y512718D02*
X385793Y512406D01*
X386105Y511781D01*
X385793Y511156D01*
X385167Y510843D01*
X382980D01*
Y514593D01*
X385167D01*
X385793Y514281D01*
X386105Y513656D01*
X385793Y513031D01*
X385167Y512718D01*
X382980D01*
X384000Y399684D02*
X385563Y403434D01*
X387125Y399684D01*
X384625Y401247D02*
X386500D01*
X384000Y419684D02*
X385563Y423434D01*
X387125Y419684D01*
X384625Y421247D02*
X386500D01*
X386187Y453062D02*
X386813Y452750D01*
X387125Y452125D01*
X386813Y451500D01*
X386187Y451187D01*
X384000D01*
Y454937D01*
X386187D01*
X386813Y454625D01*
X387125Y454000D01*
X386813Y453375D01*
X386187Y453062D01*
X384000D01*
X388163Y519957D02*
X388788Y519644D01*
X389100Y519019D01*
X388788Y518394D01*
X388163Y518081D01*
X385975D01*
Y521831D01*
X388163D01*
X388788Y521519D01*
X389100Y520894D01*
X388788Y520269D01*
X388163Y519957D01*
X385975D01*
X388166Y510472D02*
X388791Y510159D01*
X389104Y509534D01*
X388791Y508909D01*
X388166Y508596D01*
X385979D01*
Y512346D01*
X388166D01*
X388791Y512034D01*
X389104Y511409D01*
X388791Y510784D01*
X388166Y510472D01*
X385979D01*
X388662Y434092D02*
X389287Y433780D01*
X389600Y433155D01*
X389287Y432530D01*
X388662Y432217D01*
X386474D01*
Y435967D01*
X388662D01*
X389287Y435655D01*
X389600Y435030D01*
X389287Y434405D01*
X388662Y434092D01*
X386474D01*
X388687Y394059D02*
X389313Y393747D01*
X389625Y393122D01*
X389313Y392497D01*
X388687Y392184D01*
X386500D01*
Y395934D01*
X388687D01*
X389313Y395622D01*
X389625Y394997D01*
X389313Y394372D01*
X388687Y394059D01*
X386500D01*
X390035Y507102D02*
X390660Y506789D01*
X390972Y506165D01*
X390660Y505539D01*
X390035Y505227D01*
X387847D01*
Y508977D01*
X390035D01*
X390660Y508665D01*
X390972Y508039D01*
X390660Y507415D01*
X390035Y507102D01*
X387847D01*
X390534Y514965D02*
X391159Y514652D01*
X391472Y514027D01*
X391159Y513402D01*
X390534Y513089D01*
X388346D01*
Y516839D01*
X390534D01*
X391159Y516527D01*
X391472Y515902D01*
X391159Y515277D01*
X390534Y514965D01*
X388346D01*
X391187Y336559D02*
X391813Y336247D01*
X392125Y335622D01*
X391813Y334997D01*
X391187Y334684D01*
X389000D01*
Y338434D01*
X391187D01*
X391813Y338122D01*
X392125Y337497D01*
X391813Y336872D01*
X391187Y336559D01*
X389000D01*
X391187Y346559D02*
X391813Y346247D01*
X392125Y345622D01*
X391813Y344997D01*
X391187Y344684D01*
X389000D01*
Y348434D01*
X391187D01*
X391813Y348122D01*
X392125Y347497D01*
X391813Y346872D01*
X391187Y346559D01*
X389000D01*
X391187Y409059D02*
X391813Y408747D01*
X392125Y408122D01*
X391813Y407497D01*
X391187Y407184D01*
X389000D01*
Y410934D01*
X391187D01*
X391813Y410622D01*
X392125Y409997D01*
X391813Y409372D01*
X391187Y409059D01*
X389000D01*
X391187Y466559D02*
X391813Y466247D01*
X392125Y465622D01*
X391813Y464997D01*
X391187Y464684D01*
X389000D01*
Y468434D01*
X391187D01*
X391813Y468122D01*
X392125Y467497D01*
X391813Y466872D01*
X391187Y466559D01*
X389000D01*
X391187Y481559D02*
X391813Y481247D01*
X392125Y480622D01*
X391813Y479997D01*
X391187Y479684D01*
X389000D01*
Y483434D01*
X391187D01*
X391813Y483122D01*
X392125Y482497D01*
X391813Y481872D01*
X391187Y481559D01*
X389000D01*
X391187Y536559D02*
X391813Y536247D01*
X392125Y535622D01*
X391813Y534997D01*
X391187Y534684D01*
X389000D01*
Y538434D01*
X391187D01*
X391813Y538122D01*
X392125Y537497D01*
X391813Y536872D01*
X391187Y536559D01*
X389000D01*
X391187Y554059D02*
X391813Y553747D01*
X392125Y553122D01*
X391813Y552497D01*
X391187Y552184D01*
X389000D01*
Y555934D01*
X391187D01*
X391813Y555622D01*
X392125Y554997D01*
X391813Y554372D01*
X391187Y554059D01*
X389000D01*
X391187Y564058D02*
X391813Y563745D01*
X392125Y563120D01*
X391813Y562495D01*
X391187Y562183D01*
X389000D01*
Y565933D01*
X391187D01*
X391813Y565620D01*
X392125Y564995D01*
X391813Y564370D01*
X391187Y564058D01*
X389000D01*
X391283Y450566D02*
X391908Y450254D01*
X392220Y449629D01*
X391908Y449004D01*
X391283Y448691D01*
X389095D01*
Y452441D01*
X391283D01*
X391908Y452129D01*
X392220Y451504D01*
X391908Y450879D01*
X391283Y450566D01*
X389095D01*
X393280Y488506D02*
X393905Y488194D01*
X394217Y487569D01*
X393905Y486944D01*
X393280Y486631D01*
X391092D01*
Y490381D01*
X393280D01*
X393905Y490069D01*
X394217Y489444D01*
X393905Y488819D01*
X393280Y488506D01*
X391092D01*
X393280Y497617D02*
X393905Y497304D01*
X394217Y496680D01*
X393905Y496054D01*
X393280Y495742D01*
X391092D01*
Y499492D01*
X393280D01*
X393905Y499180D01*
X394217Y498554D01*
X393905Y497930D01*
X393280Y497617D01*
X391092D01*
X393687Y379059D02*
X394313Y378747D01*
X394625Y378122D01*
X394313Y377497D01*
X393687Y377184D01*
X391500D01*
Y380934D01*
X393687D01*
X394313Y380622D01*
X394625Y379997D01*
X394313Y379372D01*
X393687Y379059D01*
X391500D01*
X394000Y399684D02*
X395563Y403434D01*
X397125Y399684D01*
X394625Y401247D02*
X396500D01*
X394000Y419684D02*
X395563Y423434D01*
X397125Y419684D01*
X394625Y421247D02*
X396500D01*
X396187Y448070D02*
X396813Y447757D01*
X397125Y447133D01*
X396813Y446507D01*
X396187Y446195D01*
X394000D01*
Y449945D01*
X396187D01*
X396813Y449633D01*
X397125Y449007D01*
X396813Y448383D01*
X396187Y448070D01*
X394000D01*
X398646Y434092D02*
X399271Y433780D01*
X399584Y433155D01*
X399271Y432530D01*
X398646Y432217D01*
X396459D01*
Y435967D01*
X398646D01*
X399271Y435655D01*
X399584Y435030D01*
X399271Y434405D01*
X398646Y434092D01*
X396459D01*
X398687Y394059D02*
X399313Y393747D01*
X399625Y393122D01*
X399313Y392497D01*
X398687Y392184D01*
X396500D01*
Y395934D01*
X398687D01*
X399313Y395622D01*
X399625Y394997D01*
X399313Y394372D01*
X398687Y394059D01*
X396500D01*
X401187Y409059D02*
X401813Y408747D01*
X402125Y408122D01*
X401813Y407497D01*
X401187Y407184D01*
X399000D01*
Y410934D01*
X401187D01*
X401813Y410622D01*
X402125Y409997D01*
X401813Y409372D01*
X401187Y409059D01*
X399000D01*
X402889Y473433D02*
X403515Y473121D01*
X403827Y472496D01*
X403515Y471871D01*
X402889Y471558D01*
X400702D01*
Y475308D01*
X402889D01*
X403515Y474996D01*
X403827Y474371D01*
X403515Y473746D01*
X402889Y473433D01*
X400702D01*
X402889Y477926D02*
X403515Y477614D01*
X403827Y476989D01*
X403515Y476364D01*
X402889Y476051D01*
X400702D01*
Y479801D01*
X402889D01*
X403515Y479489D01*
X403827Y478864D01*
X403515Y478239D01*
X402889Y477926D01*
X400702D01*
X405635Y503483D02*
X406260Y503170D01*
X406573Y502545D01*
X406260Y501920D01*
X405635Y501607D01*
X403448D01*
Y505357D01*
X405635D01*
X406260Y505045D01*
X406573Y504420D01*
X406260Y503795D01*
X405635Y503483D01*
X403448D01*
X406187Y336559D02*
X406813Y336247D01*
X407125Y335622D01*
X406813Y334997D01*
X406187Y334684D01*
X404000D01*
Y338434D01*
X406187D01*
X406813Y338122D01*
X407125Y337497D01*
X406813Y336872D01*
X406187Y336559D01*
X404000D01*
X406187Y346559D02*
X406813Y346247D01*
X407125Y345622D01*
X406813Y344997D01*
X406187Y344684D01*
X404000D01*
Y348434D01*
X406187D01*
X406813Y348122D01*
X407125Y347497D01*
X406813Y346872D01*
X406187Y346559D01*
X404000D01*
X406187Y379059D02*
X406813Y378747D01*
X407125Y378122D01*
X406813Y377497D01*
X406187Y377184D01*
X404000D01*
Y380934D01*
X406187D01*
X406813Y380622D01*
X407125Y379997D01*
X406813Y379372D01*
X406187Y379059D01*
X404000D01*
Y399684D02*
X405563Y403434D01*
X407125Y399684D01*
X404625Y401247D02*
X406500D01*
X404000Y419684D02*
X405563Y423434D01*
X407125Y419684D01*
X404625Y421247D02*
X406500D01*
X406187Y451559D02*
X406813Y451247D01*
X407125Y450622D01*
X406813Y449997D01*
X406187Y449684D01*
X404000D01*
Y453434D01*
X406187D01*
X406813Y453122D01*
X407125Y452497D01*
X406813Y451872D01*
X406187Y451559D01*
X404000D01*
X406187Y466559D02*
X406813Y466247D01*
X407125Y465622D01*
X406813Y464997D01*
X406187Y464684D01*
X404000D01*
Y468434D01*
X406187D01*
X406813Y468122D01*
X407125Y467497D01*
X406813Y466872D01*
X406187Y466559D01*
X404000D01*
X406187Y481559D02*
X406813Y481247D01*
X407125Y480622D01*
X406813Y479997D01*
X406187Y479684D01*
X404000D01*
Y483434D01*
X406187D01*
X406813Y483122D01*
X407125Y482497D01*
X406813Y481872D01*
X406187Y481559D01*
X404000D01*
X406187Y526559D02*
X406813Y526247D01*
X407125Y525622D01*
X406813Y524997D01*
X406187Y524684D01*
X404000D01*
Y528434D01*
X406187D01*
X406813Y528122D01*
X407125Y527497D01*
X406813Y526872D01*
X406187Y526559D01*
X404000D01*
X406187Y536559D02*
X406813Y536247D01*
X407125Y535622D01*
X406813Y534997D01*
X406187Y534684D01*
X404000D01*
Y538434D01*
X406187D01*
X406813Y538122D01*
X407125Y537497D01*
X406813Y536872D01*
X406187Y536559D01*
X404000D01*
X406187Y554059D02*
X406813Y553747D01*
X407125Y553122D01*
X406813Y552497D01*
X406187Y552184D01*
X404000D01*
Y555934D01*
X406187D01*
X406813Y555622D01*
X407125Y554997D01*
X406813Y554372D01*
X406187Y554059D01*
X404000D01*
X406187Y564058D02*
X406813Y563745D01*
X407125Y563120D01*
X406813Y562495D01*
X406187Y562183D01*
X404000D01*
Y565933D01*
X406187D01*
X406813Y565620D01*
X407125Y564995D01*
X406813Y564370D01*
X406187Y564058D01*
X404000D01*
X407437Y471187D02*
X408063Y470874D01*
X408375Y470250D01*
X408063Y469624D01*
X407437Y469312D01*
X405250D01*
Y473062D01*
X407437D01*
X408063Y472750D01*
X408375Y472124D01*
X408063Y471500D01*
X407437Y471187D01*
X405250D01*
X407437Y475680D02*
X408063Y475367D01*
X408375Y474743D01*
X408063Y474117D01*
X407437Y473805D01*
X405250D01*
Y477555D01*
X407437D01*
X408063Y477243D01*
X408375Y476617D01*
X408063Y475993D01*
X407437Y475680D01*
X405250D01*
X413373Y436559D02*
X413998Y436247D01*
X414311Y435622D01*
X413998Y434997D01*
X413373Y434684D01*
X411185D01*
Y438434D01*
X413373D01*
X413998Y438122D01*
X414311Y437497D01*
X413998Y436872D01*
X413373Y436559D01*
X411185D01*
X413622Y491626D02*
X414248Y491314D01*
X414560Y490689D01*
X414248Y490064D01*
X413622Y489751D01*
X411435D01*
Y493501D01*
X413622D01*
X414248Y493189D01*
X414560Y492564D01*
X414248Y491939D01*
X413622Y491626D01*
X411435D01*
X413687Y394059D02*
X414313Y393747D01*
X414625Y393122D01*
X414313Y392497D01*
X413687Y392184D01*
X411500D01*
Y395934D01*
X413687D01*
X414313Y395622D01*
X414625Y394997D01*
X414313Y394372D01*
X413687Y394059D01*
X411500D01*
X413747Y515214D02*
X414372Y514902D01*
X414685Y514277D01*
X414372Y513652D01*
X413747Y513339D01*
X411560D01*
Y517089D01*
X413747D01*
X414372Y516777D01*
X414685Y516152D01*
X414372Y515527D01*
X413747Y515214D01*
X411560D01*
X414000Y399684D02*
X415563Y403434D01*
X417125Y399684D01*
X414625Y401247D02*
X416500D01*
X414000Y419684D02*
X415563Y423434D01*
X417125Y419684D01*
X414625Y421247D02*
X416500D01*
X416187Y441580D02*
X416813Y441268D01*
X417125Y440643D01*
X416813Y440018D01*
X416187Y439705D01*
X414000D01*
Y443455D01*
X416187D01*
X416813Y443143D01*
X417125Y442518D01*
X416813Y441893D01*
X416187Y441580D01*
X414000D01*
X416368Y500113D02*
X416993Y499800D01*
X417306Y499176D01*
X416993Y498550D01*
X416368Y498238D01*
X414181D01*
Y501988D01*
X416368D01*
X416993Y501676D01*
X417306Y501050D01*
X416993Y500426D01*
X416368Y500113D01*
X414181D01*
X418687Y379059D02*
X419313Y378747D01*
X419625Y378122D01*
X419313Y377497D01*
X418687Y377184D01*
X416500D01*
Y380934D01*
X418687D01*
X419313Y380622D01*
X419625Y379997D01*
X419313Y379372D01*
X418687Y379059D01*
X416500D01*
X421187Y336559D02*
X421813Y336247D01*
X422125Y335622D01*
X421813Y334997D01*
X421187Y334684D01*
X419000D01*
Y338434D01*
X421187D01*
X421813Y338122D01*
X422125Y337497D01*
X421813Y336872D01*
X421187Y336559D01*
X419000D01*
X421187Y346559D02*
X421813Y346247D01*
X422125Y345622D01*
X421813Y344997D01*
X421187Y344684D01*
X419000D01*
Y348434D01*
X421187D01*
X421813Y348122D01*
X422125Y347497D01*
X421813Y346872D01*
X421187Y346559D01*
X419000D01*
X421187Y409059D02*
X421813Y408747D01*
X422125Y408122D01*
X421813Y407497D01*
X421187Y407184D01*
X419000D01*
Y410934D01*
X421187D01*
X421813Y410622D01*
X422125Y409997D01*
X421813Y409372D01*
X421187Y409059D01*
X419000D01*
X421187Y451559D02*
X421813Y451247D01*
X422125Y450622D01*
X421813Y449997D01*
X421187Y449684D01*
X419000D01*
Y453434D01*
X421187D01*
X421813Y453122D01*
X422125Y452497D01*
X421813Y451872D01*
X421187Y451559D01*
X419000D01*
X421187Y466559D02*
X421813Y466247D01*
X422125Y465622D01*
X421813Y464997D01*
X421187Y464684D01*
X419000D01*
Y468434D01*
X421187D01*
X421813Y468122D01*
X422125Y467497D01*
X421813Y466872D01*
X421187Y466559D01*
X419000D01*
X421187Y481559D02*
X421813Y481247D01*
X422125Y480622D01*
X421813Y479997D01*
X421187Y479684D01*
X419000D01*
Y483434D01*
X421187D01*
X421813Y483122D01*
X422125Y482497D01*
X421813Y481872D01*
X421187Y481559D01*
X419000D01*
X421187Y496559D02*
X421813Y496247D01*
X422125Y495622D01*
X421813Y494997D01*
X421187Y494684D01*
X419000D01*
Y498434D01*
X421187D01*
X421813Y498122D01*
X422125Y497497D01*
X421813Y496872D01*
X421187Y496559D01*
X419000D01*
X421187Y506559D02*
X421813Y506247D01*
X422125Y505622D01*
X421813Y504997D01*
X421187Y504684D01*
X419000D01*
Y508434D01*
X421187D01*
X421813Y508122D01*
X422125Y507497D01*
X421813Y506872D01*
X421187Y506559D01*
X419000D01*
X421187Y514059D02*
X421813Y513747D01*
X422125Y513122D01*
X421813Y512497D01*
X421187Y512184D01*
X419000D01*
Y515934D01*
X421187D01*
X421813Y515622D01*
X422125Y514997D01*
X421813Y514372D01*
X421187Y514059D01*
X419000D01*
X421187Y526559D02*
X421813Y526247D01*
X422125Y525622D01*
X421813Y524997D01*
X421187Y524684D01*
X419000D01*
Y528434D01*
X421187D01*
X421813Y528122D01*
X422125Y527497D01*
X421813Y526872D01*
X421187Y526559D01*
X419000D01*
X421187Y536559D02*
X421813Y536247D01*
X422125Y535622D01*
X421813Y534997D01*
X421187Y534684D01*
X419000D01*
Y538434D01*
X421187D01*
X421813Y538122D01*
X422125Y537497D01*
X421813Y536872D01*
X421187Y536559D01*
X419000D01*
X421187Y554059D02*
X421813Y553747D01*
X422125Y553122D01*
X421813Y552497D01*
X421187Y552184D01*
X419000D01*
Y555934D01*
X421187D01*
X421813Y555622D01*
X422125Y554997D01*
X421813Y554372D01*
X421187Y554059D01*
X419000D01*
X421187Y564058D02*
X421813Y563745D01*
X422125Y563120D01*
X421813Y562495D01*
X421187Y562183D01*
X419000D01*
Y565933D01*
X421187D01*
X421813Y565620D01*
X422125Y564995D01*
X421813Y564370D01*
X421187Y564058D01*
X419000D01*
X421235Y439059D02*
X421861Y438747D01*
X422173Y438122D01*
X421861Y437497D01*
X421235Y437184D01*
X419048D01*
Y440934D01*
X421235D01*
X421861Y440622D01*
X422173Y439997D01*
X421861Y439372D01*
X421235Y439059D01*
X419048D01*
X423687Y394059D02*
X424313Y393747D01*
X424625Y393122D01*
X424313Y392497D01*
X423687Y392184D01*
X421500D01*
Y395934D01*
X423687D01*
X424313Y395622D01*
X424625Y394997D01*
X424313Y394372D01*
X423687Y394059D01*
X421500D01*
X424000Y399684D02*
X425563Y403434D01*
X427125Y399684D01*
X424625Y401247D02*
X426500D01*
X424000Y419684D02*
X425563Y423434D01*
X427125Y419684D01*
X424625Y421247D02*
X426500D01*
X428687Y379059D02*
X429313Y378747D01*
X429625Y378122D01*
X429313Y377497D01*
X428687Y377184D01*
X426500D01*
Y380934D01*
X428687D01*
X429313Y380622D01*
X429625Y379997D01*
X429313Y379372D01*
X428687Y379059D01*
X426500D01*
X431187Y409059D02*
X431813Y408747D01*
X432125Y408122D01*
X431813Y407497D01*
X431187Y407184D01*
X429000D01*
Y410934D01*
X431187D01*
X431813Y410622D01*
X432125Y409997D01*
X431813Y409372D01*
X431187Y409059D01*
X429000D01*
X433687Y514059D02*
X434313Y513747D01*
X434625Y513122D01*
X434313Y512497D01*
X433687Y512184D01*
X431500D01*
Y515934D01*
X433687D01*
X434313Y515622D01*
X434625Y514997D01*
X434313Y514372D01*
X433687Y514059D01*
X431500D01*
X436187Y336559D02*
X436813Y336247D01*
X437125Y335622D01*
X436813Y334997D01*
X436187Y334684D01*
X434000D01*
Y338434D01*
X436187D01*
X436813Y338122D01*
X437125Y337497D01*
X436813Y336872D01*
X436187Y336559D01*
X434000D01*
X436187Y346559D02*
X436813Y346247D01*
X437125Y345622D01*
X436813Y344997D01*
X436187Y344684D01*
X434000D01*
Y348434D01*
X436187D01*
X436813Y348122D01*
X437125Y347497D01*
X436813Y346872D01*
X436187Y346559D01*
X434000D01*
X436187Y394059D02*
X436813Y393747D01*
X437125Y393122D01*
X436813Y392497D01*
X436187Y392184D01*
X434000D01*
Y395934D01*
X436187D01*
X436813Y395622D01*
X437125Y394997D01*
X436813Y394372D01*
X436187Y394059D01*
X434000D01*
Y399684D02*
X435563Y403434D01*
X437125Y399684D01*
X434625Y401247D02*
X436500D01*
X434000Y419684D02*
X435563Y423434D01*
X437125Y419684D01*
X434625Y421247D02*
X436500D01*
X436187Y451559D02*
X436813Y451247D01*
X437125Y450622D01*
X436813Y449997D01*
X436187Y449684D01*
X434000D01*
Y453434D01*
X436187D01*
X436813Y453122D01*
X437125Y452497D01*
X436813Y451872D01*
X436187Y451559D01*
X434000D01*
X436187Y466559D02*
X436813Y466247D01*
X437125Y465622D01*
X436813Y464997D01*
X436187Y464684D01*
X434000D01*
Y468434D01*
X436187D01*
X436813Y468122D01*
X437125Y467497D01*
X436813Y466872D01*
X436187Y466559D01*
X434000D01*
X436187Y481559D02*
X436813Y481247D01*
X437125Y480622D01*
X436813Y479997D01*
X436187Y479684D01*
X434000D01*
Y483434D01*
X436187D01*
X436813Y483122D01*
X437125Y482497D01*
X436813Y481872D01*
X436187Y481559D01*
X434000D01*
X436187Y496559D02*
X436813Y496247D01*
X437125Y495622D01*
X436813Y494997D01*
X436187Y494684D01*
X434000D01*
Y498434D01*
X436187D01*
X436813Y498122D01*
X437125Y497497D01*
X436813Y496872D01*
X436187Y496559D01*
X434000D01*
X436187Y506559D02*
X436813Y506247D01*
X437125Y505622D01*
X436813Y504997D01*
X436187Y504684D01*
X434000D01*
Y508434D01*
X436187D01*
X436813Y508122D01*
X437125Y507497D01*
X436813Y506872D01*
X436187Y506559D01*
X434000D01*
X436187Y526559D02*
X436813Y526247D01*
X437125Y525622D01*
X436813Y524997D01*
X436187Y524684D01*
X434000D01*
Y528434D01*
X436187D01*
X436813Y528122D01*
X437125Y527497D01*
X436813Y526872D01*
X436187Y526559D01*
X434000D01*
X436187Y554059D02*
X436813Y553747D01*
X437125Y553122D01*
X436813Y552497D01*
X436187Y552184D01*
X434000D01*
Y555934D01*
X436187D01*
X436813Y555622D01*
X437125Y554997D01*
X436813Y554372D01*
X436187Y554059D01*
X434000D01*
X436187Y564058D02*
X436813Y563745D01*
X437125Y563120D01*
X436813Y562495D01*
X436187Y562183D01*
X434000D01*
Y565933D01*
X436187D01*
X436813Y565620D01*
X437125Y564995D01*
X436813Y564370D01*
X436187Y564058D01*
X434000D01*
X436711Y530309D02*
X437336Y529997D01*
X437649Y529372D01*
X437336Y528747D01*
X436711Y528434D01*
X434524D01*
Y532184D01*
X436711D01*
X437336Y531872D01*
X437649Y531247D01*
X437336Y530622D01*
X436711Y530309D01*
X434524D01*
X436961Y523326D02*
X437586Y523014D01*
X437898Y522389D01*
X437586Y521764D01*
X436961Y521451D01*
X434773D01*
Y525201D01*
X436961D01*
X437586Y524889D01*
X437898Y524264D01*
X437586Y523639D01*
X436961Y523326D01*
X434773D01*
X439207Y534059D02*
X439832Y533747D01*
X440145Y533122D01*
X439832Y532497D01*
X439207Y532184D01*
X437020D01*
Y535934D01*
X439207D01*
X439832Y535622D01*
X440145Y534997D01*
X439832Y534372D01*
X439207Y534059D01*
X437020D01*
X443687Y394059D02*
X444313Y393747D01*
X444625Y393122D01*
X444313Y392497D01*
X443687Y392184D01*
X441500D01*
Y395934D01*
X443687D01*
X444313Y395622D01*
X444625Y394997D01*
X444313Y394372D01*
X443687Y394059D01*
X441500D01*
X443687Y429059D02*
X444313Y428747D01*
X444625Y428122D01*
X444313Y427497D01*
X443687Y427184D01*
X441500D01*
Y430934D01*
X443687D01*
X444313Y430622D01*
X444625Y429997D01*
X444313Y429372D01*
X443687Y429059D01*
X441500D01*
X443825Y530309D02*
X444450Y529997D01*
X444763Y529372D01*
X444450Y528747D01*
X443825Y528434D01*
X441637D01*
Y532184D01*
X443825D01*
X444450Y531872D01*
X444763Y531247D01*
X444450Y530622D01*
X443825Y530309D01*
X441637D01*
X444000Y399684D02*
X445563Y403434D01*
X447125Y399684D01*
X444625Y401247D02*
X446500D01*
X444000Y419684D02*
X445563Y423434D01*
X447125Y419684D01*
X444625Y421247D02*
X446500D01*
X446196Y519957D02*
X446821Y519644D01*
X447134Y519019D01*
X446821Y518394D01*
X446196Y518081D01*
X444009D01*
Y521831D01*
X446196D01*
X446821Y521519D01*
X447134Y520894D01*
X446821Y520269D01*
X446196Y519957D01*
X444009D01*
X446196Y523326D02*
X446821Y523014D01*
X447134Y522389D01*
X446821Y521764D01*
X446196Y521451D01*
X444009D01*
Y525201D01*
X446196D01*
X446821Y524889D01*
X447134Y524264D01*
X446821Y523639D01*
X446196Y523326D01*
X444009D01*
X448443Y534059D02*
X449068Y533747D01*
X449380Y533122D01*
X449068Y532497D01*
X448443Y532184D01*
X446255D01*
Y535934D01*
X448443D01*
X449068Y535622D01*
X449380Y534997D01*
X449068Y534372D01*
X448443Y534059D01*
X446255D01*
X448687Y379059D02*
X449313Y378747D01*
X449625Y378122D01*
X449313Y377497D01*
X448687Y377184D01*
X446500D01*
Y380934D01*
X448687D01*
X449313Y380622D01*
X449625Y379997D01*
X449313Y379372D01*
X448687Y379059D01*
X446500D01*
X448687Y451559D02*
X449313Y451247D01*
X449625Y450622D01*
X449313Y449997D01*
X448687Y449684D01*
X446500D01*
Y453434D01*
X448687D01*
X449313Y453122D01*
X449625Y452497D01*
X449313Y451872D01*
X448687Y451559D01*
X446500D01*
X448687Y466559D02*
X449313Y466247D01*
X449625Y465622D01*
X449313Y464997D01*
X448687Y464684D01*
X446500D01*
Y468434D01*
X448687D01*
X449313Y468122D01*
X449625Y467497D01*
X449313Y466872D01*
X448687Y466559D01*
X446500D01*
X448687Y481559D02*
X449313Y481247D01*
X449625Y480622D01*
X449313Y479997D01*
X448687Y479684D01*
X446500D01*
Y483434D01*
X448687D01*
X449313Y483122D01*
X449625Y482497D01*
X449313Y481872D01*
X448687Y481559D01*
X446500D01*
X448687Y496559D02*
X449313Y496247D01*
X449625Y495622D01*
X449313Y494997D01*
X448687Y494684D01*
X446500D01*
Y498434D01*
X448687D01*
X449313Y498122D01*
X449625Y497497D01*
X449313Y496872D01*
X448687Y496559D01*
X446500D01*
X448687Y514059D02*
X449313Y513747D01*
X449625Y513122D01*
X449313Y512497D01*
X448687Y512184D01*
X446500D01*
Y515934D01*
X448687D01*
X449313Y515622D01*
X449625Y514997D01*
X449313Y514372D01*
X448687Y514059D01*
X446500D01*
X448687Y526559D02*
X449313Y526247D01*
X449625Y525622D01*
X449313Y524997D01*
X448687Y524684D01*
X446500D01*
Y528434D01*
X448687D01*
X449313Y528122D01*
X449625Y527497D01*
X449313Y526872D01*
X448687Y526559D01*
X446500D01*
X451187Y336559D02*
X451813Y336247D01*
X452125Y335622D01*
X451813Y334997D01*
X451187Y334684D01*
X449000D01*
Y338434D01*
X451187D01*
X451813Y338122D01*
X452125Y337497D01*
X451813Y336872D01*
X451187Y336559D01*
X449000D01*
X451187Y346559D02*
X451813Y346247D01*
X452125Y345622D01*
X451813Y344997D01*
X451187Y344684D01*
X449000D01*
Y348434D01*
X451187D01*
X451813Y348122D01*
X452125Y347497D01*
X451813Y346872D01*
X451187Y346559D01*
X449000D01*
X451187Y431559D02*
X451813Y431247D01*
X452125Y430622D01*
X451813Y429997D01*
X451187Y429684D01*
X449000D01*
Y433434D01*
X451187D01*
X451813Y433122D01*
X452125Y432497D01*
X451813Y431872D01*
X451187Y431559D01*
X449000D01*
X451187Y554059D02*
X451813Y553747D01*
X452125Y553122D01*
X451813Y552497D01*
X451187Y552184D01*
X449000D01*
Y555934D01*
X451187D01*
X451813Y555622D01*
X452125Y554997D01*
X451813Y554372D01*
X451187Y554059D01*
X449000D01*
X451187Y564058D02*
X451813Y563745D01*
X452125Y563120D01*
X451813Y562495D01*
X451187Y562183D01*
X449000D01*
Y565933D01*
X451187D01*
X451813Y565620D01*
X452125Y564995D01*
X451813Y564370D01*
X451187Y564058D01*
X449000D01*
X451188Y441580D02*
X451813Y441268D01*
X452126Y440643D01*
X451813Y440018D01*
X451188Y439705D01*
X449001D01*
Y443455D01*
X451188D01*
X451813Y443143D01*
X452126Y442518D01*
X451813Y441893D01*
X451188Y441580D01*
X449001D01*
X453684Y439059D02*
X454309Y438747D01*
X454622Y438122D01*
X454309Y437497D01*
X453684Y437184D01*
X451497D01*
Y440934D01*
X453684D01*
X454309Y440622D01*
X454622Y439997D01*
X454309Y439372D01*
X453684Y439059D01*
X451497D01*
X453687Y394059D02*
X454313Y393747D01*
X454625Y393122D01*
X454313Y392497D01*
X453687Y392184D01*
X451500D01*
Y395934D01*
X453687D01*
X454313Y395622D01*
X454625Y394997D01*
X454313Y394372D01*
X453687Y394059D01*
X451500D01*
X456180Y436559D02*
X456806Y436247D01*
X457118Y435622D01*
X456806Y434997D01*
X456180Y434684D01*
X453993D01*
Y438434D01*
X456180D01*
X456806Y438122D01*
X457118Y437497D01*
X456806Y436872D01*
X456180Y436559D01*
X453993D01*
X454000Y399684D02*
X455563Y403434D01*
X457125Y399684D01*
X454625Y401247D02*
X456500D01*
X456187Y414059D02*
X456813Y413747D01*
X457125Y413122D01*
X456813Y412497D01*
X456187Y412184D01*
X454000D01*
Y415934D01*
X456187D01*
X456813Y415622D01*
X457125Y414997D01*
X456813Y414372D01*
X456187Y414059D01*
X454000D01*
Y419684D02*
X455563Y423434D01*
X457125Y419684D01*
X454625Y421247D02*
X456500D01*
X457437Y451559D02*
X458063Y451247D01*
X458375Y450622D01*
X458063Y449997D01*
X457437Y449684D01*
X455250D01*
Y453434D01*
X457437D01*
X458063Y453122D01*
X458375Y452497D01*
X458063Y451872D01*
X457437Y451559D01*
X455250D01*
X457437Y466559D02*
X458063Y466247D01*
X458375Y465622D01*
X458063Y464997D01*
X457437Y464684D01*
X455250D01*
Y468434D01*
X457437D01*
X458063Y468122D01*
X458375Y467497D01*
X458063Y466872D01*
X457437Y466559D01*
X455250D01*
X457437Y481559D02*
X458063Y481247D01*
X458375Y480622D01*
X458063Y479997D01*
X457437Y479684D01*
X455250D01*
Y483434D01*
X457437D01*
X458063Y483122D01*
X458375Y482497D01*
X458063Y481872D01*
X457437Y481559D01*
X455250D01*
X457437Y496559D02*
X458063Y496247D01*
X458375Y495622D01*
X458063Y494997D01*
X457437Y494684D01*
X455250D01*
Y498434D01*
X457437D01*
X458063Y498122D01*
X458375Y497497D01*
X458063Y496872D01*
X457437Y496559D01*
X455250D01*
X457437Y514059D02*
X458063Y513747D01*
X458375Y513122D01*
X458063Y512497D01*
X457437Y512184D01*
X455250D01*
Y515934D01*
X457437D01*
X458063Y515622D01*
X458375Y514997D01*
X458063Y514372D01*
X457437Y514059D01*
X455250D01*
X458687Y382923D02*
X459313Y382610D01*
X459625Y381985D01*
X459313Y381360D01*
X458687Y381048D01*
X456500D01*
Y384798D01*
X458687D01*
X459313Y384485D01*
X459625Y383860D01*
X459313Y383235D01*
X458687Y382923D01*
X456500D01*
X461172Y517710D02*
X461798Y517398D01*
X462110Y516773D01*
X461798Y516148D01*
X461172Y515835D01*
X458985D01*
Y519585D01*
X461172D01*
X461798Y519273D01*
X462110Y518648D01*
X461798Y518023D01*
X461172Y517710D01*
X458985D01*
X463419Y473433D02*
X464044Y473121D01*
X464357Y472496D01*
X464044Y471871D01*
X463419Y471558D01*
X461231D01*
Y475308D01*
X463419D01*
X464044Y474996D01*
X464357Y474371D01*
X464044Y473746D01*
X463419Y473433D01*
X461231D01*
X463687Y394059D02*
X464313Y393747D01*
X464625Y393122D01*
X464313Y392497D01*
X463687Y392184D01*
X461500D01*
Y395934D01*
X463687D01*
X464313Y395622D01*
X464625Y394997D01*
X464313Y394372D01*
X463687Y394059D01*
X461500D01*
X466165Y471187D02*
X466790Y470874D01*
X467102Y470250D01*
X466790Y469624D01*
X466165Y469312D01*
X463977D01*
Y473062D01*
X466165D01*
X466790Y472750D01*
X467102Y472124D01*
X466790Y471500D01*
X466165Y471187D01*
X463977D01*
X466187Y336559D02*
X466813Y336247D01*
X467125Y335622D01*
X466813Y334997D01*
X466187Y334684D01*
X464000D01*
Y338434D01*
X466187D01*
X466813Y338122D01*
X467125Y337497D01*
X466813Y336872D01*
X466187Y336559D01*
X464000D01*
X466187Y346559D02*
X466813Y346247D01*
X467125Y345622D01*
X466813Y344997D01*
X466187Y344684D01*
X464000D01*
Y348434D01*
X466187D01*
X466813Y348122D01*
X467125Y347497D01*
X466813Y346872D01*
X466187Y346559D01*
X464000D01*
Y399684D02*
X465563Y403434D01*
X467125Y399684D01*
X464625Y401247D02*
X466500D01*
X464000Y419684D02*
X465563Y423434D01*
X467125Y419684D01*
X464625Y421247D02*
X466500D01*
X466187Y481559D02*
X466813Y481247D01*
X467125Y480622D01*
X466813Y479997D01*
X466187Y479684D01*
X464000D01*
Y483434D01*
X466187D01*
X466813Y483122D01*
X467125Y482497D01*
X466813Y481872D01*
X466187Y481559D01*
X464000D01*
X466187Y496559D02*
X466813Y496247D01*
X467125Y495622D01*
X466813Y494997D01*
X466187Y494684D01*
X464000D01*
Y498434D01*
X466187D01*
X466813Y498122D01*
X467125Y497497D01*
X466813Y496872D01*
X466187Y496559D01*
X464000D01*
X466187Y514059D02*
X466813Y513747D01*
X467125Y513122D01*
X466813Y512497D01*
X466187Y512184D01*
X464000D01*
Y515934D01*
X466187D01*
X466813Y515622D01*
X467125Y514997D01*
X466813Y514372D01*
X466187Y514059D01*
X464000D01*
X466187Y526559D02*
X466813Y526247D01*
X467125Y525622D01*
X466813Y524997D01*
X466187Y524684D01*
X464000D01*
Y528434D01*
X466187D01*
X466813Y528122D01*
X467125Y527497D01*
X466813Y526872D01*
X466187Y526559D01*
X464000D01*
X466187Y540309D02*
X466813Y539997D01*
X467125Y539372D01*
X466813Y538747D01*
X466187Y538434D01*
X464000D01*
Y542184D01*
X466187D01*
X466813Y541872D01*
X467125Y541247D01*
X466813Y540622D01*
X466187Y540309D01*
X464000D01*
X466187Y554059D02*
X466813Y553747D01*
X467125Y553122D01*
X466813Y552497D01*
X466187Y552184D01*
X464000D01*
Y555934D01*
X466187D01*
X466813Y555622D01*
X467125Y554997D01*
X466813Y554372D01*
X466187Y554059D01*
X464000D01*
X466187Y564058D02*
X466813Y563745D01*
X467125Y563120D01*
X466813Y562495D01*
X466187Y562183D01*
X464000D01*
Y565933D01*
X466187D01*
X466813Y565620D01*
X467125Y564995D01*
X466813Y564370D01*
X466187Y564058D01*
X464000D01*
X468411Y475430D02*
X469036Y475118D01*
X469349Y474493D01*
X469036Y473868D01*
X468411Y473555D01*
X466224D01*
Y477305D01*
X468411D01*
X469036Y476993D01*
X469349Y476368D01*
X469036Y475743D01*
X468411Y475430D01*
X466224D01*
X468687Y451559D02*
X469313Y451247D01*
X469625Y450622D01*
X469313Y449997D01*
X468687Y449684D01*
X466500D01*
Y453434D01*
X468687D01*
X469313Y453122D01*
X469625Y452497D01*
X469313Y451872D01*
X468687Y451559D01*
X466500D01*
X468785Y382923D02*
X469411Y382610D01*
X469723Y381985D01*
X469411Y381360D01*
X468785Y381048D01*
X466598D01*
Y384798D01*
X468785D01*
X469411Y384485D01*
X469723Y383860D01*
X469411Y383235D01*
X468785Y382923D01*
X466598D01*
X471032Y477926D02*
X471657Y477614D01*
X471970Y476989D01*
X471657Y476364D01*
X471032Y476051D01*
X468844D01*
Y479801D01*
X471032D01*
X471657Y479489D01*
X471970Y478864D01*
X471657Y478239D01*
X471032Y477926D01*
X468844D01*
X473687Y394059D02*
X474313Y393747D01*
X474625Y393122D01*
X474313Y392497D01*
X473687Y392184D01*
X471500D01*
Y395934D01*
X473687D01*
X474313Y395622D01*
X474625Y394997D01*
X474313Y394372D01*
X473687Y394059D01*
X471500D01*
X473687Y429059D02*
X474313Y428747D01*
X474625Y428122D01*
X474313Y427497D01*
X473687Y427184D01*
X471500D01*
Y430934D01*
X473687D01*
X474313Y430622D01*
X474625Y429997D01*
X474313Y429372D01*
X473687Y429059D01*
X471500D01*
X474000Y399684D02*
X475563Y403434D01*
X477125Y399684D01*
X474625Y401247D02*
X476500D01*
X474000Y419684D02*
X475563Y423434D01*
X477125Y419684D01*
X474625Y421247D02*
X476500D01*
X481187Y336559D02*
X481813Y336247D01*
X482125Y335622D01*
X481813Y334997D01*
X481187Y334684D01*
X479000D01*
Y338434D01*
X481187D01*
X481813Y338122D01*
X482125Y337497D01*
X481813Y336872D01*
X481187Y336559D01*
X479000D01*
X481187Y346559D02*
X481813Y346247D01*
X482125Y345622D01*
X481813Y344997D01*
X481187Y344684D01*
X479000D01*
Y348434D01*
X481187D01*
X481813Y348122D01*
X482125Y347497D01*
X481813Y346872D01*
X481187Y346559D01*
X479000D01*
X481187Y361559D02*
X481813Y361247D01*
X482125Y360622D01*
X481813Y359997D01*
X481187Y359684D01*
X479000D01*
Y363434D01*
X481187D01*
X481813Y363122D01*
X482125Y362497D01*
X481813Y361872D01*
X481187Y361559D01*
X479000D01*
X481187Y376559D02*
X481813Y376247D01*
X482125Y375622D01*
X481813Y374997D01*
X481187Y374684D01*
X479000D01*
Y378434D01*
X481187D01*
X481813Y378122D01*
X482125Y377497D01*
X481813Y376872D01*
X481187Y376559D01*
X479000D01*
X481187Y391559D02*
X481813Y391247D01*
X482125Y390622D01*
X481813Y389997D01*
X481187Y389684D01*
X479000D01*
Y393434D01*
X481187D01*
X481813Y393122D01*
X482125Y392497D01*
X481813Y391872D01*
X481187Y391559D01*
X479000D01*
X481187Y436559D02*
X481813Y436247D01*
X482125Y435622D01*
X481813Y434997D01*
X481187Y434684D01*
X479000D01*
Y438434D01*
X481187D01*
X481813Y438122D01*
X482125Y437497D01*
X481813Y436872D01*
X481187Y436559D01*
X479000D01*
X481187Y451559D02*
X481813Y451247D01*
X482125Y450622D01*
X481813Y449997D01*
X481187Y449684D01*
X479000D01*
Y453434D01*
X481187D01*
X481813Y453122D01*
X482125Y452497D01*
X481813Y451872D01*
X481187Y451559D01*
X479000D01*
X481187Y466559D02*
X481813Y466247D01*
X482125Y465622D01*
X481813Y464997D01*
X481187Y464684D01*
X479000D01*
Y468434D01*
X481187D01*
X481813Y468122D01*
X482125Y467497D01*
X481813Y466872D01*
X481187Y466559D01*
X479000D01*
X481187Y481559D02*
X481813Y481247D01*
X482125Y480622D01*
X481813Y479997D01*
X481187Y479684D01*
X479000D01*
Y483434D01*
X481187D01*
X481813Y483122D01*
X482125Y482497D01*
X481813Y481872D01*
X481187Y481559D01*
X479000D01*
X481187Y496559D02*
X481813Y496247D01*
X482125Y495622D01*
X481813Y494997D01*
X481187Y494684D01*
X479000D01*
Y498434D01*
X481187D01*
X481813Y498122D01*
X482125Y497497D01*
X481813Y496872D01*
X481187Y496559D01*
X479000D01*
X481187Y514059D02*
X481813Y513747D01*
X482125Y513122D01*
X481813Y512497D01*
X481187Y512184D01*
X479000D01*
Y515934D01*
X481187D01*
X481813Y515622D01*
X482125Y514997D01*
X481813Y514372D01*
X481187Y514059D01*
X479000D01*
X481187Y526559D02*
X481813Y526247D01*
X482125Y525622D01*
X481813Y524997D01*
X481187Y524684D01*
X479000D01*
Y528434D01*
X481187D01*
X481813Y528122D01*
X482125Y527497D01*
X481813Y526872D01*
X481187Y526559D01*
X479000D01*
X481187Y540309D02*
X481813Y539997D01*
X482125Y539372D01*
X481813Y538747D01*
X481187Y538434D01*
X479000D01*
Y542184D01*
X481187D01*
X481813Y541872D01*
X482125Y541247D01*
X481813Y540622D01*
X481187Y540309D01*
X479000D01*
X481187Y554059D02*
X481813Y553747D01*
X482125Y553122D01*
X481813Y552497D01*
X481187Y552184D01*
X479000D01*
Y555934D01*
X481187D01*
X481813Y555622D01*
X482125Y554997D01*
X481813Y554372D01*
X481187Y554059D01*
X479000D01*
X481187Y564058D02*
X481813Y563745D01*
X482125Y563120D01*
X481813Y562495D01*
X481187Y562183D01*
X479000D01*
Y565933D01*
X481187D01*
X481813Y565620D01*
X482125Y564995D01*
X481813Y564370D01*
X481187Y564058D01*
X479000D01*
X487317Y508974D02*
X487942Y508661D01*
X488254Y508037D01*
X487942Y507411D01*
X487317Y507099D01*
X485129D01*
Y510849D01*
X487317D01*
X487942Y510537D01*
X488254Y509911D01*
X487942Y509287D01*
X487317Y508974D01*
X485129D01*
X490127Y511220D02*
X490752Y510908D01*
X491065Y510283D01*
X490752Y509658D01*
X490127Y509345D01*
X487939D01*
Y513095D01*
X490127D01*
X490752Y512783D01*
X491065Y512158D01*
X490752Y511533D01*
X490127Y511220D01*
X487939D01*
X492558Y514341D02*
X493183Y514028D01*
X493496Y513403D01*
X493183Y512778D01*
X492558Y512465D01*
X490371D01*
Y516215D01*
X492558D01*
X493183Y515903D01*
X493496Y515278D01*
X493183Y514653D01*
X492558Y514341D01*
X490371D01*
X496187Y336559D02*
X496813Y336247D01*
X497125Y335622D01*
X496813Y334997D01*
X496187Y334684D01*
X494000D01*
Y338434D01*
X496187D01*
X496813Y338122D01*
X497125Y337497D01*
X496813Y336872D01*
X496187Y336559D01*
X494000D01*
X496187Y346559D02*
X496813Y346247D01*
X497125Y345622D01*
X496813Y344997D01*
X496187Y344684D01*
X494000D01*
Y348434D01*
X496187D01*
X496813Y348122D01*
X497125Y347497D01*
X496813Y346872D01*
X496187Y346559D01*
X494000D01*
X496187Y361559D02*
X496813Y361247D01*
X497125Y360622D01*
X496813Y359997D01*
X496187Y359684D01*
X494000D01*
Y363434D01*
X496187D01*
X496813Y363122D01*
X497125Y362497D01*
X496813Y361872D01*
X496187Y361559D01*
X494000D01*
X496187Y376559D02*
X496813Y376247D01*
X497125Y375622D01*
X496813Y374997D01*
X496187Y374684D01*
X494000D01*
Y378434D01*
X496187D01*
X496813Y378122D01*
X497125Y377497D01*
X496813Y376872D01*
X496187Y376559D01*
X494000D01*
X496187Y391559D02*
X496813Y391247D01*
X497125Y390622D01*
X496813Y389997D01*
X496187Y389684D01*
X494000D01*
Y393434D01*
X496187D01*
X496813Y393122D01*
X497125Y392497D01*
X496813Y391872D01*
X496187Y391559D01*
X494000D01*
X496187Y406559D02*
X496813Y406247D01*
X497125Y405622D01*
X496813Y404997D01*
X496187Y404684D01*
X494000D01*
Y408434D01*
X496187D01*
X496813Y408122D01*
X497125Y407497D01*
X496813Y406872D01*
X496187Y406559D01*
X494000D01*
X496187Y421559D02*
X496813Y421247D01*
X497125Y420622D01*
X496813Y419997D01*
X496187Y419684D01*
X494000D01*
Y423434D01*
X496187D01*
X496813Y423122D01*
X497125Y422497D01*
X496813Y421872D01*
X496187Y421559D01*
X494000D01*
X496187Y436559D02*
X496813Y436247D01*
X497125Y435622D01*
X496813Y434997D01*
X496187Y434684D01*
X494000D01*
Y438434D01*
X496187D01*
X496813Y438122D01*
X497125Y437497D01*
X496813Y436872D01*
X496187Y436559D01*
X494000D01*
X496187Y451559D02*
X496813Y451247D01*
X497125Y450622D01*
X496813Y449997D01*
X496187Y449684D01*
X494000D01*
Y453434D01*
X496187D01*
X496813Y453122D01*
X497125Y452497D01*
X496813Y451872D01*
X496187Y451559D01*
X494000D01*
X496187Y466559D02*
X496813Y466247D01*
X497125Y465622D01*
X496813Y464997D01*
X496187Y464684D01*
X494000D01*
Y468434D01*
X496187D01*
X496813Y468122D01*
X497125Y467497D01*
X496813Y466872D01*
X496187Y466559D01*
X494000D01*
X496187Y481559D02*
X496813Y481247D01*
X497125Y480622D01*
X496813Y479997D01*
X496187Y479684D01*
X494000D01*
Y483434D01*
X496187D01*
X496813Y483122D01*
X497125Y482497D01*
X496813Y481872D01*
X496187Y481559D01*
X494000D01*
X496187Y496559D02*
X496813Y496247D01*
X497125Y495622D01*
X496813Y494997D01*
X496187Y494684D01*
X494000D01*
Y498434D01*
X496187D01*
X496813Y498122D01*
X497125Y497497D01*
X496813Y496872D01*
X496187Y496559D01*
X494000D01*
X496187Y511559D02*
X496813Y511247D01*
X497125Y510622D01*
X496813Y509997D01*
X496187Y509684D01*
X494000D01*
Y513434D01*
X496187D01*
X496813Y513122D01*
X497125Y512497D01*
X496813Y511872D01*
X496187Y511559D01*
X494000D01*
X496187Y526559D02*
X496813Y526247D01*
X497125Y525622D01*
X496813Y524997D01*
X496187Y524684D01*
X494000D01*
Y528434D01*
X496187D01*
X496813Y528122D01*
X497125Y527497D01*
X496813Y526872D01*
X496187Y526559D01*
X494000D01*
X496187Y540309D02*
X496813Y539997D01*
X497125Y539372D01*
X496813Y538747D01*
X496187Y538434D01*
X494000D01*
Y542184D01*
X496187D01*
X496813Y541872D01*
X497125Y541247D01*
X496813Y540622D01*
X496187Y540309D01*
X494000D01*
X496187Y554059D02*
X496813Y553747D01*
X497125Y553122D01*
X496813Y552497D01*
X496187Y552184D01*
X494000D01*
Y555934D01*
X496187D01*
X496813Y555622D01*
X497125Y554997D01*
X496813Y554372D01*
X496187Y554059D01*
X494000D01*
X496187Y564058D02*
X496813Y563745D01*
X497125Y563120D01*
X496813Y562495D01*
X496187Y562183D01*
X494000D01*
Y565933D01*
X496187D01*
X496813Y565620D01*
X497125Y564995D01*
X496813Y564370D01*
X496187Y564058D01*
X494000D01*
X507760Y409684D02*
X509322Y413434D01*
X510885Y409684D01*
X508385Y411247D02*
X510260D01*
X512760Y409684D02*
Y413434D01*
X514635D01*
X515260Y413122D01*
X515572Y412809D01*
X515885Y412184D01*
Y410934D01*
X515572Y410309D01*
X515260Y409997D01*
X514635Y409684D01*
X512760D01*
X511187Y336559D02*
X511813Y336247D01*
X512125Y335622D01*
X511813Y334997D01*
X511187Y334684D01*
X509000D01*
Y338434D01*
X511187D01*
X511813Y338122D01*
X512125Y337497D01*
X511813Y336872D01*
X511187Y336559D01*
X509000D01*
X511187Y376559D02*
X511813Y376247D01*
X512125Y375622D01*
X511813Y374997D01*
X511187Y374684D01*
X509000D01*
Y378434D01*
X511187D01*
X511813Y378122D01*
X512125Y377497D01*
X511813Y376872D01*
X511187Y376559D01*
X509000D01*
X511187Y391559D02*
X511813Y391247D01*
X512125Y390622D01*
X511813Y389997D01*
X511187Y389684D01*
X509000D01*
Y393434D01*
X511187D01*
X511813Y393122D01*
X512125Y392497D01*
X511813Y391872D01*
X511187Y391559D01*
X509000D01*
X511187Y436559D02*
X511813Y436247D01*
X512125Y435622D01*
X511813Y434997D01*
X511187Y434684D01*
X509000D01*
Y438434D01*
X511187D01*
X511813Y438122D01*
X512125Y437497D01*
X511813Y436872D01*
X511187Y436559D01*
X509000D01*
X511187Y451559D02*
X511813Y451247D01*
X512125Y450622D01*
X511813Y449997D01*
X511187Y449684D01*
X509000D01*
Y453434D01*
X511187D01*
X511813Y453122D01*
X512125Y452497D01*
X511813Y451872D01*
X511187Y451559D01*
X509000D01*
X511187Y466559D02*
X511813Y466247D01*
X512125Y465622D01*
X511813Y464997D01*
X511187Y464684D01*
X509000D01*
Y468434D01*
X511187D01*
X511813Y468122D01*
X512125Y467497D01*
X511813Y466872D01*
X511187Y466559D01*
X509000D01*
X511187Y481559D02*
X511813Y481247D01*
X512125Y480622D01*
X511813Y479997D01*
X511187Y479684D01*
X509000D01*
Y483434D01*
X511187D01*
X511813Y483122D01*
X512125Y482497D01*
X511813Y481872D01*
X511187Y481559D01*
X509000D01*
X511187Y496559D02*
X511813Y496247D01*
X512125Y495622D01*
X511813Y494997D01*
X511187Y494684D01*
X509000D01*
Y498434D01*
X511187D01*
X511813Y498122D01*
X512125Y497497D01*
X511813Y496872D01*
X511187Y496559D01*
X509000D01*
X511187Y511559D02*
X511813Y511247D01*
X512125Y510622D01*
X511813Y509997D01*
X511187Y509684D01*
X509000D01*
Y513434D01*
X511187D01*
X511813Y513122D01*
X512125Y512497D01*
X511813Y511872D01*
X511187Y511559D01*
X509000D01*
X511187Y526559D02*
X511813Y526247D01*
X512125Y525622D01*
X511813Y524997D01*
X511187Y524684D01*
X509000D01*
Y528434D01*
X511187D01*
X511813Y528122D01*
X512125Y527497D01*
X511813Y526872D01*
X511187Y526559D01*
X509000D01*
X511187Y540309D02*
X511813Y539997D01*
X512125Y539372D01*
X511813Y538747D01*
X511187Y538434D01*
X509000D01*
Y542184D01*
X511187D01*
X511813Y541872D01*
X512125Y541247D01*
X511813Y540622D01*
X511187Y540309D01*
X509000D01*
X511187Y554059D02*
X511813Y553747D01*
X512125Y553122D01*
X511813Y552497D01*
X511187Y552184D01*
X509000D01*
Y555934D01*
X511187D01*
X511813Y555622D01*
X512125Y554997D01*
X511813Y554372D01*
X511187Y554059D01*
X509000D01*
X511187Y564058D02*
X511813Y563745D01*
X512125Y563120D01*
X511813Y562495D01*
X511187Y562183D01*
X509000D01*
Y565933D01*
X511187D01*
X511813Y565620D01*
X512125Y564995D01*
X511813Y564370D01*
X511187Y564058D01*
X509000D01*
X526187Y336559D02*
X526813Y336247D01*
X527125Y335622D01*
X526813Y334997D01*
X526187Y334684D01*
X524000D01*
Y338434D01*
X526187D01*
X526813Y338122D01*
X527125Y337497D01*
X526813Y336872D01*
X526187Y336559D01*
X524000D01*
X526187Y376559D02*
X526813Y376247D01*
X527125Y375622D01*
X526813Y374997D01*
X526187Y374684D01*
X524000D01*
Y378434D01*
X526187D01*
X526813Y378122D01*
X527125Y377497D01*
X526813Y376872D01*
X526187Y376559D01*
X524000D01*
X526187Y391559D02*
X526813Y391247D01*
X527125Y390622D01*
X526813Y389997D01*
X526187Y389684D01*
X524000D01*
Y393434D01*
X526187D01*
X526813Y393122D01*
X527125Y392497D01*
X526813Y391872D01*
X526187Y391559D01*
X524000D01*
X526187Y406559D02*
X526813Y406247D01*
X527125Y405622D01*
X526813Y404997D01*
X526187Y404684D01*
X524000D01*
Y408434D01*
X526187D01*
X526813Y408122D01*
X527125Y407497D01*
X526813Y406872D01*
X526187Y406559D01*
X524000D01*
X526187Y421559D02*
X526813Y421247D01*
X527125Y420622D01*
X526813Y419997D01*
X526187Y419684D01*
X524000D01*
Y423434D01*
X526187D01*
X526813Y423122D01*
X527125Y422497D01*
X526813Y421872D01*
X526187Y421559D01*
X524000D01*
X526187Y436559D02*
X526813Y436247D01*
X527125Y435622D01*
X526813Y434997D01*
X526187Y434684D01*
X524000D01*
Y438434D01*
X526187D01*
X526813Y438122D01*
X527125Y437497D01*
X526813Y436872D01*
X526187Y436559D01*
X524000D01*
X526187Y451559D02*
X526813Y451247D01*
X527125Y450622D01*
X526813Y449997D01*
X526187Y449684D01*
X524000D01*
Y453434D01*
X526187D01*
X526813Y453122D01*
X527125Y452497D01*
X526813Y451872D01*
X526187Y451559D01*
X524000D01*
X526187Y466559D02*
X526813Y466247D01*
X527125Y465622D01*
X526813Y464997D01*
X526187Y464684D01*
X524000D01*
Y468434D01*
X526187D01*
X526813Y468122D01*
X527125Y467497D01*
X526813Y466872D01*
X526187Y466559D01*
X524000D01*
X526187Y481559D02*
X526813Y481247D01*
X527125Y480622D01*
X526813Y479997D01*
X526187Y479684D01*
X524000D01*
Y483434D01*
X526187D01*
X526813Y483122D01*
X527125Y482497D01*
X526813Y481872D01*
X526187Y481559D01*
X524000D01*
X526187Y496559D02*
X526813Y496247D01*
X527125Y495622D01*
X526813Y494997D01*
X526187Y494684D01*
X524000D01*
Y498434D01*
X526187D01*
X526813Y498122D01*
X527125Y497497D01*
X526813Y496872D01*
X526187Y496559D01*
X524000D01*
X526187Y511559D02*
X526813Y511247D01*
X527125Y510622D01*
X526813Y509997D01*
X526187Y509684D01*
X524000D01*
Y513434D01*
X526187D01*
X526813Y513122D01*
X527125Y512497D01*
X526813Y511872D01*
X526187Y511559D01*
X524000D01*
X526187Y526559D02*
X526813Y526247D01*
X527125Y525622D01*
X526813Y524997D01*
X526187Y524684D01*
X524000D01*
Y528434D01*
X526187D01*
X526813Y528122D01*
X527125Y527497D01*
X526813Y526872D01*
X526187Y526559D01*
X524000D01*
X526187Y540309D02*
X526813Y539997D01*
X527125Y539372D01*
X526813Y538747D01*
X526187Y538434D01*
X524000D01*
Y542184D01*
X526187D01*
X526813Y541872D01*
X527125Y541247D01*
X526813Y540622D01*
X526187Y540309D01*
X524000D01*
X526187Y554059D02*
X526813Y553747D01*
X527125Y553122D01*
X526813Y552497D01*
X526187Y552184D01*
X524000D01*
Y555934D01*
X526187D01*
X526813Y555622D01*
X527125Y554997D01*
X526813Y554372D01*
X526187Y554059D01*
X524000D01*
X526187Y564058D02*
X526813Y563745D01*
X527125Y563120D01*
X526813Y562495D01*
X526187Y562183D01*
X524000D01*
Y565933D01*
X526187D01*
X526813Y565620D01*
X527125Y564995D01*
X526813Y564370D01*
X526187Y564058D01*
X524000D01*
X541187Y336559D02*
X541813Y336247D01*
X542125Y335622D01*
X541813Y334997D01*
X541187Y334684D01*
X539000D01*
Y338434D01*
X541187D01*
X541813Y338122D01*
X542125Y337497D01*
X541813Y336872D01*
X541187Y336559D01*
X539000D01*
X541187Y346559D02*
X541813Y346247D01*
X542125Y345622D01*
X541813Y344997D01*
X541187Y344684D01*
X539000D01*
Y348434D01*
X541187D01*
X541813Y348122D01*
X542125Y347497D01*
X541813Y346872D01*
X541187Y346559D01*
X539000D01*
X541187Y361559D02*
X541813Y361247D01*
X542125Y360622D01*
X541813Y359997D01*
X541187Y359684D01*
X539000D01*
Y363434D01*
X541187D01*
X541813Y363122D01*
X542125Y362497D01*
X541813Y361872D01*
X541187Y361559D01*
X539000D01*
X541187Y376559D02*
X541813Y376247D01*
X542125Y375622D01*
X541813Y374997D01*
X541187Y374684D01*
X539000D01*
Y378434D01*
X541187D01*
X541813Y378122D01*
X542125Y377497D01*
X541813Y376872D01*
X541187Y376559D01*
X539000D01*
X541187Y391559D02*
X541813Y391247D01*
X542125Y390622D01*
X541813Y389997D01*
X541187Y389684D01*
X539000D01*
Y393434D01*
X541187D01*
X541813Y393122D01*
X542125Y392497D01*
X541813Y391872D01*
X541187Y391559D01*
X539000D01*
X541187Y406559D02*
X541813Y406247D01*
X542125Y405622D01*
X541813Y404997D01*
X541187Y404684D01*
X539000D01*
Y408434D01*
X541187D01*
X541813Y408122D01*
X542125Y407497D01*
X541813Y406872D01*
X541187Y406559D01*
X539000D01*
X541187Y421559D02*
X541813Y421247D01*
X542125Y420622D01*
X541813Y419997D01*
X541187Y419684D01*
X539000D01*
Y423434D01*
X541187D01*
X541813Y423122D01*
X542125Y422497D01*
X541813Y421872D01*
X541187Y421559D01*
X539000D01*
X541187Y436559D02*
X541813Y436247D01*
X542125Y435622D01*
X541813Y434997D01*
X541187Y434684D01*
X539000D01*
Y438434D01*
X541187D01*
X541813Y438122D01*
X542125Y437497D01*
X541813Y436872D01*
X541187Y436559D01*
X539000D01*
X541187Y451559D02*
X541813Y451247D01*
X542125Y450622D01*
X541813Y449997D01*
X541187Y449684D01*
X539000D01*
Y453434D01*
X541187D01*
X541813Y453122D01*
X542125Y452497D01*
X541813Y451872D01*
X541187Y451559D01*
X539000D01*
X541187Y466559D02*
X541813Y466247D01*
X542125Y465622D01*
X541813Y464997D01*
X541187Y464684D01*
X539000D01*
Y468434D01*
X541187D01*
X541813Y468122D01*
X542125Y467497D01*
X541813Y466872D01*
X541187Y466559D01*
X539000D01*
X541187Y481559D02*
X541813Y481247D01*
X542125Y480622D01*
X541813Y479997D01*
X541187Y479684D01*
X539000D01*
Y483434D01*
X541187D01*
X541813Y483122D01*
X542125Y482497D01*
X541813Y481872D01*
X541187Y481559D01*
X539000D01*
X541187Y496559D02*
X541813Y496247D01*
X542125Y495622D01*
X541813Y494997D01*
X541187Y494684D01*
X539000D01*
Y498434D01*
X541187D01*
X541813Y498122D01*
X542125Y497497D01*
X541813Y496872D01*
X541187Y496559D01*
X539000D01*
X541187Y511559D02*
X541813Y511247D01*
X542125Y510622D01*
X541813Y509997D01*
X541187Y509684D01*
X539000D01*
Y513434D01*
X541187D01*
X541813Y513122D01*
X542125Y512497D01*
X541813Y511872D01*
X541187Y511559D01*
X539000D01*
X541187Y526559D02*
X541813Y526247D01*
X542125Y525622D01*
X541813Y524997D01*
X541187Y524684D01*
X539000D01*
Y528434D01*
X541187D01*
X541813Y528122D01*
X542125Y527497D01*
X541813Y526872D01*
X541187Y526559D01*
X539000D01*
X541187Y540309D02*
X541813Y539997D01*
X542125Y539372D01*
X541813Y538747D01*
X541187Y538434D01*
X539000D01*
Y542184D01*
X541187D01*
X541813Y541872D01*
X542125Y541247D01*
X541813Y540622D01*
X541187Y540309D01*
X539000D01*
X541187Y554059D02*
X541813Y553747D01*
X542125Y553122D01*
X541813Y552497D01*
X541187Y552184D01*
X539000D01*
Y555934D01*
X541187D01*
X541813Y555622D01*
X542125Y554997D01*
X541813Y554372D01*
X541187Y554059D01*
X539000D01*
X541187Y564058D02*
X541813Y563745D01*
X542125Y563120D01*
X541813Y562495D01*
X541187Y562183D01*
X539000D01*
Y565933D01*
X541187D01*
X541813Y565620D01*
X542125Y564995D01*
X541813Y564370D01*
X541187Y564058D01*
X539000D01*
X548578Y324025D02*
X100035D01*
G75*
G02*
X86203Y337857I0J13833D01*
G01*
Y546344D01*
G75*
G02*
X100035Y560176I13833J0D01*
G01*
X548578D01*
G75*
G02*
X562425Y546329I0J-13847D01*
G01*
Y337872D01*
G75*
G02*
X548578Y324025I-13847J0D01*
G01*
X556187Y361559D02*
X556813Y361247D01*
X557125Y360622D01*
X556813Y359997D01*
X556187Y359684D01*
X554000D01*
Y363434D01*
X556187D01*
X556813Y363122D01*
X557125Y362497D01*
X556813Y361872D01*
X556187Y361559D01*
X554000D01*
X556187Y376559D02*
X556813Y376247D01*
X557125Y375622D01*
X556813Y374997D01*
X556187Y374684D01*
X554000D01*
Y378434D01*
X556187D01*
X556813Y378122D01*
X557125Y377497D01*
X556813Y376872D01*
X556187Y376559D01*
X554000D01*
X556187Y391559D02*
X556813Y391247D01*
X557125Y390622D01*
X556813Y389997D01*
X556187Y389684D01*
X554000D01*
Y393434D01*
X556187D01*
X556813Y393122D01*
X557125Y392497D01*
X556813Y391872D01*
X556187Y391559D01*
X554000D01*
X556187Y406559D02*
X556813Y406247D01*
X557125Y405622D01*
X556813Y404997D01*
X556187Y404684D01*
X554000D01*
Y408434D01*
X556187D01*
X556813Y408122D01*
X557125Y407497D01*
X556813Y406872D01*
X556187Y406559D01*
X554000D01*
X556187Y421559D02*
X556813Y421247D01*
X557125Y420622D01*
X556813Y419997D01*
X556187Y419684D01*
X554000D01*
Y423434D01*
X556187D01*
X556813Y423122D01*
X557125Y422497D01*
X556813Y421872D01*
X556187Y421559D01*
X554000D01*
X556187Y436559D02*
X556813Y436247D01*
X557125Y435622D01*
X556813Y434997D01*
X556187Y434684D01*
X554000D01*
Y438434D01*
X556187D01*
X556813Y438122D01*
X557125Y437497D01*
X556813Y436872D01*
X556187Y436559D01*
X554000D01*
X556187Y451559D02*
X556813Y451247D01*
X557125Y450622D01*
X556813Y449997D01*
X556187Y449684D01*
X554000D01*
Y453434D01*
X556187D01*
X556813Y453122D01*
X557125Y452497D01*
X556813Y451872D01*
X556187Y451559D01*
X554000D01*
X556187Y466559D02*
X556813Y466247D01*
X557125Y465622D01*
X556813Y464997D01*
X556187Y464684D01*
X554000D01*
Y468434D01*
X556187D01*
X556813Y468122D01*
X557125Y467497D01*
X556813Y466872D01*
X556187Y466559D01*
X554000D01*
X556187Y539059D02*
X556813Y538747D01*
X557125Y538122D01*
X556813Y537497D01*
X556187Y537184D01*
X554000D01*
Y540934D01*
X556187D01*
X556813Y540622D01*
X557125Y539997D01*
X556813Y539372D01*
X556187Y539059D01*
X554000D01*
X558803Y347492D02*
Y344680D01*
X559116Y344054D01*
X559741Y343742D01*
X560991D01*
X561616Y344054D01*
X561928Y344680D01*
Y347492D01*
X558803Y556153D02*
Y553341D01*
X559116Y552716D01*
X559741Y552403D01*
X560991D01*
X561616Y552716D01*
X561928Y553341D01*
Y556153D01*
X569662Y391559D02*
X570287Y391247D01*
X570600Y390622D01*
X570287Y389997D01*
X569662Y389684D01*
X567474D01*
Y393434D01*
X569662D01*
X570287Y393122D01*
X570600Y392497D01*
X570287Y391872D01*
X569662Y391559D01*
X567474D01*
X569662Y406559D02*
X570287Y406247D01*
X570600Y405622D01*
X570287Y404997D01*
X569662Y404684D01*
X567474D01*
Y408434D01*
X569662D01*
X570287Y408122D01*
X570600Y407497D01*
X570287Y406872D01*
X569662Y406559D01*
X567474D01*
X569662Y466559D02*
X570287Y466247D01*
X570600Y465622D01*
X570287Y464997D01*
X569662Y464684D01*
X567474D01*
Y468434D01*
X569662D01*
X570287Y468122D01*
X570600Y467497D01*
X570287Y466872D01*
X569662Y466559D01*
X567474D01*
X569662Y506559D02*
X570287Y506247D01*
X570600Y505622D01*
X570287Y504997D01*
X569662Y504684D01*
X567474D01*
Y508434D01*
X569662D01*
X570287Y508122D01*
X570600Y507497D01*
X570287Y506872D01*
X569662Y506559D01*
X567474D01*
X569937Y361559D02*
X570563Y361247D01*
X570875Y360622D01*
X570563Y359997D01*
X569937Y359684D01*
X567750D01*
Y363434D01*
X569937D01*
X570563Y363122D01*
X570875Y362497D01*
X570563Y361872D01*
X569937Y361559D01*
X567750D01*
X569937Y376559D02*
X570563Y376247D01*
X570875Y375622D01*
X570563Y374997D01*
X569937Y374684D01*
X567750D01*
Y378434D01*
X569937D01*
X570563Y378122D01*
X570875Y377497D01*
X570563Y376872D01*
X569937Y376559D01*
X567750D01*
X569937Y421559D02*
X570563Y421247D01*
X570875Y420622D01*
X570563Y419997D01*
X569937Y419684D01*
X567750D01*
Y423434D01*
X569937D01*
X570563Y423122D01*
X570875Y422497D01*
X570563Y421872D01*
X569937Y421559D01*
X567750D01*
X569937Y436559D02*
X570563Y436247D01*
X570875Y435622D01*
X570563Y434997D01*
X569937Y434684D01*
X567750D01*
Y438434D01*
X569937D01*
X570563Y438122D01*
X570875Y437497D01*
X570563Y436872D01*
X569937Y436559D01*
X567750D01*
X569937Y451559D02*
X570563Y451247D01*
X570875Y450622D01*
X570563Y449997D01*
X569937Y449684D01*
X567750D01*
Y453434D01*
X569937D01*
X570563Y453122D01*
X570875Y452497D01*
X570563Y451872D01*
X569937Y451559D01*
X567750D01*
X569937Y539059D02*
X570563Y538747D01*
X570875Y538122D01*
X570563Y537497D01*
X569937Y537184D01*
X567750D01*
Y540934D01*
X569937D01*
X570563Y540622D01*
X570875Y539997D01*
X570563Y539372D01*
X569937Y539059D01*
X567750D01*
D02*
D23*
X90821Y447379D03*
Y481394D03*
X91205Y353747D03*
Y398747D03*
X91608Y447379D03*
Y481394D03*
X92396Y447379D03*
Y481394D03*
X92986Y447379D03*
Y481394D03*
X93577Y447379D03*
Y481394D03*
X94000Y457768D03*
Y470268D03*
Y498747D03*
Y513747D03*
X94364Y447379D03*
Y481394D03*
X95152Y447379D03*
Y481394D03*
X99984Y337804D03*
Y546466D03*
X104000Y353747D03*
Y457768D03*
Y470268D03*
X107278Y447379D03*
Y481394D03*
X107474Y453009D03*
Y475765D03*
X108065Y447379D03*
Y481394D03*
X108852Y447379D03*
Y481394D03*
X109000Y498747D03*
Y513747D03*
Y529997D03*
X109443Y447379D03*
Y481394D03*
X109925Y493196D03*
Y524298D03*
X110033Y447379D03*
Y481394D03*
X110250Y368747D03*
Y383747D03*
Y398747D03*
Y413747D03*
Y428747D03*
X110833Y447379D03*
Y481394D03*
X111608Y447379D03*
Y481394D03*
X116500Y328747D03*
Y338747D03*
Y529997D03*
Y543747D03*
Y556247D03*
X116509Y454938D03*
Y473330D03*
Y477823D03*
X120250Y473455D03*
X121502Y453869D03*
X122250Y462605D03*
X124000Y328747D03*
Y338747D03*
Y349997D03*
Y368747D03*
Y383747D03*
Y398747D03*
Y413747D03*
Y428747D03*
Y443747D03*
X126500Y543747D03*
Y556247D03*
X133982Y469719D03*
X134000Y476457D03*
X134107Y450000D03*
Y455991D03*
Y464976D03*
X137750Y512684D03*
Y520558D03*
X139000Y328747D03*
Y338747D03*
Y349997D03*
Y368747D03*
Y383747D03*
Y398747D03*
Y413747D03*
Y428747D03*
Y443747D03*
Y473747D03*
Y543747D03*
Y556247D03*
X142718Y465226D03*
X142843Y455991D03*
X147750Y482497D03*
X149000Y531247D03*
X150206Y484997D03*
X153950Y518747D03*
X153993Y473747D03*
X154000Y328747D03*
Y338747D03*
Y368747D03*
Y383747D03*
Y398747D03*
Y413747D03*
Y428747D03*
Y443747D03*
Y543747D03*
Y556247D03*
X155698Y355641D03*
X158443D03*
X159000Y455991D03*
Y465268D03*
X160250Y529991D03*
X164344Y504531D03*
Y509898D03*
X169000Y328747D03*
Y368747D03*
Y383747D03*
Y398747D03*
Y413747D03*
Y428747D03*
Y457363D03*
Y464018D03*
Y473747D03*
Y543747D03*
Y556247D03*
X169052Y518759D03*
X172750Y354517D03*
X173830Y529991D03*
X175292Y510022D03*
X178911Y513747D03*
X179000Y457363D03*
Y463853D03*
X181781Y444875D03*
Y482497D03*
X183315Y530116D03*
X183903Y500787D03*
X184000Y328747D03*
Y338747D03*
Y353747D03*
Y368747D03*
Y383747D03*
Y428747D03*
Y518747D03*
Y546247D03*
Y556247D03*
X184153Y510147D03*
X184278Y447371D03*
Y484997D03*
X188895Y457363D03*
Y463853D03*
X189000Y473747D03*
X189644Y442492D03*
X190240Y403747D03*
X192750Y439997D03*
X193798Y504440D03*
X196500Y489997D03*
Y493747D03*
X198541Y526372D03*
X199000Y328747D03*
Y338747D03*
Y353747D03*
Y368747D03*
Y383747D03*
Y428747D03*
Y518759D03*
Y546247D03*
Y556247D03*
X199753Y503747D03*
X202750Y489872D03*
Y493747D03*
X209238Y457239D03*
Y464477D03*
X211500Y383747D03*
Y413747D03*
X213981Y503747D03*
X214000Y328747D03*
Y338747D03*
Y353747D03*
Y368747D03*
Y473747D03*
Y488681D03*
Y518759D03*
Y529997D03*
Y546247D03*
Y556247D03*
X217101Y469461D03*
X218474Y479945D03*
X218598Y460608D03*
X219222Y489180D03*
X224000Y393747D03*
Y413747D03*
X224215Y495670D03*
X224589Y468588D03*
X225587Y478822D03*
X226500Y487308D03*
X229000Y328747D03*
Y338747D03*
Y353747D03*
Y368747D03*
Y458747D03*
Y473747D03*
Y503747D03*
Y518759D03*
Y529997D03*
Y546247D03*
Y556247D03*
X234000Y393747D03*
Y413747D03*
Y492924D03*
Y499414D03*
X236500Y368747D03*
X241500Y376109D03*
X244000Y328747D03*
Y338747D03*
Y393747D03*
Y413747D03*
Y458747D03*
Y473747D03*
Y488747D03*
Y492924D03*
Y499414D03*
Y503747D03*
Y512497D03*
Y546247D03*
Y556247D03*
X246500Y376109D03*
X254000Y393747D03*
Y413747D03*
Y492924D03*
Y499414D03*
X259000Y328747D03*
Y338747D03*
Y368747D03*
Y383747D03*
Y398747D03*
Y408747D03*
Y428747D03*
Y441247D03*
Y458747D03*
Y473747D03*
Y488747D03*
Y503747D03*
Y512497D03*
Y531247D03*
Y546247D03*
Y556245D03*
X264000Y393747D03*
Y413747D03*
X265250Y492924D03*
Y499414D03*
X270766Y517011D03*
X270891Y464844D03*
X274000Y328747D03*
Y338747D03*
Y393747D03*
Y413747D03*
Y533747D03*
Y546247D03*
Y556245D03*
X274011Y528493D03*
X276382Y428747D03*
X276632Y530989D03*
X279378Y533361D03*
X282248Y535732D03*
X284000Y393747D03*
Y413747D03*
X285250Y492924D03*
Y499414D03*
Y512497D03*
X285912Y467714D03*
X287490Y537604D03*
X289000Y328747D03*
Y338747D03*
Y488747D03*
Y546247D03*
Y556245D03*
X290235Y539850D03*
X291483Y479446D03*
X293106Y542097D03*
X294000Y393747D03*
Y413747D03*
Y441247D03*
Y458747D03*
Y492924D03*
Y499414D03*
Y512497D03*
X295976Y544343D03*
X296725Y485561D03*
Y490304D03*
X299881Y487932D03*
X304000Y328747D03*
Y338747D03*
Y393747D03*
Y413747D03*
Y492924D03*
Y526247D03*
Y534997D03*
Y546247D03*
Y556245D03*
X306959Y500662D03*
X307708Y509190D03*
X309000Y428747D03*
Y441247D03*
Y458747D03*
Y473747D03*
X310578Y483939D03*
X310703Y491801D03*
X314000Y393747D03*
Y413747D03*
Y433019D03*
X314572Y500662D03*
X316500Y428747D03*
X319000Y328747D03*
Y338747D03*
Y401247D03*
Y526247D03*
Y534997D03*
Y546247D03*
Y556245D03*
X319065Y435390D03*
X320313Y512893D03*
X321500Y428747D03*
X323433Y512893D03*
X324000Y393747D03*
Y413747D03*
Y437637D03*
Y441247D03*
Y458747D03*
Y473747D03*
X325929Y524250D03*
X326500Y378747D03*
X327926Y439883D03*
X328449Y502407D03*
X328924Y492959D03*
X329000Y401247D03*
X331420Y490054D03*
Y495420D03*
X331500Y375110D03*
X332669Y498790D03*
Y502160D03*
X334000Y328747D03*
Y338747D03*
Y393747D03*
Y413747D03*
Y546247D03*
Y556245D03*
X334665Y457106D03*
X336787Y439883D03*
X339000Y428747D03*
Y503747D03*
X339033Y484188D03*
X339657Y437637D03*
X340250Y493747D03*
X341911Y527869D03*
X343213Y456981D03*
Y478194D03*
Y509296D03*
X344000Y393747D03*
Y413747D03*
Y430648D03*
Y489997D03*
Y497497D03*
X344026Y435390D03*
X345648Y484188D03*
X346016Y527869D03*
X346147Y503747D03*
X346500Y423747D03*
X346896Y433019D03*
X347750Y493747D03*
X349000Y328747D03*
Y338747D03*
Y401247D03*
Y546247D03*
Y556245D03*
X349018Y428152D03*
X349517Y435390D03*
X351500Y423747D03*
X351888Y437886D03*
X352013Y456981D03*
X354000Y393747D03*
Y413747D03*
Y503747D03*
X354010Y433019D03*
X354259Y484188D03*
Y495545D03*
X356756Y440257D03*
X359000Y401247D03*
X359127Y442754D03*
X359376Y496107D03*
Y527370D03*
X360125Y435390D03*
X361498Y445250D03*
X361500Y371247D03*
X364000Y328747D03*
Y338747D03*
Y393747D03*
Y413747D03*
Y437886D03*
Y458747D03*
Y473747D03*
Y513747D03*
Y546247D03*
Y556245D03*
X366365Y433019D03*
X366500Y386247D03*
X368986Y428152D03*
Y518135D03*
X369000Y423747D03*
X371500Y371247D03*
X371607Y430648D03*
X372855Y509898D03*
X372980Y504906D03*
X374000Y393747D03*
Y413747D03*
Y445250D03*
X375975Y512144D03*
X375979Y502659D03*
X376474Y426280D03*
X376500Y386247D03*
X377847Y499289D03*
X378346Y507152D03*
X379000Y328747D03*
Y338747D03*
Y401247D03*
Y458747D03*
Y473747D03*
Y528747D03*
Y546247D03*
Y556245D03*
X379095Y442754D03*
X381092Y480694D03*
Y489804D03*
X381500Y371247D03*
X384000Y393747D03*
Y413747D03*
Y440257D03*
X386459Y426280D03*
X386500Y386247D03*
X389000Y401247D03*
X390702Y465621D03*
Y470114D03*
X393448Y495670D03*
X394000Y328747D03*
Y338747D03*
Y371247D03*
Y393747D03*
Y413747D03*
Y443747D03*
Y458747D03*
Y473747D03*
Y518747D03*
Y528747D03*
Y546247D03*
Y556245D03*
X395250Y463374D03*
Y467867D03*
X401185Y428747D03*
X401435Y483814D03*
X401500Y386247D03*
X401560Y507402D03*
X404000Y393747D03*
Y413747D03*
Y433768D03*
X404181Y492300D03*
X406500Y371247D03*
X409000Y328747D03*
Y338747D03*
Y401247D03*
Y443747D03*
Y458747D03*
Y473747D03*
Y488747D03*
Y498747D03*
Y506247D03*
Y518747D03*
Y528747D03*
Y546247D03*
Y556245D03*
X409048Y431247D03*
X411500Y386247D03*
X414000Y393747D03*
Y413747D03*
X416500Y371247D03*
X419000Y401247D03*
X421500Y506247D03*
X424000Y328747D03*
Y338747D03*
Y386247D03*
Y393747D03*
Y413747D03*
Y443747D03*
Y458747D03*
Y473747D03*
Y488747D03*
Y498747D03*
Y518747D03*
Y546247D03*
Y556245D03*
X424524Y522497D03*
X424773Y515514D03*
X427020Y526247D03*
X431500Y386247D03*
Y421247D03*
X431637Y522497D03*
X434000Y393747D03*
Y413747D03*
X434009Y512144D03*
Y515514D03*
X436255Y526247D03*
X436500Y371247D03*
Y443747D03*
Y458747D03*
Y473747D03*
Y488747D03*
Y506247D03*
Y518747D03*
X439000Y328747D03*
Y338747D03*
Y423747D03*
Y546247D03*
Y556245D03*
X439001Y433768D03*
X441497Y431247D03*
X441500Y386247D03*
X443993Y428747D03*
X444000Y393747D03*
Y406247D03*
Y413747D03*
X445250Y443747D03*
Y458747D03*
Y473747D03*
Y488747D03*
Y506247D03*
X446500Y375110D03*
X448985Y509898D03*
X451231Y465621D03*
X451500Y386247D03*
X453977Y463374D03*
X454000Y328747D03*
Y338747D03*
Y393747D03*
Y413747D03*
Y473747D03*
Y488747D03*
Y506247D03*
Y518747D03*
Y532497D03*
Y546247D03*
Y556245D03*
X456224Y467618D03*
X456500Y443747D03*
X456598Y375110D03*
X458844Y470114D03*
X461500Y386247D03*
Y421247D03*
X464000Y393747D03*
Y413747D03*
X469000Y328747D03*
Y338747D03*
Y353747D03*
Y368747D03*
Y383747D03*
Y428747D03*
Y443747D03*
Y458747D03*
Y473747D03*
Y488747D03*
Y506247D03*
Y518747D03*
Y532497D03*
Y546247D03*
Y556245D03*
X475129Y501161D03*
X477939Y503408D03*
X480371Y506528D03*
X484000Y328747D03*
Y338747D03*
Y353747D03*
Y368747D03*
Y383747D03*
Y398747D03*
Y413747D03*
Y428747D03*
Y443747D03*
Y458747D03*
Y473747D03*
Y488747D03*
Y503747D03*
Y518747D03*
Y532497D03*
Y546247D03*
Y556245D03*
X497760Y403747D03*
X499000Y328747D03*
Y368747D03*
Y383747D03*
Y428747D03*
Y443747D03*
Y458747D03*
Y473747D03*
Y488747D03*
Y503747D03*
Y518747D03*
Y532497D03*
Y546247D03*
Y556245D03*
X514000Y328747D03*
Y368747D03*
Y383747D03*
Y398747D03*
Y413747D03*
Y428747D03*
Y443747D03*
Y458747D03*
Y473747D03*
Y488747D03*
Y503747D03*
Y518747D03*
Y532497D03*
Y546247D03*
Y556245D03*
X529000Y328747D03*
Y338747D03*
Y353747D03*
Y368747D03*
Y383747D03*
Y398747D03*
Y413747D03*
Y428747D03*
Y443747D03*
Y458747D03*
Y473747D03*
Y488747D03*
Y503747D03*
Y518747D03*
Y532497D03*
Y546247D03*
Y556245D03*
X544000Y353747D03*
Y368747D03*
Y383747D03*
Y398747D03*
Y413747D03*
Y428747D03*
Y443747D03*
Y458747D03*
Y531247D03*
X548803Y337804D03*
Y546466D03*
X557474Y383747D03*
Y398747D03*
Y458747D03*
Y498747D03*
X557750Y353747D03*
Y368747D03*
Y413747D03*
Y428747D03*
Y443747D03*
Y531247D03*
X0Y0D02*
M02*
