G04 DesignSpark PCB Gerber Version 11.0 Build 5877*
G04 #@! TF.Part,Single*
G04 #@! TF.FileFunction,Legend,Top*
G04 #@! TF.FilePolarity,Positive*
%FSLAX35Y35*%
%MOIN*%
%ADD24C,0.00197*%
%ADD25C,0.00394*%
%ADD17C,0.00500*%
%ADD26C,0.00787*%
%ADD93C,0.00984*%
%ADD92C,0.03937*%
G04 #@! TD.AperFunction*
X0Y0D02*
D02*
D17*
X89178Y433147D02*
X89490Y432522D01*
X90115Y432209D01*
X91365D01*
X91990Y432522D01*
X92303Y433147D01*
X91990Y433772D01*
X91365Y434084D01*
X90115D01*
X89490Y434397D01*
X89178Y435022D01*
X89490Y435647D01*
X90115Y435959D01*
X91365D01*
X91990Y435647D01*
X92303Y435022D01*
X94178Y435959D02*
X94490Y432209D01*
X95740Y434084D01*
X96990Y432209D01*
X97303Y435959D01*
X99803Y432209D02*
X101053D01*
X100428D02*
Y435959D01*
X99803Y435334D01*
X93375Y440309D02*
X93063Y439997D01*
X92437Y439684D01*
X91500D01*
X90875Y439997D01*
X90563Y440309D01*
X90250Y440934D01*
Y442184D01*
X90563Y442809D01*
X90875Y443122D01*
X91500Y443434D01*
X92437D01*
X93063Y443122D01*
X93375Y442809D01*
X95250Y439684D02*
Y443434D01*
X98375Y439684D01*
Y443434D01*
X100875Y439684D02*
X102125D01*
X101500D02*
Y443434D01*
X100875Y442809D01*
X90367Y422964D02*
Y413121D01*
X98634Y409775D02*
X94697D01*
X98634Y426310D02*
X94697D01*
X101193Y429020D02*
G75*
G03*
Y429900I0J440D01*
G01*
G75*
G03*
Y429020I0J-440D01*
G01*
Y429066D02*
G75*
G03*
Y429460I0J197D01*
G01*
G75*
G03*
Y429066I0J-197D01*
G01*
X102965Y422964D02*
Y413121D01*
X124625Y486559D02*
X124313Y486247D01*
X123687Y485934D01*
X122750D01*
X122125Y486247D01*
X121813Y486559D01*
X121500Y487184D01*
Y488434D01*
X121813Y489059D01*
X122125Y489372D01*
X122750Y489684D01*
X123687D01*
X124313Y489372D01*
X124625Y489059D01*
X126500Y485934D02*
Y489684D01*
X129625Y485934D01*
Y489684D01*
X134000Y485934D02*
X131500D01*
X133687Y488122D01*
X134000Y488747D01*
X133687Y489372D01*
X133063Y489684D01*
X132125D01*
X131500Y489372D01*
X122750Y543908D02*
X124000D01*
X123375D02*
Y547658D01*
X122750Y547033D01*
X128412Y543908D02*
Y547658D01*
X126850D02*
X129975D01*
X130600Y543908D02*
X133725Y547658D01*
X130600D02*
X133725Y543908D01*
X134350Y544846D02*
X134662Y544220D01*
X135287Y543908D01*
X135912D01*
X136537Y544220D01*
X136850Y544846D01*
Y545470D01*
X136537Y546096D01*
X135912Y546408D01*
X135287D01*
X134662Y546096D01*
X134350Y545470D01*
Y544846D01*
X138075Y543908D02*
X137450Y544846D01*
Y547033D01*
X138075Y547658D01*
X138700Y544220D02*
X139325Y543908D01*
X139950D01*
X140575Y544220D01*
X140887Y544846D01*
X140575Y545470D01*
X139950Y545783D01*
X139325D01*
X139950D02*
X140575Y546096D01*
X140887Y546720D01*
X140575Y547346D01*
X139950Y547658D01*
X139325D01*
X138700Y547346D01*
X141812Y543908D02*
X142125Y544220D01*
X141812Y544533D01*
X141500Y544220D01*
X141812Y543908D01*
X142750Y544220D02*
X143375Y543908D01*
X144000D01*
X144625Y544220D01*
X144937Y544846D01*
X144625Y545470D01*
X144000Y545783D01*
X143375D01*
X144000D02*
X144625Y546096D01*
X144937Y546720D01*
X144625Y547346D01*
X144000Y547658D01*
X143375D01*
X142750Y547346D01*
X145550Y547658D02*
X147112Y543908D01*
X148675Y547658D01*
X149300Y543908D02*
X149925Y544846D01*
Y547033D01*
X149300Y547658D01*
X125250Y537908D02*
X122750D01*
X124937Y540096D01*
X125250Y540720D01*
X124937Y541346D01*
X124312Y541658D01*
X123375D01*
X122750Y541346D01*
X128100Y537908D02*
Y541658D01*
X130287D01*
X130912Y541346D01*
X131225Y540720D01*
X130912Y540096D01*
X130287Y539783D01*
X128100D01*
X130287D02*
X131225Y537908D01*
X131850D02*
X134975Y541658D01*
X131850D02*
X134975Y537908D01*
X135600D02*
Y540408D01*
Y541346D02*
X139075Y537908D02*
X138450Y538846D01*
Y541033D01*
X139075Y541658D01*
X139700Y538220D02*
X140325Y537908D01*
X140950D01*
X141575Y538220D01*
X141887Y538846D01*
X141575Y539470D01*
X140950Y539783D01*
X140325D01*
X140950D02*
X141575Y540096D01*
X141887Y540720D01*
X141575Y541346D01*
X140950Y541658D01*
X140325D01*
X139700Y541346D01*
X142812Y537908D02*
X143125Y538220D01*
X142812Y538533D01*
X142500Y538220D01*
X142812Y537908D01*
X143750Y538220D02*
X144375Y537908D01*
X145000D01*
X145625Y538220D01*
X145937Y538846D01*
X145625Y539470D01*
X145000Y539783D01*
X144375D01*
X145000D02*
X145625Y540096D01*
X145937Y540720D01*
X145625Y541346D01*
X145000Y541658D01*
X144375D01*
X143750Y541346D01*
X146550Y541658D02*
X148112Y537908D01*
X149675Y541658D01*
X150300Y537908D02*
X150925Y538846D01*
Y541033D01*
X150300Y541658D01*
X122750Y532220D02*
X123375Y531908D01*
X124000D01*
X124625Y532220D01*
X124937Y532846D01*
X124625Y533470D01*
X124000Y533783D01*
X123375D01*
X124000D02*
X124625Y534096D01*
X124937Y534720D01*
X124625Y535346D01*
X124000Y535658D01*
X123375D01*
X122750Y535346D01*
X127800Y533158D02*
X130300D01*
X129050Y531908D02*
Y534408D01*
X130900Y532220D02*
X131525Y531908D01*
X132462D01*
X133087Y532220D01*
X133400Y532846D01*
Y533158D01*
X133087Y533783D01*
X132462Y534096D01*
X130900D01*
Y535658D01*
X133400D01*
X134000D02*
X135562Y531908D01*
X137125Y535658D01*
X124312Y525908D02*
Y529658D01*
X122750Y527158D01*
X125250D01*
X130287Y527470D02*
X131225D01*
Y527158D01*
X130912Y526533D01*
X130600Y526220D01*
X129975Y525908D01*
X129350D01*
X128725Y526220D01*
X128412Y526533D01*
X128100Y527158D01*
Y528408D01*
X128412Y529033D01*
X128725Y529346D01*
X129350Y529658D01*
X129975D01*
X130600Y529346D01*
X130912Y529033D01*
X131225Y528408D01*
X131850Y525908D02*
Y529658D01*
X134975Y525908D01*
Y529658D01*
X135600Y525908D02*
Y529658D01*
X137475D01*
X138100Y529346D01*
X138412Y529033D01*
X138725Y528408D01*
Y527158D01*
X138412Y526533D01*
X138100Y526220D01*
X137475Y525908D01*
X135600D01*
X135105Y474775D02*
Y478525D01*
X136980D01*
X137605Y478213D01*
X137918Y477900D01*
X138230Y477275D01*
Y476025D01*
X137918Y475400D01*
X137605Y475087D01*
X136980Y474775D01*
X135105D01*
X140418Y475087D02*
X141043Y474775D01*
X141668D01*
X142293Y475087D01*
X142605Y475713D01*
X142293Y476337D01*
X141668Y476650D01*
X141043D01*
X141668D02*
X142293Y476963D01*
X142605Y477587D01*
X142293Y478213D01*
X141668Y478525D01*
X141043D01*
X140418Y478213D01*
X135250Y448437D02*
Y452187D01*
X137437D01*
X138063Y451875D01*
X138375Y451250D01*
X138063Y450625D01*
X137437Y450313D01*
X135250D01*
X137437D02*
X138375Y448437D01*
X140875D02*
X142125D01*
X141500D02*
Y452187D01*
X140875Y451563D01*
X135250Y454428D02*
Y458178D01*
X137125D01*
X137750Y457866D01*
X138063Y457553D01*
X138375Y456928D01*
Y455678D01*
X138063Y455053D01*
X137750Y454741D01*
X137125Y454428D01*
X135250D01*
X140875D02*
X142125D01*
X141500D02*
Y458178D01*
X140875Y457553D01*
X135250Y463414D02*
Y467164D01*
X137125D01*
X137750Y466852D01*
X138063Y466539D01*
X138375Y465914D01*
Y464664D01*
X138063Y464039D01*
X137750Y463726D01*
X137125Y463414D01*
X135250D01*
X142750D02*
X140250D01*
X142437Y465602D01*
X142750Y466226D01*
X142437Y466852D01*
X141813Y467164D01*
X140875D01*
X140250Y466852D01*
X135250Y468156D02*
Y471906D01*
X137437D01*
X138063Y471594D01*
X138375Y470969D01*
X138063Y470344D01*
X137437Y470031D01*
X135250D01*
X137437D02*
X138375Y468156D01*
X142750D02*
X140250D01*
X142437Y470344D01*
X142750Y470969D01*
X142437Y471594D01*
X141813Y471906D01*
X140875D01*
X140250Y471594D01*
X157805Y353580D02*
X157492Y353268D01*
X156867Y352955D01*
X155930D01*
X155305Y353268D01*
X154992Y353580D01*
X154680Y354205D01*
Y355455D01*
X154992Y356080D01*
X155305Y356393D01*
X155930Y356705D01*
X156867D01*
X157492Y356393D01*
X157805Y356080D01*
X161242Y352955D02*
Y356705D01*
X159680Y354205D01*
X162180D01*
X154296Y504656D02*
X150546D01*
Y506843D01*
X150859Y507469D01*
X151484Y507781D01*
X152109Y507469D01*
X152421Y506843D01*
Y504656D01*
Y506843D02*
X154296Y507781D01*
X153984Y509969D02*
X154296Y510593D01*
Y511219D01*
X153984Y511843D01*
X153359Y512156D01*
X152734Y511843D01*
X152421Y511219D01*
Y510593D01*
Y511219D02*
X152109Y511843D01*
X151484Y512156D01*
X150859Y511843D01*
X150546Y511219D01*
Y510593D01*
X150859Y509969D01*
X156500Y456574D02*
Y460324D01*
X158687D01*
X159313Y460012D01*
X159625Y459387D01*
X159313Y458762D01*
X158687Y458449D01*
X156500D01*
X158687D02*
X159625Y456574D01*
X161500Y457512D02*
X161813Y458137D01*
X162437Y458449D01*
X163063D01*
X163687Y458137D01*
X164000Y457512D01*
X163687Y456887D01*
X163063Y456574D01*
X162437D01*
X161813Y456887D01*
X161500Y457512D01*
Y458449D01*
X161813Y459387D01*
X162437Y460012D01*
X163063Y460324D01*
X156500Y461574D02*
Y465324D01*
X158687D01*
X159313Y465012D01*
X159625Y464387D01*
X159313Y463762D01*
X158687Y463449D01*
X156500D01*
X158687D02*
X159625Y461574D01*
X161500D02*
X164000Y465324D01*
X161500D01*
X160162Y504406D02*
X156412D01*
Y506594D01*
X156724Y507219D01*
X157350Y507531D01*
X157974Y507219D01*
X158287Y506594D01*
Y504406D01*
Y506594D02*
X160162Y507531D01*
Y510969D02*
X156412D01*
X158912Y509406D01*
Y511906D01*
X164893Y507531D02*
X165206Y507219D01*
X165519Y506594D01*
Y505656D01*
X165206Y505031D01*
X164893Y504719D01*
X164269Y504406D01*
X163019D01*
X162393Y504719D01*
X162081Y505031D01*
X161769Y505656D01*
Y506594D01*
X162081Y507219D01*
X162393Y507531D01*
X165519Y510031D02*
Y511281D01*
Y510656D02*
X161769D01*
X162393Y510031D01*
X166278Y537604D02*
X162528D01*
Y539791D01*
X162840Y540417D01*
X163465Y540729D01*
X164090Y540417D01*
X164402Y539791D01*
Y537604D01*
Y539791D02*
X166278Y540729D01*
X165965Y542604D02*
X166278Y543229D01*
Y544167D01*
X165965Y544791D01*
X165340Y545104D01*
X165028D01*
X164402Y544791D01*
X164090Y544167D01*
Y542604D01*
X162528D01*
Y545104D01*
X172518Y513767D02*
X168768D01*
Y515954D01*
X169080Y516579D01*
X169705Y516892D01*
X170330Y516579D01*
X170643Y515954D01*
Y513767D01*
Y515954D02*
X172518Y516892D01*
X170643Y519704D02*
Y520329D01*
X170330Y520954D01*
X169705Y521267D01*
X169080Y520954D01*
X168768Y520329D01*
Y519704D01*
X169080Y519079D01*
X169705Y518767D01*
X170330Y519079D01*
X170643Y519704D01*
X170955Y519079D01*
X171580Y518767D01*
X172205Y519079D01*
X172518Y519704D01*
Y520329D01*
X172205Y520954D01*
X171580Y521267D01*
X170955Y520954D01*
X170643Y520329D01*
X171893Y539731D02*
X172205Y539418D01*
X172518Y538793D01*
Y537856D01*
X172205Y537231D01*
X171893Y536918D01*
X171268Y536606D01*
X170018D01*
X169393Y536918D01*
X169080Y537231D01*
X168768Y537856D01*
Y538793D01*
X169080Y539418D01*
X169393Y539731D01*
X172205Y541918D02*
X172518Y542543D01*
Y543168D01*
X172205Y543793D01*
X171580Y544106D01*
X170955Y543793D01*
X170643Y543168D01*
Y542543D01*
Y543168D02*
X170330Y543793D01*
X169705Y544106D01*
X169080Y543793D01*
X168768Y543168D01*
Y542543D01*
X169080Y541918D01*
X172217Y488122D02*
X172530Y487809D01*
X172842Y487184D01*
Y486247D01*
X172530Y485622D01*
X172217Y485309D01*
X171592Y484997D01*
X170342D01*
X169717Y485309D01*
X169404Y485622D01*
X169092Y486247D01*
Y487184D01*
X169404Y487809D01*
X169717Y488122D01*
X172842Y492497D02*
Y489997D01*
X170654Y492184D01*
X170030Y492497D01*
X169404Y492184D01*
X169092Y491559D01*
Y490622D01*
X169404Y489997D01*
X177437Y515562D02*
X178687D01*
X178063D02*
Y519312D01*
X177437D02*
X178687D01*
X184625Y516187D02*
X184313Y515874D01*
X183687Y515562D01*
X182750D01*
X182125Y515874D01*
X181813Y516187D01*
X181500Y516812D01*
Y518062D01*
X181813Y518687D01*
X182125Y519000D01*
X182750Y519312D01*
X183687D01*
X184313Y519000D01*
X184625Y518687D01*
X189000Y515562D02*
X186500D01*
X188687Y517750D01*
X189000Y518374D01*
X188687Y519000D01*
X188063Y519312D01*
X187125D01*
X186500Y519000D01*
X179634Y489244D02*
X180884D01*
X180259D02*
Y492994D01*
X179634D02*
X180884D01*
X186822Y489869D02*
X186509Y489557D01*
X185884Y489244D01*
X184947D01*
X184322Y489557D01*
X184009Y489869D01*
X183697Y490494D01*
Y491744D01*
X184009Y492369D01*
X184322Y492682D01*
X184947Y492994D01*
X185884D01*
X186509Y492682D01*
X186822Y492369D01*
X189322Y489244D02*
X190572D01*
X189947D02*
Y492994D01*
X189322Y492369D01*
X186500Y349684D02*
Y345934D01*
X189625D01*
X191500D02*
Y349684D01*
X194625D01*
X194000Y347809D02*
X191500D01*
Y345934D02*
X194625D01*
X196500D02*
Y349684D01*
X198375D01*
X199000Y349372D01*
X199313Y349059D01*
X199625Y348434D01*
Y347184D01*
X199313Y346559D01*
X199000Y346247D01*
X198375Y345934D01*
X196500D01*
X202125D02*
X203375D01*
X202750D02*
Y349684D01*
X202125Y349059D01*
X199599Y540105D02*
X199911Y539793D01*
X200224Y539167D01*
Y538230D01*
X199911Y537605D01*
X199599Y537293D01*
X198974Y536980D01*
X197724D01*
X197099Y537293D01*
X196786Y537605D01*
X196474Y538230D01*
Y539167D01*
X196786Y539793D01*
X197099Y540105D01*
X199286Y541980D02*
X198661Y542293D01*
X198349Y542917D01*
Y543543D01*
X198661Y544167D01*
X199286Y544480D01*
X199911Y544167D01*
X200224Y543543D01*
Y542917D01*
X199911Y542293D01*
X199286Y541980D01*
X198349D01*
X197411Y542293D01*
X196786Y542917D01*
X196474Y543543D01*
X201061Y507157D02*
X201374Y506844D01*
X201686Y506219D01*
Y505282D01*
X201374Y504657D01*
X201061Y504344D01*
X200436Y504032D01*
X199186D01*
X198561Y504344D01*
X198248Y504657D01*
X197936Y505282D01*
Y506219D01*
X198248Y506844D01*
X198561Y507157D01*
X201374Y509032D02*
X201686Y509657D01*
Y510594D01*
X201374Y511219D01*
X200748Y511532D01*
X200436D01*
X199811Y511219D01*
X199498Y510594D01*
Y509032D01*
X197936D01*
Y511532D01*
X264340Y471033D02*
X265590D01*
X264965D02*
Y474783D01*
X264340D02*
X265590D01*
X271528Y471658D02*
X271215Y471345D01*
X270590Y471033D01*
X269653D01*
X269028Y471345D01*
X268715Y471658D01*
X268403Y472283D01*
Y473533D01*
X268715Y474158D01*
X269028Y474470D01*
X269653Y474783D01*
X270590D01*
X271215Y474470D01*
X271528Y474158D01*
X273715Y471345D02*
X274340Y471033D01*
X274965D01*
X275590Y471345D01*
X275903Y471970D01*
X275590Y472595D01*
X274965Y472908D01*
X274340D01*
X274965D02*
X275590Y473220D01*
X275903Y473845D01*
X275590Y474470D01*
X274965Y474783D01*
X274340D01*
X273715Y474470D01*
X264000Y342184D02*
Y345934D01*
X266187D01*
X266813Y345622D01*
X267125Y344997D01*
X266813Y344372D01*
X266187Y344059D01*
X264000D01*
X266187D02*
X267125Y342184D01*
X269000D02*
Y345934D01*
X272125Y342184D01*
Y345934D01*
X274625Y342184D02*
X275875D01*
X275250D02*
Y345934D01*
X274625Y345309D01*
X268275Y462662D02*
X267963Y462350D01*
X267337Y462037D01*
X266400D01*
X265775Y462350D01*
X265463Y462662D01*
X265150Y463287D01*
Y464537D01*
X265463Y465162D01*
X265775Y465475D01*
X266400Y465787D01*
X267337D01*
X267963Y465475D01*
X268275Y465162D01*
X270150Y462037D02*
X272650Y465787D01*
X270150D01*
X284000Y342184D02*
Y345934D01*
X286187D01*
X286813Y345622D01*
X287125Y344997D01*
X286813Y344372D01*
X286187Y344059D01*
X284000D01*
X286187D02*
X287125Y342184D01*
X289000D02*
Y345934D01*
X292125Y342184D01*
Y345934D01*
X296500Y342184D02*
X294000D01*
X296187Y344372D01*
X296500Y344997D01*
X296187Y345622D01*
X295563Y345934D01*
X294625D01*
X294000Y345622D01*
X288845Y521713D02*
Y517963D01*
X291970D01*
X294470D02*
X295720D01*
X295095D02*
Y521713D01*
X294470Y521088D01*
X295477Y462283D02*
Y466033D01*
X297665D01*
X298290Y465720D01*
X298602Y465095D01*
X298290Y464470D01*
X297665Y464158D01*
X295477D01*
X297665D02*
X298602Y462283D01*
X301415D02*
X302040Y462595D01*
X302665Y463220D01*
X302977Y464158D01*
Y465095D01*
X302665Y465720D01*
X302040Y466033D01*
X301415D01*
X300790Y465720D01*
X300477Y465095D01*
X300790Y464470D01*
X301415Y464158D01*
X302040D01*
X302665Y464470D01*
X302977Y465095D01*
X302097Y482631D02*
X301784Y482318D01*
X301159Y482006D01*
X300222D01*
X299597Y482318D01*
X299284Y482631D01*
X298972Y483256D01*
Y484506D01*
X299284Y485131D01*
X299597Y485443D01*
X300222Y485756D01*
X301159D01*
X301784Y485443D01*
X302097Y485131D01*
X304597Y482006D02*
X305847D01*
X305222D02*
Y485756D01*
X304597Y485131D01*
X309284Y482318D02*
X309909Y482006D01*
X310534D01*
X311159Y482318D01*
X311472Y482943D01*
Y484818D01*
X311159Y485443D01*
X310534Y485756D01*
X309909D01*
X309284Y485443D01*
X308972Y484818D01*
Y482943D01*
X309284Y482318D01*
X311159Y485443D01*
X302346Y490752D02*
X302034Y490440D01*
X301409Y490127D01*
X300471D01*
X299846Y490440D01*
X299534Y490752D01*
X299221Y491377D01*
Y492627D01*
X299534Y493252D01*
X299846Y493565D01*
X300471Y493877D01*
X301409D01*
X302034Y493565D01*
X302346Y493252D01*
X304846Y490127D02*
X306096D01*
X305471D02*
Y493877D01*
X304846Y493252D01*
X309846Y490127D02*
X311096D01*
X310471D02*
Y493877D01*
X309846Y493252D01*
X304000Y342184D02*
Y345934D01*
X306187D01*
X306813Y345622D01*
X307125Y344997D01*
X306813Y344372D01*
X306187Y344059D01*
X304000D01*
X306187D02*
X307125Y342184D01*
X309000D02*
Y345934D01*
X312125Y342184D01*
Y345934D01*
X314313Y342497D02*
X314937Y342184D01*
X315563D01*
X316187Y342497D01*
X316500Y343122D01*
X316187Y343747D01*
X315563Y344059D01*
X314937D01*
X315563D02*
X316187Y344372D01*
X316500Y344997D01*
X316187Y345622D01*
X315563Y345934D01*
X314937D01*
X314313Y345622D01*
X311637Y518639D02*
X311949Y518326D01*
X312262Y517701D01*
Y516764D01*
X311949Y516139D01*
X311637Y515826D01*
X311012Y515514D01*
X309762D01*
X309137Y515826D01*
X308824Y516139D01*
X308512Y516764D01*
Y517701D01*
X308824Y518326D01*
X309137Y518639D01*
X312262Y521451D02*
X311949Y522076D01*
X311324Y522701D01*
X310387Y523014D01*
X309449D01*
X308824Y522701D01*
X308512Y522076D01*
Y521451D01*
X308824Y520826D01*
X309449Y520514D01*
X310074Y520826D01*
X310387Y521451D01*
Y522076D01*
X310074Y522701D01*
X309449Y523014D01*
X317631Y467029D02*
X318881D01*
X318256D02*
Y470779D01*
X317631D02*
X318881D01*
X324819Y467654D02*
X324506Y467342D01*
X323881Y467029D01*
X322944D01*
X322319Y467342D01*
X322006Y467654D01*
X321694Y468279D01*
Y469529D01*
X322006Y470154D01*
X322319Y470467D01*
X322944Y470779D01*
X323881D01*
X324506Y470467D01*
X324819Y470154D01*
X328256Y467029D02*
Y470779D01*
X326694Y468279D01*
X329194D01*
X316504Y501416D02*
X316817Y501104D01*
X317129Y500478D01*
Y499541D01*
X316817Y498916D01*
X316504Y498604D01*
X315879Y498291D01*
X314629D01*
X314004Y498604D01*
X313691Y498916D01*
X313379Y499541D01*
Y500478D01*
X313691Y501104D01*
X314004Y501416D01*
X315254Y504228D02*
Y504854D01*
X314941Y505478D01*
X314317Y505791D01*
X313691Y505478D01*
X313379Y504854D01*
Y504228D01*
X313691Y503604D01*
X314317Y503291D01*
X314941Y503604D01*
X315254Y504228D01*
X315567Y503604D01*
X316191Y503291D01*
X316817Y503604D01*
X317129Y504228D01*
Y504854D01*
X316817Y505478D01*
X316191Y505791D01*
X315567Y505478D01*
X315254Y504854D01*
X317627Y518764D02*
X317940Y518451D01*
X318252Y517826D01*
Y516889D01*
X317940Y516264D01*
X317627Y515951D01*
X317002Y515639D01*
X315752D01*
X315127Y515951D01*
X314815Y516264D01*
X314502Y516889D01*
Y517826D01*
X314815Y518451D01*
X315127Y518764D01*
X318252Y521264D02*
Y522514D01*
Y521889D02*
X314502D01*
X315127Y521264D01*
X318252Y528139D02*
Y525639D01*
X316065Y527826D01*
X315440Y528139D01*
X314815Y527826D01*
X314502Y527201D01*
Y526264D01*
X314815Y525639D01*
X324000Y342184D02*
Y345934D01*
X326187D01*
X326813Y345622D01*
X327125Y344997D01*
X326813Y344372D01*
X326187Y344059D01*
X324000D01*
X326187D02*
X327125Y342184D01*
X329000D02*
Y345934D01*
X332125Y342184D01*
Y345934D01*
X335563Y342184D02*
Y345934D01*
X334000Y343434D01*
X336500D01*
X330357Y531119D02*
X330670Y530807D01*
X330982Y530181D01*
Y529244D01*
X330670Y528619D01*
X330357Y528307D01*
X329732Y527994D01*
X328482D01*
X327857Y528307D01*
X327544Y528619D01*
X327232Y529244D01*
Y530181D01*
X327544Y530807D01*
X327857Y531119D01*
X330982Y533619D02*
Y534869D01*
Y534244D02*
X327232D01*
X327857Y533619D01*
X330982Y539557D02*
X327232D01*
X329732Y537994D01*
Y540494D01*
X331593Y456113D02*
X331905Y455800D01*
X332218Y455175D01*
Y454237D01*
X331905Y453613D01*
X331593Y453300D01*
X330968Y452987D01*
X329718D01*
X329093Y453300D01*
X328780Y453613D01*
X328468Y454237D01*
Y455175D01*
X328780Y455800D01*
X329093Y456113D01*
X332218Y458613D02*
Y459863D01*
Y459237D02*
X328468D01*
X329093Y458613D01*
X331905Y463300D02*
X332218Y463925D01*
Y464550D01*
X331905Y465175D01*
X331280Y465487D01*
X330655Y465175D01*
X330343Y464550D01*
Y463925D01*
Y464550D02*
X330030Y465175D01*
X329405Y465487D01*
X328780Y465175D01*
X328468Y464550D01*
Y463925D01*
X328780Y463300D01*
X340204Y456113D02*
X340517Y455800D01*
X340829Y455175D01*
Y454237D01*
X340517Y453613D01*
X340204Y453300D01*
X339579Y452987D01*
X338329D01*
X337704Y453300D01*
X337391Y453613D01*
X337079Y454237D01*
Y455175D01*
X337391Y455800D01*
X337704Y456113D01*
X340829Y458613D02*
Y459863D01*
Y459237D02*
X337079D01*
X337704Y458613D01*
X340517Y462987D02*
X340829Y463613D01*
Y464550D01*
X340517Y465175D01*
X339891Y465487D01*
X339579D01*
X338954Y465175D01*
X338641Y464550D01*
Y462987D01*
X337079D01*
Y465487D01*
X344000Y342184D02*
Y345934D01*
X346187D01*
X346813Y345622D01*
X347125Y344997D01*
X346813Y344372D01*
X346187Y344059D01*
X344000D01*
X346187D02*
X347125Y342184D01*
X349000D02*
Y345934D01*
X352125Y342184D01*
Y345934D01*
X354000Y342497D02*
X354625Y342184D01*
X355563D01*
X356187Y342497D01*
X356500Y343122D01*
Y343434D01*
X356187Y344059D01*
X355563Y344372D01*
X354000D01*
Y345934D01*
X356500D01*
X342837Y531244D02*
X343150Y530931D01*
X343463Y530306D01*
Y529369D01*
X343150Y528744D01*
X342837Y528431D01*
X342213Y528119D01*
X340963D01*
X340337Y528431D01*
X340025Y528744D01*
X339713Y529369D01*
Y530306D01*
X340025Y530931D01*
X340337Y531244D01*
X343463Y533744D02*
Y534994D01*
Y534369D02*
X339713D01*
X340337Y533744D01*
X342525Y538119D02*
X341900Y538431D01*
X341587Y539056D01*
Y539681D01*
X341900Y540306D01*
X342525Y540619D01*
X343150Y540306D01*
X343463Y539681D01*
Y539056D01*
X343150Y538431D01*
X342525Y538119D01*
X341587D01*
X340650Y538431D01*
X340025Y539056D01*
X339713Y539681D01*
X347580Y531244D02*
X347893Y530931D01*
X348205Y530306D01*
Y529369D01*
X347893Y528744D01*
X347580Y528431D01*
X346955Y528119D01*
X345705D01*
X345080Y528431D01*
X344767Y528744D01*
X344455Y529369D01*
Y530306D01*
X344767Y530931D01*
X345080Y531244D01*
X348205Y533744D02*
Y534994D01*
Y534369D02*
X344455D01*
X345080Y533744D01*
X348205Y538119D02*
X344455Y540619D01*
Y538119D01*
X348940Y456113D02*
X349253Y455800D01*
X349565Y455175D01*
Y454237D01*
X349253Y453613D01*
X348940Y453300D01*
X348315Y452987D01*
X347065D01*
X346440Y453300D01*
X346128Y453613D01*
X345815Y454237D01*
Y455175D01*
X346128Y455800D01*
X346440Y456113D01*
X349565Y458613D02*
Y459863D01*
Y459237D02*
X345815D01*
X346440Y458613D01*
X347690Y463925D02*
Y464550D01*
X347378Y465175D01*
X346753Y465487D01*
X346128Y465175D01*
X345815Y464550D01*
Y463925D01*
X346128Y463300D01*
X346753Y462987D01*
X347378Y463300D01*
X347690Y463925D01*
X348003Y463300D01*
X348628Y462987D01*
X349253Y463300D01*
X349565Y463925D01*
Y464550D01*
X349253Y465175D01*
X348628Y465487D01*
X348003Y465175D01*
X347690Y464550D01*
X360559Y531369D02*
X360872Y531056D01*
X361185Y530431D01*
Y529494D01*
X360872Y528869D01*
X360559Y528556D01*
X359935Y528244D01*
X358685D01*
X358059Y528556D01*
X357747Y528869D01*
X357435Y529494D01*
Y530431D01*
X357747Y531056D01*
X358059Y531369D01*
X361185Y533869D02*
Y535119D01*
Y534494D02*
X357435D01*
X358059Y533869D01*
X361185Y539181D02*
X360872Y539806D01*
X360247Y540431D01*
X359309Y540744D01*
X358372D01*
X357747Y540431D01*
X357435Y539806D01*
Y539181D01*
X357747Y538556D01*
X358372Y538244D01*
X358997Y538556D01*
X359309Y539181D01*
Y539806D01*
X358997Y540431D01*
X358372Y540744D01*
X364000Y342184D02*
Y345934D01*
X366187D01*
X366813Y345622D01*
X367125Y344997D01*
X366813Y344372D01*
X366187Y344059D01*
X364000D01*
X366187D02*
X367125Y342184D01*
X369000D02*
Y345934D01*
X372125Y342184D01*
Y345934D01*
X374000Y343122D02*
X374313Y343747D01*
X374937Y344059D01*
X375563D01*
X376187Y343747D01*
X376500Y343122D01*
X376187Y342497D01*
X375563Y342184D01*
X374937D01*
X374313Y342497D01*
X374000Y343122D01*
Y344059D01*
X374313Y344997D01*
X374937Y345622D01*
X375563Y345934D01*
X365927Y528244D02*
X362177D01*
Y530431D01*
X362489Y531056D01*
X363115Y531369D01*
X363739Y531056D01*
X364052Y530431D01*
Y528244D01*
Y530431D02*
X365927Y531369D01*
Y533869D02*
Y535119D01*
Y534494D02*
X362177D01*
X362802Y533869D01*
X365615Y538556D02*
X365927Y539181D01*
Y539806D01*
X365615Y540431D01*
X364989Y540744D01*
X363115D01*
X362489Y540431D01*
X362177Y539806D01*
Y539181D01*
X362489Y538556D01*
X363115Y538244D01*
X364989D01*
X365615Y538556D01*
X362489Y540431D01*
X373375Y475309D02*
X373063Y474997D01*
X372437Y474684D01*
X371500D01*
X370875Y474997D01*
X370563Y475309D01*
X370250Y475934D01*
Y477184D01*
X370563Y477809D01*
X370875Y478122D01*
X371500Y478434D01*
X372437D01*
X373063Y478122D01*
X373375Y477809D01*
X377750Y474684D02*
X375250D01*
X377437Y476872D01*
X377750Y477497D01*
X377437Y478122D01*
X376813Y478434D01*
X375875D01*
X375250Y478122D01*
X380875Y474684D02*
X382125D01*
X381500D02*
Y478434D01*
X380875Y477809D01*
X373375Y483867D02*
X373063Y483554D01*
X372437Y483242D01*
X371500D01*
X370875Y483554D01*
X370563Y483867D01*
X370250Y484492D01*
Y485742D01*
X370563Y486367D01*
X370875Y486680D01*
X371500Y486992D01*
X372437D01*
X373063Y486680D01*
X373375Y486367D01*
X377750Y483242D02*
X375250D01*
X377437Y485430D01*
X377750Y486054D01*
X377437Y486680D01*
X376813Y486992D01*
X375875D01*
X375250Y486680D01*
X382750Y483242D02*
X380250D01*
X382437Y485430D01*
X382750Y486054D01*
X382437Y486680D01*
X381813Y486992D01*
X380875D01*
X380250Y486680D01*
X373375Y499854D02*
X373063Y499541D01*
X372437Y499228D01*
X371500D01*
X370875Y499541D01*
X370563Y499854D01*
X370250Y500478D01*
Y501728D01*
X370563Y502354D01*
X370875Y502666D01*
X371500Y502978D01*
X372437D01*
X373063Y502666D01*
X373375Y502354D01*
X377750Y499228D02*
X375250D01*
X377437Y501416D01*
X377750Y502041D01*
X377437Y502666D01*
X376813Y502978D01*
X375875D01*
X375250Y502666D01*
X380563Y499541D02*
X381187Y499228D01*
X381813D01*
X382437Y499541D01*
X382750Y500166D01*
X382437Y500791D01*
X381813Y501104D01*
X381187D01*
X381813D02*
X382437Y501416D01*
X382750Y502041D01*
X382437Y502666D01*
X381813Y502978D01*
X381187D01*
X380563Y502666D01*
X370419Y531244D02*
X370731Y530931D01*
X371044Y530306D01*
Y529369D01*
X370731Y528744D01*
X370419Y528431D01*
X369794Y528119D01*
X368544D01*
X367919Y528431D01*
X367606Y528744D01*
X367294Y529369D01*
Y530306D01*
X367606Y530931D01*
X367919Y531244D01*
X371044Y535619D02*
Y533119D01*
X368856Y535306D01*
X368231Y535619D01*
X367606Y535306D01*
X367294Y534681D01*
Y533744D01*
X367606Y533119D01*
X370731Y538431D02*
X371044Y539056D01*
Y539681D01*
X370731Y540306D01*
X370106Y540619D01*
X368231D01*
X367606Y540306D01*
X367294Y539681D01*
Y539056D01*
X367606Y538431D01*
X368231Y538119D01*
X370106D01*
X370731Y538431D01*
X367606Y540306D01*
X376599Y510336D02*
Y514086D01*
X378787D01*
X379412Y513774D01*
X379724Y513148D01*
X379412Y512524D01*
X378787Y512211D01*
X376599D01*
X378787D02*
X379724Y510336D01*
X382224D02*
X383474D01*
X382849D02*
Y514086D01*
X382224Y513461D01*
X387224Y510336D02*
X388474D01*
X387849D02*
Y514086D01*
X387224Y513461D01*
X384000Y342184D02*
Y345934D01*
X386187D01*
X386813Y345622D01*
X387125Y344997D01*
X386813Y344372D01*
X386187Y344059D01*
X384000D01*
X386187D02*
X387125Y342184D01*
X389000D02*
Y345934D01*
X392125Y342184D01*
Y345934D01*
X394000Y342184D02*
X396500Y345934D01*
X394000D01*
X393375Y477809D02*
X393063Y477497D01*
X392437Y477184D01*
X391500D01*
X390875Y477497D01*
X390563Y477809D01*
X390250Y478434D01*
Y479684D01*
X390563Y480309D01*
X390875Y480622D01*
X391500Y480934D01*
X392437D01*
X393063Y480622D01*
X393375Y480309D01*
X397750Y477184D02*
X395250D01*
X397437Y479372D01*
X397750Y479997D01*
X397437Y480622D01*
X396813Y480934D01*
X395875D01*
X395250Y480622D01*
X401813Y477184D02*
Y480934D01*
X400250Y478434D01*
X402750D01*
X394625Y510711D02*
X394313Y510399D01*
X393687Y510086D01*
X392750D01*
X392125Y510399D01*
X391813Y510711D01*
X391500Y511336D01*
Y512586D01*
X391813Y513211D01*
X392125Y513524D01*
X392750Y513836D01*
X393687D01*
X394313Y513524D01*
X394625Y513211D01*
X399000Y510086D02*
X396500D01*
X398687Y512274D01*
X399000Y512899D01*
X398687Y513524D01*
X398063Y513836D01*
X397125D01*
X396500Y513524D01*
X401500Y510399D02*
X402125Y510086D01*
X403063D01*
X403687Y510399D01*
X404000Y511024D01*
Y511336D01*
X403687Y511961D01*
X403063Y512274D01*
X401500D01*
Y513836D01*
X404000D01*
X404313Y500934D02*
Y502809D01*
X402750Y504684D01*
X404313Y502809D02*
X405875Y504684D01*
X408375Y500934D02*
X409625D01*
X409000D02*
Y504684D01*
X408375Y504059D01*
X404000Y342184D02*
Y345934D01*
X406187D01*
X406813Y345622D01*
X407125Y344997D01*
X406813Y344372D01*
X406187Y344059D01*
X404000D01*
X406187D02*
X407125Y342184D01*
X409000D02*
Y345934D01*
X412125Y342184D01*
Y345934D01*
X414937Y344059D02*
X415563D01*
X416187Y344372D01*
X416500Y344997D01*
X416187Y345622D01*
X415563Y345934D01*
X414937D01*
X414313Y345622D01*
X414000Y344997D01*
X414313Y344372D01*
X414937Y344059D01*
X414313Y343747D01*
X414000Y343122D01*
X414313Y342497D01*
X414937Y342184D01*
X415563D01*
X416187Y342497D01*
X416500Y343122D01*
X416187Y343747D01*
X415563Y344059D01*
X424000Y342184D02*
Y345934D01*
X426187D01*
X426813Y345622D01*
X427125Y344997D01*
X426813Y344372D01*
X426187Y344059D01*
X424000D01*
X426187D02*
X427125Y342184D01*
X429000D02*
Y345934D01*
X432125Y342184D01*
Y345934D01*
X434937Y342184D02*
X435563Y342497D01*
X436187Y343122D01*
X436500Y344059D01*
Y344997D01*
X436187Y345622D01*
X435563Y345934D01*
X434937D01*
X434313Y345622D01*
X434000Y344997D01*
X434313Y344372D01*
X434937Y344059D01*
X435563D01*
X436187Y344372D01*
X436500Y344997D01*
X444000Y342184D02*
Y345934D01*
X446187D01*
X446813Y345622D01*
X447125Y344997D01*
X446813Y344372D01*
X446187Y344059D01*
X444000D01*
X446187D02*
X447125Y342184D01*
X449000D02*
Y345934D01*
X452125Y342184D01*
Y345934D01*
X454625Y342184D02*
X455875D01*
X455250D02*
Y345934D01*
X454625Y345309D01*
X459313Y342497D02*
X459937Y342184D01*
X460563D01*
X461187Y342497D01*
X461500Y343122D01*
Y344997D01*
X461187Y345622D01*
X460563Y345934D01*
X459937D01*
X459313Y345622D01*
X459000Y344997D01*
Y343122D01*
X459313Y342497D01*
X461187Y345622D01*
X465250Y423747D02*
G75*
G03*
X462750Y427497I-1250J1875D01*
G01*
G75*
G03*
X465250Y423747I1250J-1875D01*
G01*
G36*
X465250Y423747D02*
G75*
G03*
X462750Y427497I-1250J1875D01*
G01*
G75*
G03*
X465250Y423747I1250J-1875D01*
G01*
G37*
X514313Y408122D02*
X514000Y408434D01*
X513687Y409059D01*
Y409997D01*
X514000Y410622D01*
X514313Y410934D01*
X514937Y411247D01*
X516187D01*
X516813Y410934D01*
X517125Y410622D01*
X517437Y409997D01*
Y409059D01*
X517125Y408434D01*
X516813Y408122D01*
X513687Y406247D02*
X517437D01*
X513687Y403122D01*
X517437D01*
X514000Y400934D02*
X513687Y400309D01*
Y399684D01*
X514000Y399059D01*
X514625Y398747D01*
X515250Y399059D01*
X515563Y399684D01*
Y400309D01*
Y399684D02*
X515875Y399059D01*
X516500Y398747D01*
X517125Y399059D01*
X517437Y399684D01*
Y400309D01*
X517125Y400934D01*
X530250Y497497D02*
X412142D01*
Y462064D01*
X530250D01*
Y497497D01*
G36*
X530250Y497497D02*
X412142D01*
Y462064D01*
X530250D01*
Y497497D01*
G37*
X539625Y487872D02*
X539313Y487560D01*
X538687Y487247D01*
X537750D01*
X537125Y487560D01*
X536813Y487872D01*
X536500Y488497D01*
Y489747D01*
X536813Y490372D01*
X537125Y490685D01*
X537750Y490997D01*
X538687D01*
X539313Y490685D01*
X539625Y490372D01*
X541500Y487247D02*
Y490997D01*
X544625Y487247D01*
Y490997D01*
X548063Y487247D02*
Y490997D01*
X546500Y488497D01*
X549000D01*
X544584Y525876D02*
X544897Y525250D01*
X545522Y524938D01*
X546772D01*
X547397Y525250D01*
X547709Y525876D01*
X547397Y526500D01*
X546772Y526813D01*
X545522D01*
X544897Y527126D01*
X544584Y527750D01*
X544897Y528376D01*
X545522Y528688D01*
X546772D01*
X547397Y528376D01*
X547709Y527750D01*
X549584Y528688D02*
X549897Y524938D01*
X551147Y526813D01*
X552397Y524938D01*
X552709Y528688D01*
X557084Y524938D02*
X554584D01*
X556772Y527126D01*
X557084Y527750D01*
X556772Y528376D01*
X556147Y528688D01*
X555209D01*
X554584Y528376D01*
X544900Y517190D02*
Y507348D01*
X548578Y324025D02*
X100035D01*
G75*
G02*
X86203Y337857I0J13833D01*
G01*
Y546344D01*
G75*
G02*
X100035Y560176I13833J0D01*
G01*
X548578D01*
G75*
G02*
X562425Y546329I0J-13847D01*
G01*
Y337872D01*
G75*
G02*
X548578Y324025I-13847J0D01*
G01*
X553167Y504001D02*
X549230D01*
X553167Y520537D02*
X549230D01*
X555726Y523246D02*
G75*
G03*
Y524126I0J440D01*
G01*
G75*
G03*
Y523246I0J-440D01*
G01*
Y523293D02*
G75*
G03*
Y523686I0J197D01*
G01*
G75*
G03*
Y523293I0J-197D01*
G01*
X557498Y517190D02*
Y507348D01*
D02*
D24*
X103949Y429263D02*
Y406822D01*
X89382D01*
Y429263D01*
X103949D01*
X558482Y523489D02*
Y501048D01*
X543915D01*
Y523489D01*
X558482D01*
D02*
D25*
X87789Y481928D02*
X82937D01*
Y446783D01*
X87913D01*
X90043Y525282D02*
Y492211D01*
X103900Y446845D02*
X97928D01*
X104086Y481991D02*
X98115D01*
X105890Y485125D02*
X119768D01*
Y493786D01*
X105890Y532369D02*
X119768D01*
Y523707D01*
X113541Y479171D02*
G75*
G02*
Y479565I0J197D01*
G01*
Y479171D02*
G75*
G03*
Y479565I0J197D01*
G01*
X169138Y338393D02*
X173862D01*
X169138Y349101D02*
X173862D01*
X262701Y356896D02*
Y350400D01*
X264079Y348038D02*
X264472D02*
G75*
G02*
X264079I-197J0D01*
G01*
X264472D02*
G75*
G03*
X264079I-197J0D01*
G01*
X275299Y357093D02*
Y350597D01*
X282701Y356896D02*
Y350400D01*
X284079Y348038D02*
X284472D02*
G75*
G02*
X284079I-197J0D01*
G01*
X284472D02*
G75*
G03*
X284079I-197J0D01*
G01*
X295299Y357093D02*
Y350597D01*
X302701Y356896D02*
Y350400D01*
X304079Y348038D02*
X304472D02*
G75*
G02*
X304079I-197J0D01*
G01*
X304472D02*
G75*
G03*
X304079I-197J0D01*
G01*
X315299Y357093D02*
Y350597D01*
X322701Y356896D02*
Y350400D01*
X324079Y348038D02*
X324472D02*
G75*
G02*
X324079I-197J0D01*
G01*
X324472D02*
G75*
G03*
X324079I-197J0D01*
G01*
X335299Y357093D02*
Y350597D01*
X342701Y356896D02*
Y350400D01*
X344079Y348038D02*
X344472D02*
G75*
G02*
X344079I-197J0D01*
G01*
X344472D02*
G75*
G03*
X344079I-197J0D01*
G01*
X355299Y357093D02*
Y350597D01*
X362701Y356896D02*
Y350400D01*
X364079Y348038D02*
X364472D02*
G75*
G02*
X364079I-197J0D01*
G01*
X364472D02*
G75*
G03*
X364079I-197J0D01*
G01*
X375299Y357093D02*
Y350597D01*
X382701Y356896D02*
Y350400D01*
X384079Y348038D02*
X384472D02*
G75*
G02*
X384079I-197J0D01*
G01*
X384472D02*
G75*
G03*
X384079I-197J0D01*
G01*
X388977Y488190D02*
Y488583D02*
G75*
G03*
Y488190I0J-197D01*
G01*
Y488583D02*
G75*
G02*
Y488190I0J-197D01*
G01*
X395299Y357093D02*
Y350597D01*
X402701Y356896D02*
Y350400D01*
X404079Y348038D02*
X404472D02*
G75*
G02*
X404079I-197J0D01*
G01*
X404472D02*
G75*
G03*
X404079I-197J0D01*
G01*
X415299Y357093D02*
Y350597D01*
X422701Y356896D02*
Y350400D01*
X424079Y348038D02*
X424472D02*
G75*
G02*
X424079I-197J0D01*
G01*
X424472D02*
G75*
G03*
X424079I-197J0D01*
G01*
X435299Y357093D02*
Y350597D01*
X442701Y356896D02*
Y350400D01*
X444079Y348038D02*
X444472D02*
G75*
G02*
X444079I-197J0D01*
G01*
X444472D02*
G75*
G03*
X444079I-197J0D01*
G01*
X455299Y357093D02*
Y350597D01*
X510752Y385243D02*
X177248D01*
Y422251D01*
X510752D01*
Y385243D01*
X547031Y466404D02*
X541965D01*
Y468373D01*
X547031Y486089D02*
X541965D01*
Y484121D01*
X558697Y472310D02*
Y482152D01*
D02*
D26*
X92006Y403115D02*
X92636Y402721D01*
X92951Y401934D01*
X92636Y401146D01*
X92006Y400753D01*
X89802D01*
Y405477D01*
X92006D01*
X92636Y405083D01*
X92951Y404296D01*
X92636Y403509D01*
X92006Y403115D01*
X89802D01*
X93581Y402328D02*
Y403902D01*
X93896Y404690D01*
X94211Y405083D01*
X94841Y405477D01*
X95471D01*
X96101Y405083D01*
X96416Y404690D01*
X96731Y403902D01*
Y402328D01*
X96416Y401540D01*
X96101Y401146D01*
X95471Y400753D01*
X94841D01*
X94211Y401146D01*
X93896Y401540D01*
X93581Y402328D01*
X97361D02*
Y403902D01*
X97676Y404690D01*
X97991Y405083D01*
X98620Y405477D01*
X99250D01*
X99880Y405083D01*
X100195Y404690D01*
X100510Y403902D01*
Y402328D01*
X100195Y401540D01*
X99880Y401146D01*
X99250Y400753D01*
X98620D01*
X97991Y401146D01*
X97676Y401540D01*
X97361Y402328D01*
X102715Y400753D02*
Y405477D01*
X101140D02*
X104290D01*
X123518Y457565D02*
X130112D01*
X123518Y466551D02*
X130112D01*
X123518Y478033D02*
X130112D01*
X125388Y454416D02*
X130112D01*
X125388Y463402D02*
X130112D01*
X125388Y474883D02*
X130112D01*
X153202Y329928D02*
Y334652D01*
X155957D01*
X156745Y334259D01*
X157139Y333471D01*
X156745Y332684D01*
X155957Y332290D01*
X153202D01*
X157926Y331503D02*
Y333078D01*
X158320Y333865D01*
X158713Y334259D01*
X159501Y334652D01*
X160288D01*
X161076Y334259D01*
X161469Y333865D01*
X161863Y333078D01*
Y331503D01*
X161469Y330715D01*
X161076Y330322D01*
X160288Y329928D01*
X159501D01*
X158713Y330322D01*
X158320Y330715D01*
X157926Y331503D01*
X162650Y334652D02*
X163044Y329928D01*
X164619Y332290D01*
X166194Y329928D01*
X166587Y334652D01*
X167375Y329928D02*
Y334652D01*
X171312D01*
X170524Y332290D02*
X167375D01*
Y329928D02*
X171312D01*
X172099D02*
Y334652D01*
X174855D01*
X175643Y334259D01*
X176036Y333471D01*
X175643Y332684D01*
X174855Y332290D01*
X172099D01*
X174855D02*
X176036Y329928D01*
X176824D02*
X180761Y334652D01*
X181548Y329928D02*
X183517Y334652D01*
X185485Y329928D01*
X182335Y331896D02*
X184698D01*
X190209Y330715D02*
X189816Y330322D01*
X189028Y329928D01*
X187847D01*
X187060Y330322D01*
X186666Y330715D01*
X186272Y331503D01*
Y333078D01*
X186666Y333865D01*
X187060Y334259D01*
X187847Y334652D01*
X189028D01*
X189816Y334259D01*
X190209Y333865D01*
X194934Y330715D02*
X194540Y330322D01*
X193753Y329928D01*
X192572D01*
X191784Y330322D01*
X191391Y330715D01*
X190997Y331503D01*
Y333078D01*
X191391Y333865D01*
X191784Y334259D01*
X192572Y334652D01*
X193753D01*
X194540Y334259D01*
X194934Y333865D01*
X176717Y535902D02*
X180260D01*
X181638Y535706D02*
X186362D01*
Y524288D01*
X181638D01*
Y535706D01*
X182524Y340204D02*
G75*
G02*
Y340991I0J394D01*
G01*
Y340204D02*
G75*
G03*
Y340991I0J394D01*
G01*
X185489Y494991D02*
X182536D01*
Y506408D01*
X185489D01*
Y494991D01*
X191394Y494400D02*
X186867D01*
X299701Y516149D02*
G75*
G03*
X300489I394J0D01*
G01*
X299701D02*
G75*
G02*
X300489I394J0D01*
G01*
X303244Y508275D02*
X296945D01*
X312750Y370223D02*
Y376129D01*
X315211Y373176D01*
X317671Y376129D01*
Y370223D01*
X320624Y371700D02*
X321116Y370715D01*
X322100Y370223D01*
X324069D01*
X325053Y370715D01*
X325545Y371700D01*
X325053Y372684D01*
X324069Y373176D01*
X322100D01*
X321116Y373668D01*
X320624Y374652D01*
X321116Y375637D01*
X322100Y376129D01*
X324069D01*
X325053Y375637D01*
X325545Y374652D01*
X328498Y370223D02*
X333419Y376129D01*
X328498D02*
X333419Y370223D01*
X344246Y371700D02*
X344738Y370715D01*
X345722Y370223D01*
X347691D01*
X348675Y370715D01*
X349167Y371700D01*
X348675Y372684D01*
X347691Y373176D01*
X345722D01*
X344738Y373668D01*
X344246Y374652D01*
X344738Y375637D01*
X345722Y376129D01*
X347691D01*
X348675Y375637D01*
X349167Y374652D01*
X352120Y376129D02*
Y370223D01*
X357041D01*
X359994Y372192D02*
Y374160D01*
X360486Y375144D01*
X360978Y375637D01*
X361963Y376129D01*
X362947D01*
X363931Y375637D01*
X364423Y375144D01*
X364915Y374160D01*
Y372192D01*
X364423Y371207D01*
X363931Y370715D01*
X362947Y370223D01*
X361963D01*
X360978Y370715D01*
X360486Y371207D01*
X359994Y372192D01*
X370329Y370223D02*
Y376129D01*
X367868D02*
X372789D01*
X326677Y472979D02*
G75*
G02*
Y472192I0J-394D01*
G01*
Y472979D02*
G75*
G02*
Y472192I0J-394D01*
G01*
G75*
G02*
Y472979I0J394D01*
G01*
X392717Y490749D02*
X394292D01*
X392717Y500591D02*
X394292D01*
X415250Y522871D02*
Y529367D01*
X417957Y526119D01*
X420663Y529367D01*
Y522871D01*
X421746Y524495D02*
X422287Y523412D01*
X423370Y522871D01*
X425535D01*
X426618Y523412D01*
X427159Y524495D01*
X426618Y525578D01*
X425535Y526119D01*
X423370D01*
X422287Y526660D01*
X421746Y527743D01*
X422287Y528826D01*
X423370Y529367D01*
X425535D01*
X426618Y528826D01*
X427159Y527743D01*
X428242Y522871D02*
X433656Y529367D01*
X428242D02*
X433656Y522871D01*
X438636D02*
Y529367D01*
X442425D01*
X443508Y528826D01*
X444049Y527743D01*
X443508Y526660D01*
X442425Y526119D01*
X438636D01*
X445132Y529367D02*
Y522871D01*
X450545D01*
X451628D02*
X454335Y529367D01*
X457041Y522871D01*
X452711Y525578D02*
X455959D01*
X460831Y522871D02*
Y526119D01*
X458124Y529367D01*
X460831Y526119D02*
X463537Y529367D01*
X468951Y523412D02*
X468409Y522871D01*
X467327D01*
X466244D01*
X465161Y523412D01*
X464620Y524495D01*
Y526119D01*
X465161Y526660D01*
X466244Y527202D01*
X467327D01*
X468409Y526660D01*
X468951Y526119D01*
Y525578D01*
X468409Y525036D01*
X467327Y524495D01*
X466244D01*
X465161Y525036D01*
X464620Y525578D01*
X469990Y522871D02*
Y527202D01*
Y525578D02*
X470531Y526660D01*
X471614Y527202D01*
X472697D01*
X473780Y526660D01*
X415250Y514209D02*
Y520706D01*
X419039D01*
X420122Y520164D01*
X420663Y519081D01*
X420122Y517999D01*
X419039Y517457D01*
X415250D01*
X419039D02*
X420663Y514209D01*
X421746Y516375D02*
Y518540D01*
X422287Y519623D01*
X422829Y520164D01*
X423911Y520706D01*
X424994D01*
X426077Y520164D01*
X426618Y519623D01*
X427159Y518540D01*
Y516375D01*
X426618Y515292D01*
X426077Y514751D01*
X424994Y514209D01*
X423911D01*
X422829Y514751D01*
X422287Y515292D01*
X421746Y516375D01*
X428242Y514209D02*
Y520706D01*
X430949Y517457D01*
X433656Y520706D01*
Y514209D01*
X444049Y515292D02*
X443508Y514751D01*
X442425Y514209D01*
X440801D01*
X439719Y514751D01*
X439177Y515292D01*
X438636Y516375D01*
Y518540D01*
X439177Y519623D01*
X439719Y520164D01*
X440801Y520706D01*
X442425D01*
X443508Y520164D01*
X444049Y519623D01*
X445132Y517999D02*
X446215Y518540D01*
X447839D01*
X448921Y517999D01*
X449463Y516916D01*
Y515292D01*
X448921Y514751D01*
X447839Y514209D01*
X446756D01*
X445673Y514751D01*
X445132Y515292D01*
Y515833D01*
X445673Y516375D01*
X446756Y516916D01*
X447839D01*
X448921Y516375D01*
X449463Y515833D01*
Y515292D02*
Y514209D01*
X450502D02*
Y518540D01*
Y516916D02*
X451043Y517999D01*
X452126Y518540D01*
X453209D01*
X454291Y517999D01*
X455352Y518540D02*
X457879D01*
X456615Y519623D02*
Y514751D01*
X457157Y514209D01*
X457698D01*
X458239Y514751D01*
X459250Y514209D02*
Y518540D01*
Y516916D02*
X459791Y517999D01*
X460874Y518540D01*
X461957D01*
X463039Y517999D01*
X464100Y514209D02*
Y518540D01*
Y520164D02*
X469470Y516916D02*
X468929Y517999D01*
X467846Y518540D01*
X466764D01*
X465681Y517999D01*
X465140Y516916D01*
Y515833D01*
X465681Y514751D01*
X466764Y514209D01*
X467846D01*
X468929Y514751D01*
X469470Y515833D01*
Y514209D02*
Y520706D01*
X474841Y516916D02*
X474299Y517999D01*
X473217Y518540D01*
X472134D01*
X471051Y517999D01*
X470510Y516916D01*
Y516375D01*
X471051Y515292D01*
X472134Y514751D01*
X473217D01*
X474299Y515292D01*
X474841Y516375D01*
Y518540D02*
Y514209D01*
X474299Y513127D01*
X473217Y512585D01*
X471593D01*
X470510Y513127D01*
X480211Y514751D02*
X479669Y514209D01*
X478587D01*
X477504D01*
X476421Y514751D01*
X475880Y515833D01*
Y517457D01*
X476421Y517999D01*
X477504Y518540D01*
X478587D01*
X479669Y517999D01*
X480211Y517457D01*
Y516916D01*
X479669Y516375D01*
X478587Y515833D01*
X477504D01*
X476421Y516375D01*
X475880Y516916D01*
X485148Y514209D02*
X487854Y520706D01*
X490561Y514209D01*
X486230Y516916D02*
X489478D01*
X495974D02*
X495433Y517999D01*
X494350Y518540D01*
X493268D01*
X492185Y517999D01*
X491644Y516916D01*
Y515833D01*
X492185Y514751D01*
X493268Y514209D01*
X494350D01*
X495433Y514751D01*
X495974Y515833D01*
Y514209D02*
Y520706D01*
X497014Y517999D02*
X498096Y518540D01*
X499720D01*
X500803Y517999D01*
X501344Y516916D01*
Y515292D01*
X500803Y514751D01*
X499720Y514209D01*
X498638D01*
X497555Y514751D01*
X497014Y515292D01*
Y515833D01*
X497555Y516375D01*
X498638Y516916D01*
X499720D01*
X500803Y516375D01*
X501344Y515833D01*
Y515292D02*
Y514209D01*
X502384Y518540D02*
Y512585D01*
Y515833D02*
X502925Y514751D01*
X504008Y514209D01*
X505091D01*
X506173Y514751D01*
X506715Y515833D01*
Y516916D01*
X506173Y517999D01*
X505091Y518540D01*
X504008D01*
X502925Y517999D01*
X502384Y516916D01*
Y515833D01*
X507754Y518540D02*
X510280D01*
X509017Y519623D02*
Y514751D01*
X509558Y514209D01*
X510100D01*
X510641Y514751D01*
X515982D02*
X515441Y514209D01*
X514358D01*
X513276D01*
X512193Y514751D01*
X511652Y515833D01*
Y517457D01*
X512193Y517999D01*
X513276Y518540D01*
X514358D01*
X515441Y517999D01*
X515982Y517457D01*
Y516916D01*
X515441Y516375D01*
X514358Y515833D01*
X513276D01*
X512193Y516375D01*
X511652Y516916D01*
X517022Y514209D02*
Y518540D01*
Y516916D02*
X517563Y517999D01*
X518646Y518540D01*
X519728D01*
X520811Y517999D01*
X416333Y505548D02*
X415250Y507172D01*
Y510961D01*
X416333Y512044D01*
X417415Y507172D02*
X417957Y506089D01*
X419039Y505548D01*
X421205D01*
X422287Y506089D01*
X422829Y507172D01*
X422287Y508255D01*
X421205Y508796D01*
X419039D01*
X417957Y509337D01*
X417415Y510420D01*
X417957Y511503D01*
X419039Y512044D01*
X421205D01*
X422287Y511503D01*
X422829Y510420D01*
X423911Y505548D02*
Y509879D01*
Y511503D02*
X424951Y505548D02*
Y509879D01*
Y508255D02*
X425492Y509337D01*
X426575Y509879D01*
X427657D01*
X428740Y509337D01*
X429281Y508255D01*
Y505548D01*
X434652Y508255D02*
X434110Y509337D01*
X433028Y509879D01*
X431945D01*
X430862Y509337D01*
X430321Y508255D01*
Y507713D01*
X430862Y506631D01*
X431945Y506089D01*
X433028D01*
X434110Y506631D01*
X434652Y507713D01*
Y509879D02*
Y505548D01*
X434110Y504465D01*
X433028Y503924D01*
X431404D01*
X430321Y504465D01*
X436232Y505548D02*
X435691D01*
Y512044D01*
X441581Y506089D02*
X441039Y505548D01*
X439957D01*
X438874D01*
X437791Y506089D01*
X437250Y507172D01*
Y508796D01*
X437791Y509337D01*
X438874Y509879D01*
X439957D01*
X441039Y509337D01*
X441581Y508796D01*
Y508255D01*
X441039Y507713D01*
X439957Y507172D01*
X438874D01*
X437791Y507713D01*
X437250Y508255D01*
X446518Y507172D02*
X447059Y506089D01*
X448142Y505548D01*
X450307D01*
X451390Y506089D01*
X451931Y507172D01*
X451390Y508255D01*
X450307Y508796D01*
X448142D01*
X447059Y509337D01*
X446518Y510420D01*
X447059Y511503D01*
X448142Y512044D01*
X450307D01*
X451390Y511503D01*
X451931Y510420D01*
X453555Y505548D02*
X453014D01*
Y512044D01*
X454573Y507172D02*
X455114Y506089D01*
X456197Y505548D01*
X457280D01*
X458362Y506089D01*
X458904Y507172D01*
Y508255D01*
X458362Y509337D01*
X457280Y509879D01*
X456197D01*
X455114Y509337D01*
X454573Y508255D01*
Y507172D01*
X459943Y509879D02*
X462469D01*
X461206Y510961D02*
Y506089D01*
X461747Y505548D01*
X462289D01*
X462830Y506089D01*
X463841Y505548D02*
X464923Y507172D01*
Y510961D01*
X463841Y512044D01*
X536971Y493856D02*
Y498580D01*
X539727D01*
X540515Y498187D01*
X540908Y497399D01*
X540515Y496612D01*
X539727Y496218D01*
X536971D01*
X539727D02*
X540908Y493856D01*
X541696D02*
Y498580D01*
X545633D01*
X544845Y496218D02*
X541696D01*
Y493856D02*
X545633D01*
X546420Y495037D02*
X546814Y494250D01*
X547601Y493856D01*
X549176D01*
X549963Y494250D01*
X550357Y495037D01*
X549963Y495824D01*
X549176Y496218D01*
X547601D01*
X546814Y496612D01*
X546420Y497399D01*
X546814Y498187D01*
X547601Y498580D01*
X549176D01*
X549963Y498187D01*
X550357Y497399D01*
X551144Y493856D02*
Y498580D01*
X555081D01*
X554294Y496218D02*
X551144D01*
Y493856D02*
X555081D01*
X557837D02*
Y498580D01*
X555869D02*
X559806D01*
X544584Y457596D02*
X544978Y456809D01*
X545765Y456415D01*
X547340D01*
X548128Y456809D01*
X548521Y457596D01*
X548128Y458383D01*
X547340Y458777D01*
X545765D01*
X544978Y459171D01*
X544584Y459958D01*
X544978Y460746D01*
X545765Y461139D01*
X547340D01*
X548128Y460746D01*
X548521Y459958D01*
X549309Y461139D02*
X549702Y456415D01*
X551277Y458777D01*
X552852Y456415D01*
X553246Y461139D01*
X554033Y456415D02*
Y461139D01*
X556395D01*
X557183Y460746D01*
X557576Y460352D01*
X557970Y459565D01*
Y457990D01*
X557576Y457202D01*
X557183Y456809D01*
X556395Y456415D01*
X554033D01*
D02*
D92*
X115223Y364377D02*
X535250D01*
G75*
G03*
X542587Y371715I0J7337D01*
G01*
Y436247D01*
G75*
G03*
X534957Y443877I-7630J0D01*
G01*
X115380D01*
G75*
G03*
X107750Y436247I0J-7630D01*
G01*
Y371850D01*
G75*
G03*
X115223Y364377I7473J0D01*
G01*
D02*
D93*
X292694Y468333D02*
G75*
G02*
X293678I492J0D01*
G01*
X292694D02*
G75*
G02*
X293678I492J0D01*
G01*
G75*
G02*
X292694I-492J0D01*
G01*
X0Y0D02*
M02*
