G04 DesignSpark PCB Gerber Version 11.0 Build 5877*
G04 #@! TF.Part,Single*
G04 #@! TF.FileFunction,Soldermask,Top*
G04 #@! TF.FilePolarity,Negative*
%FSLAX35Y35*%
%MOIN*%
G04 #@! TA.AperFunction,SMDPad,CuDef*
%ADD133R,0.01063X0.03504*%
%ADD125R,0.01142X0.06654*%
%ADD123R,0.02126X0.03701*%
%ADD136R,0.02520X0.02598*%
%ADD128R,0.02520X0.03110*%
%ADD122R,0.02717X0.03701*%
%ADD140R,0.02717X0.04291*%
%ADD135R,0.13740X0.13740*%
G04 #@! TD.AperFunction*
%ADD17C,0.00500*%
G04 #@! TA.AperFunction,ComponentPad*
%ADD15C,0.02520*%
G04 #@! TA.AperFunction,WasherPad*
%ADD11C,0.02835*%
G04 #@! TA.AperFunction,ComponentPad*
%ADD16C,0.04094*%
%ADD12C,0.06063*%
%ADD13C,0.20827*%
%ADD14O,0.08425X0.04094*%
G04 #@! TA.AperFunction,SMDPad,CuDef*
%ADD134R,0.03504X0.01063*%
%ADD124R,0.03701X0.01339*%
%ADD142R,0.04646X0.01339*%
%ADD121R,0.02323X0.01811*%
%ADD126R,0.02598X0.02520*%
%ADD139R,0.03110X0.02520*%
%ADD129R,0.03701X0.02520*%
%ADD141R,0.04646X0.02520*%
%ADD137R,0.04685X0.02520*%
%ADD131R,0.06260X0.02520*%
%ADD138R,0.02717X0.02677*%
%ADD127R,0.06063X0.03701*%
%ADD143R,0.06457X0.04094*%
%ADD144R,0.13937X0.04094*%
%ADD130R,0.05276X0.04291*%
%ADD132R,0.07244X0.04882*%
%ADD145R,0.15118X0.06063*%
G04 #@! TD.AperFunction*
X0Y0D02*
D02*
D11*
X340250Y493747D03*
X344000Y489997D03*
Y497497D03*
X347750Y493747D03*
D02*
D12*
X224000Y393747D03*
Y413747D03*
X234000Y393747D03*
Y413747D03*
X244000Y393747D03*
Y413747D03*
X254000Y393747D03*
Y413747D03*
X264000Y393747D03*
Y413747D03*
X274000Y393747D03*
Y413747D03*
X284000Y393747D03*
Y413747D03*
X294000Y393747D03*
Y413747D03*
X304000Y393747D03*
Y413747D03*
X314000Y393747D03*
Y413747D03*
X324000Y393747D03*
Y413747D03*
X334000Y393747D03*
Y413747D03*
X344000Y393747D03*
Y413747D03*
X354000Y393747D03*
Y413747D03*
X364000Y393747D03*
Y413747D03*
X374000Y393747D03*
Y413747D03*
X384000Y393747D03*
Y413747D03*
X394000Y393747D03*
Y413747D03*
X404000Y393747D03*
Y413747D03*
X414000Y393747D03*
Y413747D03*
X424000Y393747D03*
Y413747D03*
X434000Y393747D03*
Y413747D03*
X444000Y393747D03*
Y413747D03*
X454000Y393747D03*
Y413747D03*
X464000Y393747D03*
Y413747D03*
D02*
D13*
X190240Y403747D03*
X497760D03*
D02*
D14*
X92986Y447379D03*
Y481394D03*
X109443Y447379D03*
Y481394D03*
D02*
D15*
X90821Y447379D03*
Y481394D03*
X91608Y447379D03*
Y481394D03*
X92396Y447379D03*
Y481394D03*
X93577Y447379D03*
Y481394D03*
X94364Y447379D03*
Y481394D03*
X95152Y447379D03*
Y481394D03*
X107278Y447379D03*
Y481394D03*
X108065Y447379D03*
Y481394D03*
X108852Y447379D03*
Y481394D03*
X110033Y447379D03*
Y481394D03*
X110833Y447379D03*
Y481394D03*
X111608Y447379D03*
Y481394D03*
D02*
D16*
X109925Y493196D03*
Y524298D03*
D02*
D17*
X548578Y324025D02*
X100035D01*
G75*
G02*
X86203Y337857I0J13833D01*
G01*
Y546344D01*
G75*
G02*
X100035Y560176I13833J0D01*
G01*
X548578D01*
G75*
G02*
X562425Y546329I0J-13847D01*
G01*
Y337872D01*
G75*
G02*
X548578Y324025I-13847J0D01*
G01*
D02*
D121*
X124600Y455991D03*
Y464976D03*
Y476458D03*
X130900Y455991D03*
Y464976D03*
Y476458D03*
D02*
D122*
X264276Y350400D03*
Y357093D03*
X273724Y350400D03*
Y357093D03*
X284276Y350400D03*
Y357093D03*
X293724Y350400D03*
Y357093D03*
X304276Y350400D03*
Y357093D03*
X313724Y350400D03*
Y357093D03*
X324276Y350400D03*
Y357093D03*
X333724Y350400D03*
Y357093D03*
X344276Y350400D03*
Y357093D03*
X353724Y350400D03*
Y357093D03*
X364276Y350400D03*
Y357093D03*
X373724Y350400D03*
Y357093D03*
X384276Y350400D03*
Y357093D03*
X393724Y350400D03*
Y357093D03*
X404276Y350400D03*
Y357093D03*
X413724Y350400D03*
Y357093D03*
X424276Y350400D03*
Y357093D03*
X433724Y350400D03*
Y357093D03*
X444276Y350400D03*
Y357093D03*
X453724Y350400D03*
Y357093D03*
D02*
D123*
X267425Y350400D03*
Y357093D03*
X270575Y350400D03*
Y357093D03*
X287425Y350400D03*
Y357093D03*
X290575Y350400D03*
Y357093D03*
X307425Y350400D03*
Y357093D03*
X310575Y350400D03*
Y357093D03*
X327425Y350400D03*
Y357093D03*
X330575Y350400D03*
Y357093D03*
X347425Y350400D03*
Y357093D03*
X350575Y350400D03*
Y357093D03*
X367425Y350400D03*
Y357093D03*
X370575Y350400D03*
Y357093D03*
X387425Y350400D03*
Y357093D03*
X390575Y350400D03*
Y357093D03*
X407425Y350400D03*
Y357093D03*
X410575Y350400D03*
Y357093D03*
X427425Y350400D03*
Y357093D03*
X430575Y350400D03*
Y357093D03*
X447425Y350400D03*
Y357093D03*
X450575Y350400D03*
Y357093D03*
D02*
D124*
X280391Y470893D03*
Y472861D03*
Y474830D03*
Y476798D03*
X291415Y470893D03*
Y472861D03*
Y474830D03*
Y476798D03*
D02*
D125*
X285903Y473845D03*
D02*
D126*
X164344Y496389D03*
Y500011D03*
X170210Y496389D03*
Y500011D03*
X170335Y530551D03*
Y534173D03*
X198501Y530062D03*
Y533684D03*
X199753Y496979D03*
Y500601D03*
X310828Y500686D03*
Y504308D03*
X310882Y509190D03*
Y512812D03*
X316444Y509210D03*
Y512832D03*
X329000Y520686D03*
Y524308D03*
X334541Y460661D03*
Y464283D03*
X342029Y520686D03*
Y524308D03*
X343213Y460537D03*
Y464159D03*
X345898Y520686D03*
Y524308D03*
X352013Y460537D03*
Y464159D03*
X359376Y520686D03*
Y524308D03*
X368986Y521296D03*
Y524918D03*
D02*
D127*
X165398Y340400D03*
Y347093D03*
X177602Y340400D03*
Y347093D03*
D02*
D128*
X153237Y496500D03*
Y500831D03*
X158853Y496379D03*
Y500710D03*
X164594Y530197D03*
Y534528D03*
X170210Y505611D03*
Y509941D03*
X363869Y520587D03*
Y524918D03*
D02*
D129*
X178488Y526257D03*
Y529997D03*
Y533737D03*
X189512Y526257D03*
Y533737D03*
D02*
D130*
X388977Y492225D03*
Y499115D03*
X398032Y492225D03*
Y499115D03*
D02*
D131*
X539303Y472310D03*
Y476247D03*
Y480184D03*
D02*
D132*
X554563Y467192D03*
Y485302D03*
D02*
D133*
X329039Y474259D03*
Y513235D03*
X330614Y474259D03*
Y513235D03*
X332189Y474259D03*
Y513235D03*
X333764Y474259D03*
Y513235D03*
X335339Y474259D03*
Y513235D03*
X336913Y474259D03*
Y513235D03*
X338488Y474259D03*
Y513235D03*
X340063Y474259D03*
Y513235D03*
X341638Y474259D03*
Y513235D03*
X343213Y474259D03*
Y513235D03*
X344787Y474259D03*
Y513235D03*
X346362Y474259D03*
Y513235D03*
X347937Y474259D03*
Y513235D03*
X349512Y474259D03*
Y513235D03*
X351087Y474259D03*
Y513235D03*
X352661Y474259D03*
Y513235D03*
X354236Y474259D03*
Y513235D03*
X355811Y474259D03*
Y513235D03*
X357386Y474259D03*
Y513235D03*
X358961Y474259D03*
Y513235D03*
D02*
D134*
X324512Y478786D03*
Y480361D03*
Y481936D03*
Y483511D03*
Y485085D03*
Y486660D03*
Y488235D03*
Y489810D03*
Y491385D03*
Y492959D03*
Y494534D03*
Y496109D03*
Y497684D03*
Y499259D03*
Y500833D03*
Y502408D03*
Y503983D03*
Y505558D03*
Y507133D03*
Y508707D03*
X363488Y478786D03*
Y480361D03*
Y481936D03*
Y483511D03*
Y485085D03*
Y486660D03*
Y488235D03*
Y489810D03*
Y491385D03*
Y492959D03*
Y494534D03*
Y496109D03*
Y497684D03*
Y499259D03*
Y500833D03*
Y502408D03*
Y503983D03*
Y505558D03*
Y507133D03*
Y508707D03*
D02*
D135*
X344000Y493747D03*
D02*
D136*
X165369Y354518D03*
X168991D03*
X276592Y463845D03*
X280214D03*
X314259Y483939D03*
Y491811D03*
X317881Y483939D03*
Y491811D03*
X374194Y480694D03*
Y489804D03*
Y496107D03*
X377816Y480694D03*
Y489804D03*
Y496107D03*
D02*
D137*
X178894Y496959D03*
Y500700D03*
Y504440D03*
X189130Y496959D03*
Y500700D03*
Y504440D03*
D02*
D138*
X394233Y483747D03*
Y507402D03*
X397776Y483747D03*
Y507402D03*
D02*
D139*
X125585Y450000D03*
Y469719D03*
X129915Y450000D03*
Y469719D03*
X148085Y458137D03*
Y463137D03*
X152415Y458137D03*
Y463137D03*
X287116Y463845D03*
X291447D03*
X382589Y507526D03*
X386920D03*
D02*
D140*
X92433Y409873D03*
Y426212D03*
X100898Y409873D03*
Y426212D03*
X546967Y504100D03*
Y520438D03*
X555431Y504100D03*
Y520438D03*
D02*
D141*
X111687Y451788D03*
Y454938D03*
Y473835D03*
Y476985D03*
D02*
D142*
Y457497D03*
Y459465D03*
Y461434D03*
Y463402D03*
Y465371D03*
Y467339D03*
Y469308D03*
Y471276D03*
D02*
D143*
X300095Y504338D03*
Y512212D03*
D02*
D144*
X124295Y496936D03*
Y504810D03*
Y512684D03*
Y520558D03*
D02*
D145*
X96933Y488471D03*
Y529022D03*
X0Y0D02*
M02*
